<svg xmlns="http://www.w3.org/2000/svg" viewBox="0 0 475.48 384.37"><defs><style>.cls-1{fill:#7889a8;}.cls-2{fill:#5b6b8d;}.cls-3{fill:#e1fff1;stroke:#0ab979;stroke-miterlimit:10;stroke-width:2px;}.cls-25,.cls-30,.cls-4{fill:#fff;}.cls-5{fill:#003a70;}.cls-6{fill:#ffa400;}.cls-7{fill:#58596c;}.cls-8{fill:#ff5856;}.cls-9{fill:#db4040;}.cls-10{fill:#cc3636;}.cls-11{fill:#ffdc67;}.cls-12{fill:#ffb456;}.cls-13{fill:#fc974d;}.cls-14{fill:#f47f31;}.cls-15{fill:#d7edff;}.cls-16{fill:#0399ff;}.cls-17{fill:#912626;}.cls-18{fill:#c6302b;}.cls-19{fill:#621b1c;}.cls-20{fill:#9a2928;}.cls-21{fill:#fff1d7;}.cls-22{fill:#ffb70a;}.cls-23{fill:#002b64;}.cls-24{fill:#d77758;}.cls-25{font-size:12px;}.cls-25,.cls-30{font-family:OpenSans-SemiBold, Open Sans;font-weight:600;}.cls-26{fill:#5e8cda;}.cls-27{fill:#093071;}.cls-28{fill:#f5cd21;}.cls-29{fill:#fddd75;}.cls-30{font-size:14px;}.cls-31{fill:#556ae5;}</style></defs><g id="Layer_2" data-name="Layer 2"><g id="Слой_1" data-name="Слой 1"><path class="cls-1" d="M206.25,142.24a5,5,0,0,1,5,5V377.09a5,5,0,0,1-5,5H7a5,5,0,0,1-5-5V147.24a5,5,0,0,1,5-5H206.25m0-2H7a7,7,0,0,0-7,7V377.09a7,7,0,0,0,7,7H206.25a7,7,0,0,0,7-7V147.24a7,7,0,0,0-7-7Z"/><path class="cls-2" d="M2,360H211.25a0,0,0,0,1,0,0v17a5,5,0,0,1-5,5H7a5,5,0,0,1-5-5V360A0,0,0,0,1,2,360Z"/><rect class="cls-3" x="12.13" y="150.05" width="35" height="35" rx="5"/><path class="cls-4" d="M36.68,168.11H35.33v-1.73a5.86,5.86,0,1,0-11.71,0v1.73H22.23a1.11,1.11,0,0,0-1.13,1.12v10.69a1.12,1.12,0,0,0,1.13,1.13H36.68a1.12,1.12,0,0,0,1.13-1.13V169.23A1.15,1.15,0,0,0,36.68,168.11Zm-6.52,7v1.45a.74.74,0,0,1-1.48,0v-1.45a1.44,1.44,0,0,1-.74-1.3,1.48,1.48,0,1,1,3,0A1.37,1.37,0,0,1,30.16,175.12Zm-3.19-7v-1.73a2.51,2.51,0,1,1,5,0v1.73Z"/><path class="cls-4" d="M21.78,165.5a1,1,0,0,0-1-1H17.27a1,1,0,0,0,0,2.05h3.49A1,1,0,0,0,21.78,165.5Z"/><path class="cls-4" d="M22.6,160.77a.87.87,0,0,0,.63.25,1.17,1.17,0,0,0,.81-.39,1.06,1.06,0,0,0-.14-1.45l-2.75-2.25a1.06,1.06,0,0,0-1.45.14,1,1,0,0,0,.14,1.44Z"/><path class="cls-4" d="M29.47,158.62a1,1,0,0,0,1-1v-3.53a1,1,0,1,0-2,0v3.53A1,1,0,0,0,29.47,158.62Z"/><path class="cls-4" d="M35.68,161a1,1,0,0,0,.67-.25l2.75-2.26a1,1,0,0,0,.14-1.44,1.06,1.06,0,0,0-1.45-.14L35,159.18a1.06,1.06,0,0,0-.14,1.45A1,1,0,0,0,35.68,161Z"/><path class="cls-4" d="M41.64,164.47H38.11a1,1,0,0,0,0,2.05h3.53a1,1,0,0,0,0-2.05Z"/><path class="cls-5" d="M36.68,168.11H22.23a1.11,1.11,0,0,0-1.13,1.13v10.68a1.12,1.12,0,0,0,1.13,1.13H36.68a1.12,1.12,0,0,0,1.13-1.13V169.24A1.15,1.15,0,0,0,36.68,168.11Zm-6.52,7v1.45a.74.74,0,0,1-1.48,0v-1.45a1.44,1.44,0,0,1-.74-1.3,1.48,1.48,0,1,1,3,0A1.37,1.37,0,0,1,30.16,175.12Z"/><path class="cls-6" d="M35.33,168.11H32v-1.73a2.51,2.51,0,1,0-5,0v1.73H23.62v-1.73a5.86,5.86,0,1,1,11.71,0Z"/><path class="cls-6" d="M20.76,166.52H17.27a1,1,0,0,1,0-2.05h3.49a1,1,0,0,1,0,2.05Z"/><path class="cls-6" d="M23.23,161a.87.87,0,0,1-.63-.25l-2.76-2.26a1,1,0,0,1-.14-1.44,1.06,1.06,0,0,1,1.45-.14l2.75,2.25a1.06,1.06,0,0,1,.14,1.45A1.17,1.17,0,0,1,23.23,161Z"/><path class="cls-6" d="M29.47,158.62a1,1,0,0,1-1-1v-3.53a1,1,0,1,1,2,0v3.53A1,1,0,0,1,29.47,158.62Z"/><path class="cls-6" d="M35.68,161a1,1,0,0,1-.78-.39,1.06,1.06,0,0,1,.14-1.45l2.75-2.25a1.06,1.06,0,0,1,1.45.14,1,1,0,0,1-.14,1.44l-2.75,2.26A1,1,0,0,1,35.68,161Z"/><path class="cls-6" d="M41.64,166.52H38.11a1,1,0,0,1,0-2.05h3.53a1,1,0,0,1,0,2.05Z"/><rect class="cls-3" x="12" y="190.05" width="35.25" height="35" rx="5"/><path class="cls-7" d="M41,207.56A11.54,11.54,0,1,1,29.45,196,11.54,11.54,0,0,1,41,207.56Z"/><path class="cls-8" d="M40.13,203.2H18.76a11.54,11.54,0,1,0,21.37,0Z"/><path class="cls-9" d="M41,206.89c0-.27,0-.54-.07-.81h-7v-2.47h6.37c-.1-.28-.21-.55-.33-.82h-21c-.12.27-.23.54-.33.82H25v2.47H18c0,.27-.06.54-.07.81h3v2.48H18.05c0,.28.1.55.16.81H25v2.48H19.09q.21.42.45.81h1.38v1.87a11.63,11.63,0,0,0,1.56,1.42H25v1.45l.81.3v-1.75h7.32v1.75l.81-.3v-1.45h2.5A11.63,11.63,0,0,0,38,215.34v-1.87h1.38a7.89,7.89,0,0,0,.44-.81H33.92v-2.48h6.77c.06-.26.12-.53.16-.81H38v-2.48Zm-15.18-3.28h7.32v2.47H25.79Zm-4.06,5.76v-2.48H29v2.48ZM29,216H21.73v-2.48H29Zm-3.25-3.29v-2.48h7.32v2.48Zm11.38.81V216H29.85v-2.48Zm0-4.1H29.85v-2.48h7.32Z"/><path class="cls-9" d="M23.27,203.39a1.11,1.11,0,0,1,0-.19H18.76a11.56,11.56,0,0,0,4.51,14.11Z"/><path class="cls-10" d="M23.27,210.18v-.81H21.73v-2.48h1.54v-.81H18c0,.27-.06.54-.07.81h3v2.48H18.05c0,.28.1.55.16.81Z"/><path class="cls-10" d="M23.27,203.39a.91.91,0,0,1,.23-.6H18.94c-.12.27-.23.54-.33.82h4.66Z"/><path class="cls-10" d="M23.27,216H21.73v-2.48h1.54v-.81H19.09q.21.42.45.81h1.38v1.87a11.63,11.63,0,0,0,1.56,1.42h.79Z"/><path class="cls-11" d="M36.13,206.35l-1.69.53a3.58,3.58,0,0,0,.19-4.54,5,5,0,0,1-1.08-2.66.29.29,0,0,0-.53-.13,6.92,6.92,0,0,0-.84,1.79h0a4.9,4.9,0,0,0-1.36-3.67,3.41,3.41,0,0,1-1-3,.26.26,0,0,0-.12-.29.29.29,0,0,0-.32,0,8.93,8.93,0,0,0-4.2,9.06h0c0,.26-.15.18-.21.13a7.32,7.32,0,0,1-1.13-1.2.26.26,0,0,0-.27-.11.3.3,0,0,0-.24.19,8.92,8.92,0,0,0,.65,7.44,6.26,6.26,0,0,0,5.62,2.82c4.2,0,6.5-2.55,6.93-6A.28.28,0,0,0,36.13,206.35Z"/><path class="cls-12" d="M24.86,203.71a.3.3,0,0,1,.11-.14l0,0a7.32,7.32,0,0,1-1.13-1.2.26.26,0,0,0-.27-.11.3.3,0,0,0-.24.19c-1.19,3.35-.4,7.66,2.71,9.41A8.56,8.56,0,0,1,24.86,203.71Z"/><path class="cls-12" d="M25.15,203.42a.31.31,0,0,1,0,.1.3.3,0,0,1,.23.11,7.36,7.36,0,0,0,1.13,1.21c.06,0,.21.12.21-.13h0a8.9,8.9,0,0,1,3.23-8.37,3.18,3.18,0,0,1-.15-1.68.26.26,0,0,0-.12-.29.29.29,0,0,0-.32,0,8.93,8.93,0,0,0-4.2,9.06Z"/><path class="cls-12" d="M33.34,209l-1,.31a2.12,2.12,0,0,0,.11-2.7,3,3,0,0,1-.64-1.58.17.17,0,0,0-.31-.08,3.93,3.93,0,0,0-.5,1.07h0a2.91,2.91,0,0,0-.81-2.18,2,2,0,0,1-.58-1.78.2.2,0,0,0-.07-.18.17.17,0,0,0-.19,0,5.3,5.3,0,0,0-2.5,5.4h0c0,.15-.11.08-.13.06a3.66,3.66,0,0,1-.67-.71.17.17,0,0,0-.3,0c-.77,2.15-.16,4.91,2,5.79a8.46,8.46,0,0,0,1.85.2,8.19,8.19,0,0,0,1.34-.1,3.78,3.78,0,0,0,2.65-3.37A.17.17,0,0,0,33.34,209Z"/><path class="cls-13" d="M27,211.91a5.34,5.34,0,0,1-.38-4.43.2.2,0,0,1,.09-.09l-.05,0a3.66,3.66,0,0,1-.67-.71.17.17,0,0,0-.3,0c-.71,2-.25,4.54,1.59,5.58A3.58,3.58,0,0,1,27,211.91Z"/><path class="cls-13" d="M26.81,207.3s0,0,0,.07a.16.16,0,0,1,.14.07,4.46,4.46,0,0,0,.68.71s.13.09.12-.06a5.33,5.33,0,0,1,1.92-5,1.84,1.84,0,0,1-.09-1,.2.2,0,0,0-.07-.18.17.17,0,0,0-.19,0,5.3,5.3,0,0,0-2.5,5.4Z"/><path class="cls-13" d="M29.69,208.59a.49.49,0,0,0-.64,0,2.7,2.7,0,0,0,0,4.06l0,0h.56l.05,0a2.7,2.7,0,0,0,0-4.06Z"/><path class="cls-14" d="M29.22,210.69a2.68,2.68,0,0,1,.73-1.85,3.07,3.07,0,0,0-.26-.25.49.49,0,0,0-.64,0,2.7,2.7,0,0,0,0,4.06l0,0h.56l.05,0,.19-.18A2.69,2.69,0,0,1,29.22,210.69Z"/><rect class="cls-3" x="12" y="230.05" width="35.25" height="35" rx="5"/><rect class="cls-15" x="12.13" y="270.05" width="37" height="37" rx="6"/><path class="cls-16" d="M43.13,271.05a5,5,0,0,1,5,5v25a5,5,0,0,1-5,5h-25a5,5,0,0,1-5-5v-25a5,5,0,0,1,5-5h25m0-2h-25a7,7,0,0,0-7,7v25a7,7,0,0,0,7,7h25a7,7,0,0,0,7-7v-25a7,7,0,0,0-7-7Z"/><path class="cls-17" d="M41.64,295c-1.29.67-8,3.43-9.43,4.18a3.22,3.22,0,0,1-3.36.2c-1.12-.54-8.27-3.43-9.55-4-.65-.31-1-.57-1-.82v-2.45s9.3-2,10.81-2.56a3.78,3.78,0,0,1,3.29-.09c1.28.46,8.92,1.84,10.18,2.31v2.41c0,.25-.29.51-1,.86"/><path class="cls-18" d="M41.64,292.58c-1.29.67-8,3.43-9.43,4.18a3.22,3.22,0,0,1-3.36.2c-1.12-.54-8.27-3.43-9.55-4s-1.32-1-.05-1.54,8.36-3.28,9.87-3.82a3.78,3.78,0,0,1,3.29-.09c1.28.47,8,3.13,9.22,3.59s1.31.84,0,1.52"/><path class="cls-17" d="M41.64,291.05c-1.29.67-8,3.43-9.43,4.18a3.21,3.21,0,0,1-3.36.19c-1.12-.53-8.27-3.42-9.55-4-.65-.3-1-.56-1-.81v-2.45s9.3-2,10.81-2.56a3.81,3.81,0,0,1,3.29-.1c1.28.47,8.92,1.85,10.18,2.31v2.42c0,.25-.29.51-1,.86"/><path class="cls-18" d="M41.64,288.61c-1.29.67-8,3.43-9.43,4.18a3.21,3.21,0,0,1-3.36.19c-1.12-.53-8.27-3.42-9.55-4s-1.32-1-.05-1.53,8.36-3.28,9.87-3.82a3.78,3.78,0,0,1,3.29-.09c1.28.47,8,3.12,9.22,3.59s1.31.84,0,1.52h0"/><path class="cls-17" d="M41.64,286.93c-1.29.67-8,3.43-9.43,4.18a3.22,3.22,0,0,1-3.36.2c-1.12-.54-8.27-3.43-9.55-4-.65-.31-1-.57-1-.82V284s9.3-2,10.81-2.56a3.78,3.78,0,0,1,3.29-.09c1.28.46,8.92,1.84,10.18,2.31v2.42c0,.24-.29.5-1,.85"/><path class="cls-18" d="M41.64,284.49c-1.29.67-8,3.43-9.43,4.18a3.22,3.22,0,0,1-3.36.2c-1.12-.54-8.27-3.43-9.55-4s-1.32-1-.05-1.54,8.36-3.28,9.87-3.82a3.78,3.78,0,0,1,3.29-.09c1.28.47,8,3.13,9.22,3.59s1.31.84,0,1.52"/><path class="cls-4" d="M33.42,282.1l-2.09.22-.46,1.12-.76-1.25L27.7,282l1.8-.65-.54-1,1.68.65,1.59-.52-.43,1,1.62.61"/><path class="cls-4" d="M30.74,287.56l-3.89-1.62,5.58-.86-1.69,2.48"/><path class="cls-4" d="M25.34,282.73c1.65,0,3,.51,3,1.15S27,285,25.34,285s-3-.52-3-1.16,1.33-1.15,3-1.15"/><path class="cls-19" d="M35.89,282.41l3.3,1.3L35.89,285v-2.61"/><path class="cls-20" d="M32.23,283.85l3.66-1.44V285l-.36.14-3.3-1.31"/><rect class="cls-21" x="12.63" y="312.05" width="37" height="37" rx="6"/><path class="cls-22" d="M43.63,313.05a5,5,0,0,1,5,5v25a5,5,0,0,1-5,5h-25a5,5,0,0,1-5-5v-25a5,5,0,0,1,5-5h25m0-2h-25a7,7,0,0,0-7,7v25a7,7,0,0,0,7,7h25a7,7,0,0,0,7-7v-25a7,7,0,0,0-7-7Z"/><path class="cls-23" d="M45.8,322.05c-.45,0-.3.14-1.27.38a19.54,19.54,0,0,0-3.22.61c-3.13,1.31-3.76,5.8-6.61,7.41-2.13,1.21-4.28,1.3-6.21,1.91a11.4,11.4,0,0,0-3.81,2.2c-.89.77-.92,1.45-1.85,2.42s-4,0-5.31,1.59c.43.44.62.57,1.48.45-.18.34-1.22.62-1,1.11s2.74.87,5-.51c1.06-.64,1.91-1.57,3.57-1.79a27.38,27.38,0,0,1,7.12.54,11.3,11.3,0,0,1-1.7,2.71c-.19.2.37.22,1,.1a10,10,0,0,0,2.81-1c1-.61,1.21-2.18,2.5-2.52a2.88,2.88,0,0,0,3.89.48c-1.07-.3-1.36-2.57-1-3.57s.67-2.45,1-3.7.5-3,1-3.72a8.86,8.86,0,0,1,2-2,2.86,2.86,0,0,0,1.21-2.47c0-.43-.22-.66-.63-.65Z"/><path class="cls-24" d="M18.44,340a6.44,6.44,0,0,0,3.94-.57c1.11-.48,2.19-1.48,3.5-1.9,1.94-.62,4.06,0,6.12.12a9.36,9.36,0,0,0,1.5,0c.77-.47.75-2.24,1.5-2.41a8.52,8.52,0,0,1-2.1,5.41,6,6,0,0,0,4.49-3.42,12.26,12.26,0,0,0,.72-1.69c.32.25.14,1,.3,1.41,1.55-.86,2.43-2.83,3-4.82.67-2.29,1-4.62,1.39-5.3a5.65,5.65,0,0,1,1.7-1.5,2.74,2.74,0,0,0,1.41-1.91c-.73-.07-.9-.24-1-.6a2.17,2.17,0,0,1-1.07.26c-.33,0-.69,0-1.13,0-3.64.37-4.1,4.38-6.43,6.66a6.09,6.09,0,0,1-.55.46,11.82,11.82,0,0,1-2.74,1.4c-1.49.57-2.91.61-4.31,1.1a12.59,12.59,0,0,0-2.91,1.46c-.22.15-.41.29-.6.44A6,6,0,0,0,24.05,336a8.45,8.45,0,0,1-1.12,1.43c-.77.76-3.66.23-4.68.93a.86.86,0,0,0-.26.28c.56.26.93.1,1.56.17.09.61-1.31,1-1.11,1.25Z"/><path class="cls-24" d="M40.49,335.67a5.28,5.28,0,0,0,.8,2.41,2.49,2.49,0,0,1-2.21-.6C39.24,336.77,40.07,336.12,40.49,335.67Z"/><path class="cls-23" d="M41.51,324.64a.85.85,0,0,0,1.4-.8C42.11,323.78,41.65,324.05,41.51,324.64Z"/><path class="cls-23" d="M45.1,323.6a2.67,2.67,0,0,0-.4,1.39c0,.13-.09.21-.1,0a2.8,2.8,0,0,1,.4-1.43C45.1,323.41,45.15,323.48,45.1,323.6Z"/><path class="cls-23" d="M45,323.5a3.23,3.23,0,0,0-.61,1.5c0,.12-.12.2-.1,0a3.37,3.37,0,0,1,.62-1.55C45,323.31,45,323.38,45,323.5Z"/><path class="cls-23" d="M44.84,323.35a3.79,3.79,0,0,0-.91,1.58c0,.13-.13.2-.1,0a4.2,4.2,0,0,1,.91-1.62C44.86,323.16,44.91,323.24,44.84,323.35Z"/><path class="cls-23" d="M44.73,323.19a5.33,5.33,0,0,0-1.16,1.69c0,.12-.16.18-.1,0a5.27,5.27,0,0,1,1.17-1.73c.14-.13.17-.05.09.05Z"/><text class="cls-25" transform="translate(78.7 375.75)">CONTAINER</text><path class="cls-26" d="M40.12,246.92l-6.73-6.73-2.87,3.64,3.09,3.09a.73.73,0,0,1,0,1l-.89.9.63.95a1.11,1.11,0,0,1-.22,1.24l-7,5.4c0,1.81,0,5.54,0,5.54l14-14A.73.73,0,0,0,40.12,246.92Z"/><path class="cls-27" d="M24.48,247.77a.73.73,0,0,1,0-1l.89-.89-.61-.88a1,1,0,0,1,.2-1.31l7-5.41v-5.53h0l-14,14a.75.75,0,0,0,0,1l6.74,6.74,2.87-3.65Z"/><polygon class="cls-4" points="29.16 252.22 29.16 252.22 25.91 255.47 29.16 252.22"/><path class="cls-26" d="M35.55,236.08a.27.27,0,0,1,.23.14c.07.16,0,.3-.12.42l-6.17,7.83a.43.43,0,0,0,0,.45l3.45,5a.83.83,0,0,1-.16.94l-9.91,7.61a.48.48,0,0,1-.32.14.26.26,0,0,1-.22-.14c-.08-.15,0-.3.12-.42l6.17-7.83a.43.43,0,0,0,0-.45l-3.44-5a.72.72,0,0,1,.15-1l9.92-7.62a.5.5,0,0,1,.31-.14m0-.13a.65.65,0,0,0-.39.17l-9.92,7.62a.85.85,0,0,0-.17,1.15l3.44,5a.32.32,0,0,1,0,.3L22.33,258a.54.54,0,0,0-.14.56.44.44,0,0,0,.33.21.62.62,0,0,0,.4-.17L32.84,251a1,1,0,0,0,.18-1.12l-3.44-5a.29.29,0,0,1,0-.3l6.17-7.83a.51.51,0,0,0,.13-.55.39.39,0,0,0-.34-.22Z"/><path class="cls-28" d="M32.67,249.93c.08.13.15.58-.05.74l-9.92,7.61a.44.44,0,0,1-.16.09s0-.06.08-.17l6.17-7.83a.68.68,0,0,0,0-.74l-3.44-4.95S32.59,249.81,32.67,249.93Z"/><path class="cls-29" d="M32.67,249.93l-3.39-4.87a.66.66,0,0,1,0-.74l6.16-7.82c.1-.12.12-.18.09-.18s-.08,0-.16.1L25.47,244a.47.47,0,0,0-.1.65Z"/><text class="cls-30" transform="translate(57.55 171.39)">Let’s Encrypt SSL</text><text class="cls-30" transform="translate(55.93 212.71)">Web App Firewall</text><text class="cls-30" transform="translate(54.88 251.53)">LiteSpeed Web Server</text><text class="cls-30" transform="translate(55 294.53)">Redis Object Cache</text><text class="cls-30" transform="translate(55.61 332.16)">MariaDB (Primary)</text><path class="cls-1" d="M468.48,142.52a5,5,0,0,1,5,5V377.37a5,5,0,0,1-5,5H269.23a5,5,0,0,1-5-5V147.52a5,5,0,0,1,5-5H468.48m0-2H269.23a7,7,0,0,0-7,7V377.37a7,7,0,0,0,7,7H468.48a7,7,0,0,0,7-7V147.52a7,7,0,0,0-7-7Z"/><path class="cls-2" d="M264.23,360.37H473.48a0,0,0,0,1,0,0v17a5,5,0,0,1-5,5H269.23a5,5,0,0,1-5-5v-17A0,0,0,0,1,264.23,360.37Z"/><rect class="cls-3" x="274.36" y="150.37" width="35" height="35" rx="5"/><path class="cls-4" d="M298.92,168.43h-1.36V166.7a5.86,5.86,0,0,0-11.71,0v1.73h-1.39a1.11,1.11,0,0,0-1.13,1.13v10.68a1.11,1.11,0,0,0,1.13,1.13h14.46a1.11,1.11,0,0,0,1.12-1.13V169.56A1.15,1.15,0,0,0,298.92,168.43Zm-6.53,7v1.44a.74.74,0,0,1-1.48,0v-1.44a1.46,1.46,0,0,1-.74-1.31,1.48,1.48,0,0,1,3,0A1.38,1.38,0,0,1,292.39,175.45Zm-3.19-7V166.7a2.51,2.51,0,0,1,5,0v1.73Z"/><path class="cls-4" d="M284,165.82a1,1,0,0,0-1-1H279.5a1,1,0,1,0,0,2H283A1,1,0,0,0,284,165.82Z"/><path class="cls-4" d="M284.83,161.09a.87.87,0,0,0,.63.25,1.15,1.15,0,0,0,.81-.39,1,1,0,0,0-.14-1.44l-2.75-2.26a1,1,0,0,0-1.3,1.59Z"/><path class="cls-4" d="M291.7,158.94a1,1,0,0,0,1-1v-3.53a1,1,0,0,0-2.05,0v3.53A1,1,0,0,0,291.7,158.94Z"/><path class="cls-4" d="M297.91,161.34a1,1,0,0,0,.67-.25l2.75-2.25a1,1,0,0,0-1.3-1.59l-2.75,2.26a1,1,0,0,0-.14,1.44A1,1,0,0,0,297.91,161.34Z"/><path class="cls-4" d="M303.87,164.8h-3.53a1,1,0,1,0,0,2h3.53a1,1,0,1,0,0-2Z"/><path class="cls-5" d="M298.92,168.43H284.46a1.11,1.11,0,0,0-1.13,1.13v10.68a1.11,1.11,0,0,0,1.13,1.13h14.46a1.11,1.11,0,0,0,1.12-1.13V169.56A1.15,1.15,0,0,0,298.92,168.43Zm-6.53,7v1.44a.74.74,0,0,1-1.48,0v-1.44a1.46,1.46,0,0,1-.74-1.31,1.48,1.48,0,0,1,3,0A1.38,1.38,0,0,1,292.39,175.45Z"/><path class="cls-6" d="M297.56,168.43h-3.35V166.7a2.51,2.51,0,0,0-5,0v1.73h-3.35V166.7a5.86,5.86,0,0,1,11.71,0Z"/><path class="cls-6" d="M283,166.84H279.5a1,1,0,1,1,0-2H283a1,1,0,1,1,0,2Z"/><path class="cls-6" d="M285.46,161.34a.87.87,0,0,1-.63-.25l-2.75-2.25a1,1,0,0,1,1.3-1.59l2.75,2.26a1,1,0,0,1,.14,1.44A1.15,1.15,0,0,1,285.46,161.34Z"/><path class="cls-6" d="M291.7,158.94a1,1,0,0,1-1-1v-3.53a1,1,0,0,1,2.05,0v3.53A1,1,0,0,1,291.7,158.94Z"/><path class="cls-6" d="M297.91,161.34a1,1,0,0,1-.77-.39,1,1,0,0,1,.14-1.44l2.75-2.26a1,1,0,0,1,1.3,1.59l-2.75,2.25A1,1,0,0,1,297.91,161.34Z"/><path class="cls-6" d="M303.87,166.84h-3.53a1,1,0,1,1,0-2h3.53a1,1,0,1,1,0,2Z"/><rect class="cls-3" x="274.23" y="190.37" width="35.25" height="35" rx="5"/><path class="cls-7" d="M303.22,207.89a11.54,11.54,0,1,1-11.54-11.54A11.54,11.54,0,0,1,303.22,207.89Z"/><path class="cls-8" d="M302.37,203.52H281a11.54,11.54,0,1,0,21.37,0Z"/><path class="cls-9" d="M303.2,207.22c0-.28,0-.55-.07-.81h-7v-2.48h6.37q-.15-.42-.33-.81h-21q-.18.39-.33.81h6.37v2.48h-7c0,.26-.06.53-.08.81h3v2.48h-2.87c.05.27.1.54.16.81h6.77V213h-5.88a9.27,9.27,0,0,0,.44.82h1.38v1.86a12.42,12.42,0,0,0,1.56,1.43h2.5v1.44c.27.11.54.21.82.3v-1.74h7.31v1.74q.41-.14.81-.3v-1.44h2.5a11.76,11.76,0,0,0,1.56-1.43V213.8h1.39c.15-.27.3-.54.44-.82h-5.89v-2.47h6.77c.06-.27.12-.54.16-.81h-2.87v-2.48ZM288,203.93h7.31v2.48H288ZM284,209.7v-2.48h7.32v2.48Zm7.32,6.57H284V213.8h7.32ZM288,213v-2.47h7.31V213Zm11.37.82v2.47h-7.31V213.8Zm0-4.1h-7.31v-2.48h7.31Z"/><path class="cls-9" d="M285.5,203.71a1.11,1.11,0,0,1,0-.19H281a11.53,11.53,0,0,0,4.5,14.11Z"/><path class="cls-10" d="M285.5,210.51v-.81H284v-2.48h1.54v-.81h-5.26c0,.26-.06.53-.08.81h3v2.48h-2.87c.05.27.1.54.16.81Z"/><path class="cls-10" d="M285.5,203.71a.83.83,0,0,1,.24-.59h-4.57q-.18.39-.33.81h4.66Z"/><path class="cls-10" d="M285.5,216.27H284V213.8h1.54V213h-4.17a9.27,9.27,0,0,0,.44.82h1.38v1.86a12.42,12.42,0,0,0,1.56,1.43h.79Z"/><path class="cls-11" d="M298.36,206.67l-1.69.53a3.58,3.58,0,0,0,.19-4.54,5,5,0,0,1-1.08-2.66.29.29,0,0,0-.53-.13,7.08,7.08,0,0,0-.84,1.79h0A5,5,0,0,0,293,198a3.38,3.38,0,0,1-1-3,.3.3,0,0,0-.13-.3.29.29,0,0,0-.32,0,8.93,8.93,0,0,0-4.2,9.06h0c0,.26-.15.18-.21.13a7.32,7.32,0,0,1-1.13-1.2.26.26,0,0,0-.27-.11.27.27,0,0,0-.23.19,8.88,8.88,0,0,0,.64,7.44A6.26,6.26,0,0,0,291.8,213c4.2,0,6.5-2.54,6.94-6A.29.29,0,0,0,298.36,206.67Z"/><path class="cls-12" d="M287.09,204a.49.49,0,0,1,.11-.14l0,0a7.32,7.32,0,0,1-1.13-1.2.26.26,0,0,0-.27-.11.27.27,0,0,0-.23.19c-1.2,3.35-.41,7.67,2.7,9.42A8.58,8.58,0,0,1,287.09,204Z"/><path class="cls-12" d="M287.38,203.74a.31.31,0,0,1,0,.1.27.27,0,0,1,.23.12,7.74,7.74,0,0,0,1.13,1.2c.06,0,.21.12.21-.13h0a8.9,8.9,0,0,1,3.23-8.37A3,3,0,0,1,292,195a.3.3,0,0,0-.13-.3.29.29,0,0,0-.32,0,8.93,8.93,0,0,0-4.2,9.06Z"/><path class="cls-12" d="M295.57,209.35l-1,.32a2.15,2.15,0,0,0,.11-2.71,3,3,0,0,1-.65-1.58.17.17,0,0,0-.31-.07,4.07,4.07,0,0,0-.5,1.06h0a2.91,2.91,0,0,0-.81-2.18,2,2,0,0,1-.58-1.78.18.18,0,0,0-.07-.18.17.17,0,0,0-.19,0,5.3,5.3,0,0,0-2.5,5.4h0c0,.15-.11.08-.13.07a4.9,4.9,0,0,1-.67-.72.17.17,0,0,0-.3.05c-.77,2.15-.16,4.91,2,5.79a8,8,0,0,0,1.85.2,9.52,9.52,0,0,0,1.34-.09,3.79,3.79,0,0,0,2.65-3.38A.17.17,0,0,0,295.57,209.35Z"/><path class="cls-13" d="M289.26,212.23a5.28,5.28,0,0,1-.39-4.42.18.18,0,0,1,.09-.1l0,0a4.9,4.9,0,0,1-.67-.72.17.17,0,0,0-.3.05c-.71,2-.24,4.54,1.59,5.59A2.6,2.6,0,0,1,289.26,212.23Z"/><path class="cls-13" d="M289,207.62s0,.06,0,.07a.18.18,0,0,1,.15.07,3.66,3.66,0,0,0,.67.71s.13.09.12-.06a5.32,5.32,0,0,1,1.92-5,1.88,1.88,0,0,1-.09-1,.18.18,0,0,0-.07-.18.17.17,0,0,0-.19,0,5.3,5.3,0,0,0-2.5,5.4Z"/><path class="cls-13" d="M291.93,208.91a.5.5,0,0,0-.65,0,2.72,2.72,0,0,0,0,4.06l0,0h.56l.06,0a2.72,2.72,0,0,0,0-4.06Z"/><path class="cls-14" d="M291.45,211a2.7,2.7,0,0,1,.73-1.85,3,3,0,0,0-.25-.25.5.5,0,0,0-.65,0,2.72,2.72,0,0,0,0,4.06l0,0h.56l.06,0,.18-.18A2.67,2.67,0,0,1,291.45,211Z"/><rect class="cls-3" x="274.23" y="230.37" width="35.25" height="35" rx="5"/><rect class="cls-15" x="274.36" y="270.37" width="37" height="37" rx="6"/><path class="cls-16" d="M305.36,271.37a5,5,0,0,1,5,5v25a5,5,0,0,1-5,5h-25a5,5,0,0,1-5-5v-25a5,5,0,0,1,5-5h25m0-2h-25a7,7,0,0,0-7,7v25a7,7,0,0,0,7,7h25a7,7,0,0,0,7-7v-25a7,7,0,0,0-7-7Z"/><path class="cls-17" d="M303.88,295.34c-1.3.67-8,3.43-9.44,4.18a3.2,3.2,0,0,1-3.35.2c-1.13-.54-8.28-3.43-9.56-4-.65-.31-1-.57-1-.81v-2.46s9.3-2,10.8-2.56a3.8,3.8,0,0,1,3.3-.09c1.27.47,8.91,1.84,10.18,2.31v2.42c0,.24-.29.51-.95.85"/><path class="cls-18" d="M303.88,292.9c-1.3.67-8,3.43-9.44,4.18a3.2,3.2,0,0,1-3.35.2c-1.13-.54-8.28-3.43-9.56-4s-1.32-1,0-1.54,8.37-3.28,9.87-3.82a3.83,3.83,0,0,1,3.3-.09c1.27.47,8,3.13,9.21,3.59s1.31.84,0,1.52"/><path class="cls-17" d="M303.88,291.37c-1.3.67-8,3.43-9.44,4.18a3.2,3.2,0,0,1-3.35.2c-1.13-.54-8.28-3.43-9.56-4-.65-.31-1-.57-1-.82v-2.45s9.3-2,10.8-2.56a3.8,3.8,0,0,1,3.3-.09c1.27.46,8.91,1.84,10.18,2.31v2.42c0,.24-.29.5-.95.85"/><path class="cls-18" d="M303.88,288.93c-1.3.67-8,3.43-9.44,4.18a3.2,3.2,0,0,1-3.35.2c-1.13-.54-8.28-3.43-9.56-4s-1.32-1,0-1.54,8.37-3.28,9.87-3.82a3.8,3.8,0,0,1,3.3-.09c1.27.47,8,3.13,9.21,3.59s1.31.84,0,1.52h0"/><path class="cls-17" d="M303.88,287.25c-1.3.67-8,3.43-9.44,4.18a3.18,3.18,0,0,1-3.35.2c-1.13-.54-8.28-3.43-9.56-4-.65-.31-1-.57-1-.81v-2.46s9.3-2,10.8-2.56a3.8,3.8,0,0,1,3.3-.09c1.27.47,8.91,1.84,10.18,2.31v2.42c0,.24-.29.51-.95.85"/><path class="cls-18" d="M303.88,284.81c-1.3.67-8,3.43-9.44,4.18a3.2,3.2,0,0,1-3.35.2c-1.13-.54-8.28-3.43-9.56-4s-1.32-1,0-1.54,8.37-3.28,9.87-3.82a3.87,3.87,0,0,1,3.3-.09c1.27.47,8,3.13,9.21,3.59s1.31.84,0,1.52"/><path class="cls-4" d="M295.65,282.42l-2.08.22-.47,1.12-.76-1.25-2.41-.22,1.8-.65-.54-1,1.69.66,1.58-.52-.42,1,1.61.6"/><path class="cls-4" d="M293,287.88l-3.89-1.62,5.58-.86L293,287.88"/><path class="cls-4" d="M287.57,283.05c1.65,0,3,.51,3,1.15s-1.34,1.16-3,1.16-3-.52-3-1.16,1.33-1.15,3-1.15"/><path class="cls-19" d="M298.12,282.73l3.31,1.31-3.31,1.3v-2.61"/><path class="cls-20" d="M294.47,284.18l3.65-1.45v2.61l-.35.14-3.3-1.3"/><rect class="cls-21" x="274.86" y="312.37" width="37" height="37" rx="6"/><path class="cls-22" d="M305.86,313.37a5,5,0,0,1,5,5v25a5,5,0,0,1-5,5h-25a5,5,0,0,1-5-5v-25a5,5,0,0,1,5-5h25m0-2h-25a7,7,0,0,0-7,7v25a7,7,0,0,0,7,7h25a7,7,0,0,0,7-7v-25a7,7,0,0,0-7-7Z"/><path class="cls-23" d="M308,322.37c-.44,0-.3.14-1.27.38a19.62,19.62,0,0,0-3.21.61c-3.14,1.31-3.77,5.81-6.62,7.42-2.13,1.2-4.28,1.29-6.21,1.9a11.26,11.26,0,0,0-3.81,2.21c-.89.77-.91,1.44-1.85,2.41s-4,0-5.31,1.6c.43.43.62.56,1.48.44-.18.34-1.22.62-1,1.11s2.74.87,5-.51c1.07-.64,1.92-1.57,3.58-1.79a27.3,27.3,0,0,1,7.11.54,11.3,11.3,0,0,1-1.7,2.71c-.18.2.37.22,1,.1a10,10,0,0,0,2.81-1c1-.61,1.21-2.18,2.5-2.52a2.88,2.88,0,0,0,3.89.48c-1.07-.3-1.36-2.56-1-3.56s.68-2.46,1-3.71.5-3,.95-3.72a8.79,8.79,0,0,1,2.05-2,2.88,2.88,0,0,0,1.22-2.48.58.58,0,0,0-.64-.65Z"/><path class="cls-24" d="M280.68,340.36a6.42,6.42,0,0,0,3.93-.57c1.11-.48,2.19-1.48,3.51-1.9,1.93-.62,4.05,0,6.12.12a9.25,9.25,0,0,0,1.49,0c.77-.47.76-2.24,1.51-2.4a8.55,8.55,0,0,1-2.11,5.41,6,6,0,0,0,4.49-3.43,12.67,12.67,0,0,0,.72-1.68c.32.24.14,1,.3,1.4,1.55-.86,2.43-2.83,3-4.81.68-2.3.95-4.63,1.39-5.31a5.65,5.65,0,0,1,1.7-1.5,2.72,2.72,0,0,0,1.41-1.91c-.73-.07-.9-.23-1-.6a2.23,2.23,0,0,1-1.08.26c-.33,0-.69,0-1.13,0-3.64.37-4.1,4.38-6.43,6.66a5,5,0,0,1-.55.46,11.26,11.26,0,0,1-2.74,1.4c-1.49.57-2.91.61-4.31,1.1a13.21,13.21,0,0,0-2.91,1.46c-.21.15-.41.29-.59.44a6,6,0,0,0-1.14,1.32,8.83,8.83,0,0,1-1.11,1.44c-.78.76-3.67.22-4.68.92a.75.75,0,0,0-.27.29c.56.25.93.09,1.57.16.08.61-1.32,1-1.11,1.25Z"/><path class="cls-24" d="M302.72,336a5.28,5.28,0,0,0,.8,2.4,2.47,2.47,0,0,1-2.2-.6C301.47,337.09,302.3,336.44,302.72,336Z"/><path class="cls-23" d="M303.74,325a.87.87,0,0,0,1.41-.81C304.34,324.1,303.88,324.37,303.74,325Z"/><path class="cls-23" d="M307.33,323.93a2.68,2.68,0,0,0-.4,1.38c0,.13-.09.22-.09,0a2.71,2.71,0,0,1,.39-1.43C307.33,323.74,307.38,323.8,307.33,323.93Z"/><path class="cls-23" d="M307.2,323.82a3.12,3.12,0,0,0-.62,1.5c0,.13-.11.2-.1,0a3.28,3.28,0,0,1,.62-1.54C307.21,323.63,307.26,323.7,307.2,323.82Z"/><path class="cls-23" d="M307.07,323.67a4,4,0,0,0-.91,1.58c0,.13-.13.2-.1,0a4.06,4.06,0,0,1,.92-1.63C307.1,323.49,307.14,323.56,307.07,323.67Z"/><path class="cls-23" d="M307,323.51a5.27,5.27,0,0,0-1.16,1.7c0,.12-.16.17-.1,0a5.5,5.5,0,0,1,1.17-1.73c.14-.13.17,0,.09.05Z"/><text class="cls-25" transform="translate(340.93 376.07)">CONTAINER</text><path class="cls-26" d="M302.36,247.24l-6.74-6.73-2.87,3.64,3.09,3.09a.73.73,0,0,1,0,1l-.89.9s.6.9.63,1a1.1,1.1,0,0,1-.22,1.23l-7,5.4v5.54l14-14A.75.75,0,0,0,302.36,247.24Z"/><path class="cls-27" d="M286.71,248.09a.72.72,0,0,1,0-1l.89-.9-.61-.88a1,1,0,0,1,.2-1.31l7-5.4V233h0l-14,14a.74.74,0,0,0,0,1l6.74,6.74,2.87-3.64Z"/><polygon class="cls-4" points="291.39 252.54 291.39 252.54 288.14 255.8 291.39 252.54"/><path class="cls-26" d="M297.78,236.4a.26.26,0,0,1,.23.15c.07.15,0,.29-.12.42l-6.17,7.82a.41.41,0,0,0,0,.45s3.33,4.83,3.44,5a.83.83,0,0,1-.15.94l-9.92,7.61a.56.56,0,0,1-.32.15.29.29,0,0,1-.22-.15c-.07-.15,0-.29.12-.42l6.17-7.83a.41.41,0,0,0,0-.45l-3.44-5a.72.72,0,0,1,.15-1l9.92-7.61c.16-.13.24-.15.31-.15m0-.12a.62.62,0,0,0-.39.16l-9.91,7.62a.84.84,0,0,0-.18,1.15l3.44,4.95a.34.34,0,0,1,0,.31l-6.17,7.82a.53.53,0,0,0-.13.56.38.38,0,0,0,.32.21.62.62,0,0,0,.41-.17l9.91-7.61a.92.92,0,0,0,.18-1.11c-.11-.17-3.44-5-3.44-5a.29.29,0,0,1,0-.3L298,237a.51.51,0,0,0,.13-.55.38.38,0,0,0-.34-.21Z"/><path class="cls-28" d="M294.9,250.26c.08.12.15.57,0,.73l-9.92,7.61a.44.44,0,0,1-.16.09s0-.05.08-.17l6.17-7.83a.67.67,0,0,0,0-.73l-3.44-5S294.82,250.13,294.9,250.26Z"/><path class="cls-29" d="M294.9,250.26l-3.39-4.88a.67.67,0,0,1,0-.73l6.17-7.83c.09-.12.11-.18.08-.18s-.08,0-.16.1l-9.92,7.61a.47.47,0,0,0-.1.65Z"/><text class="cls-30" transform="translate(319.79 171.71)">Let’s Encrypt SSL</text><text class="cls-30" transform="translate(318.17 213.04)">Web App Firewall</text><text class="cls-30" transform="translate(317.11 251.85)">LiteSpeed Web Server</text><text class="cls-30" transform="translate(317.23 294.85)">Redis Object Cache</text><text class="cls-30" transform="translate(317.84 332.49)">MariaDB (Primary)</text><rect class="cls-31" x="110.14" y="114.15" width="254.06" height="1"/><rect class="cls-31" x="237.29" y="98.29" width="0.97" height="16"/><rect class="cls-31" x="110.5" y="114.7" width="1" height="15.83"/><polyline class="cls-31" points="110.33 129.03 108 129.03 111 134.03 114 129.03 111.66 129.03"/><rect class="cls-31" x="363.26" y="114.7" width="1" height="15.83"/><polyline class="cls-31" points="363.09 129.03 360.76 129.03 363.76 134.03 366.76 129.03 364.42 129.03"/><line class="cls-1" x1="229.81" y1="240.35" x2="244.81" y2="240.35"/><rect class="cls-1" x="229.81" y="239.85" width="15" height="1"/><polyline class="cls-1" points="243.81 241.01 243.81 243.34 248.81 240.34 243.81 237.34 243.81 239.68"/><polygon class="cls-1" points="249.78 240.34 243.31 244.23 243.31 241.01 244.31 241.01 244.31 242.46 247.84 240.34 244.31 238.23 244.31 239.68 243.31 239.68 243.31 236.46 249.78 240.34"/><polyline class="cls-1" points="232.53 239.68 232.53 237.34 227.53 240.34 232.53 243.34 232.53 241.01"/><polygon class="cls-1" points="226.56 240.34 233.03 236.46 233.03 239.68 232.03 239.68 232.03 238.23 228.5 240.34 232.03 242.46 232.03 241.01 233.03 241.01 233.03 244.23 226.56 240.34"/><text/><text class="cls-30" transform="translate(222.45 262.44)">Sync</text><line class="cls-1" x1="217.79" y1="0.48" x2="217.79" y2="15.48"/><rect class="cls-1" x="217.29" y="0.48" width="1" height="15"/><polyline class="cls-1" points="217.12 14 214.79 14 217.79 19 220.79 14 218.45 14"/><polygon class="cls-1" points="217.79 19.97 213.9 13.5 217.12 13.5 217.12 14.5 215.67 14.5 217.79 18.03 219.9 14.5 218.45 14.5 218.45 13.5 221.67 13.5 217.79 19.97"/><line class="cls-1" x1="237.79" x2="237.79" y2="15"/><rect class="cls-1" x="237.29" width="1" height="15"/><polyline class="cls-1" points="237.12 14 234.79 14 237.79 19 240.79 14 238.45 14"/><polygon class="cls-1" points="237.79 19.97 233.9 13.5 237.12 13.5 237.12 14.5 235.67 14.5 237.79 18.03 239.9 14.5 238.45 14.5 238.45 13.5 241.67 13.5 237.79 19.97"/><line class="cls-1" x1="257.79" x2="257.79" y2="15"/><rect class="cls-1" x="257.29" width="1" height="15"/><polyline class="cls-1" points="257.12 14 254.79 14 257.79 19 260.79 14 258.45 14"/><polygon class="cls-1" points="257.79 19.97 253.9 13.5 257.12 13.5 257.12 14.5 255.67 14.5 257.79 18.03 259.9 14.5 258.45 14.5 258.45 13.5 261.67 13.5 257.79 19.97"/><path class="cls-31" d="M226.05,43.76a4.94,4.94,0,0,1,1.45.22,39.4,39.4,0,0,1,5.7-5.25,5.31,5.31,0,0,1-.14-1.14,5,5,0,0,1,.26-1.55,36.16,36.16,0,0,0-7.52-4.14,23.1,23.1,0,0,0-6.46,6,36.33,36.33,0,0,0,4.59,6.39A4.89,4.89,0,0,1,226.05,43.76Zm-4.89,4.9a4.81,4.81,0,0,1,.4-1.94,39.14,39.14,0,0,1-4.24-5.57,23,23,0,0,0,.79,22.09,39.09,39.09,0,0,1,4-11.63A4.82,4.82,0,0,1,221.16,48.66Zm16.8-16A4.88,4.88,0,0,1,241.3,34a38.87,38.87,0,0,1,8-2.48A23,23,0,0,0,229.78,30a38.54,38.54,0,0,1,5.69,3.43A4.89,4.89,0,0,1,238,32.7Zm7.32,23a4.65,4.65,0,0,1,1.27-1.64,35.85,35.85,0,0,0-6.68-12,4.85,4.85,0,0,1-4.75-.53,35.6,35.6,0,0,0-4.91,4.51,4.92,4.92,0,0,1,.74,2.58,4.7,4.7,0,0,1-.23,1.46A35.57,35.57,0,0,0,245.28,55.75Zm6.34,6.6c.07.93.11,1.86.11,2.81a39.67,39.67,0,0,1-.31,4.9,23,23,0,0,0,8.37-11.6,39.49,39.49,0,0,1-5.45.92A4.91,4.91,0,0,1,251.62,62.35ZM244.13,59a39,39,0,0,1-15.52-6.21,5,5,0,0,1-2.56.72,5.56,5.56,0,0,1-1-.1,35.68,35.68,0,0,0-4,13.71,23,23,0,0,0,7.87,5.51A39.06,39.06,0,0,1,244.13,59Zm9.18-24.61a35.59,35.59,0,0,0-10.48,2.67c0,.16,0,.33,0,.49a4.86,4.86,0,0,1-.5,2.15A39.3,39.3,0,0,1,249.77,53a4.93,4.93,0,0,1,4.43,3,36,36,0,0,0,6.44-1.26,23,23,0,0,0-7.33-20.27Zm-6.72,27.22a35.77,35.77,0,0,0-14.31,12.14,23,23,0,0,0,15.3-1.46,36.1,36.1,0,0,0,.72-7.17c0-.89,0-1.77-.1-2.64A4.92,4.92,0,0,1,246.59,61.65Z"/><path class="cls-31" d="M202.84,84.11a2.83,2.83,0,0,1-.9,2.25,3.81,3.81,0,0,1-2.57.78h-.91v3.49H197V81.28h2.53A3.64,3.64,0,0,1,202,82,2.64,2.64,0,0,1,202.84,84.11Zm-4.38,1.74h.76a2.66,2.66,0,0,0,1.63-.41,1.54,1.54,0,0,0,.51-1.28,1.48,1.48,0,0,0-.46-1.2,2.15,2.15,0,0,0-1.44-.4h-1Z"/><path class="cls-31" d="M207.83,83.43a2.7,2.7,0,0,1,.7.07l-.14,1.4a2.45,2.45,0,0,0-.62-.08,1.78,1.78,0,0,0-1.38.59,2.2,2.2,0,0,0-.52,1.53v3.69h-1.42V83.56h1.11l.19,1.25h.07a2.84,2.84,0,0,1,.86-1A2,2,0,0,1,207.83,83.43Z"/><path class="cls-31" d="M212.68,90.76a3.11,3.11,0,0,1-2.43-1,3.77,3.77,0,0,1-.88-2.65,4.19,4.19,0,0,1,.81-2.73,2.75,2.75,0,0,1,2.24-1,2.69,2.69,0,0,1,2.08.85,3.38,3.38,0,0,1,.76,2.34v.82h-4.43a2.41,2.41,0,0,0,.52,1.58,1.76,1.76,0,0,0,1.39.55,5.39,5.39,0,0,0,1.1-.11,5.86,5.86,0,0,0,1.09-.4v1.22a3.76,3.76,0,0,1-1.05.37A5.45,5.45,0,0,1,212.68,90.76Zm-.26-6.19a1.42,1.42,0,0,0-1.09.45,2.34,2.34,0,0,0-.48,1.33h3a2,2,0,0,0-.39-1.33A1.33,1.33,0,0,0,212.42,84.57Z"/><path class="cls-31" d="M222.48,90.63h-1.42V86.27a2.1,2.1,0,0,0-.29-1.21,1,1,0,0,0-.9-.4,1.33,1.33,0,0,0-1.2.57,3.41,3.41,0,0,0-.38,1.88v3.52h-1.42V83.56H218l.2.93h.07a1.83,1.83,0,0,1,.8-.78,2.4,2.4,0,0,1,1.16-.28,2,2,0,0,1,2,1.11h.09a2.15,2.15,0,0,1,.83-.81,2.49,2.49,0,0,1,1.23-.3,2.19,2.19,0,0,1,1.74.64,3,3,0,0,1,.54,2v4.61h-1.41V86.27a2,2,0,0,0-.3-1.21,1,1,0,0,0-.9-.4,1.37,1.37,0,0,0-1.21.55,3,3,0,0,0-.38,1.68Z"/><path class="cls-31" d="M228.57,81.69a.85.85,0,0,1,.21-.62.77.77,0,0,1,.59-.22.75.75,0,0,1,.58.22,1,1,0,0,1,0,1.22.75.75,0,0,1-.58.22.77.77,0,0,1-.59-.22A.84.84,0,0,1,228.57,81.69Zm1.5,8.94h-1.41V83.56h1.41Z"/><path class="cls-31" d="M236.79,90.63l-.2-.92h-.07a2.09,2.09,0,0,1-.84.77,2.63,2.63,0,0,1-1.24.28,2.35,2.35,0,0,1-1.81-.64,2.73,2.73,0,0,1-.6-1.94V83.56h1.43v4.36a2,2,0,0,0,.31,1.22,1.18,1.18,0,0,0,1,.41,1.52,1.52,0,0,0,1.31-.57,3.37,3.37,0,0,0,.41-1.9V83.56h1.42v7.07Z"/><path class="cls-31" d="M245.53,90.63h-1.42V86.27a2.1,2.1,0,0,0-.29-1.21,1,1,0,0,0-.9-.4,1.33,1.33,0,0,0-1.2.57,3.4,3.4,0,0,0-.39,1.88v3.52h-1.41V83.56H241l.2.93h.07a1.83,1.83,0,0,1,.8-.78,2.4,2.4,0,0,1,1.16-.28,2,2,0,0,1,2,1.11h.1a2.09,2.09,0,0,1,.83-.81,2.49,2.49,0,0,1,1.23-.3,2.21,2.21,0,0,1,1.74.64,3,3,0,0,1,.54,2v4.61h-1.41V86.27a2,2,0,0,0-.3-1.21,1,1,0,0,0-.9-.4,1.37,1.37,0,0,0-1.21.55,3,3,0,0,0-.38,1.68Z"/><path class="cls-31" d="M258.8,82.46a2.34,2.34,0,0,0-1.95.93,4.23,4.23,0,0,0-.71,2.58,4.14,4.14,0,0,0,.69,2.6,2.33,2.33,0,0,0,2,.89,4.86,4.86,0,0,0,1.09-.12c.34-.08.71-.18,1.09-.3v1.31a6.43,6.43,0,0,1-2.35.41,3.64,3.64,0,0,1-3-1.24,5.44,5.44,0,0,1-1-3.56,6,6,0,0,1,.51-2.55,3.74,3.74,0,0,1,1.45-1.68,4.19,4.19,0,0,1,2.23-.58,5.3,5.3,0,0,1,2.5.6L260.79,83a7.14,7.14,0,0,0-.94-.39A3.3,3.3,0,0,0,258.8,82.46Z"/><path class="cls-31" d="M270,85.87a4.83,4.83,0,0,1-1.21,3.54,4.68,4.68,0,0,1-3.49,1.22h-2.46V81.28h2.72a4.32,4.32,0,0,1,3.27,1.21A4.63,4.63,0,0,1,270,85.87Zm-1.52,0q0-3.36-2.95-3.36h-1.25v6.79h1Q268.51,89.35,268.51,85.92Z"/><path class="cls-31" d="M279.25,90.63h-1.76l-4.33-7.45h-.05l0,.42c.06.79.08,1.52.08,2.17v4.86h-1.3V81.28h1.75L278,88.7h0c0-.1,0-.46,0-1.07s0-1.1,0-1.45v-4.9h1.32Z"/></g></g></svg>