<svg xmlns="http://www.w3.org/2000/svg" viewBox="0 0 213.25 204.36"><defs><style>.cls-1{fill:#7889a8;}.cls-2{fill:#5b6b8d;}.cls-3{fill:#e1fff1;stroke:#0ab979;stroke-miterlimit:10;stroke-width:2px;}.cls-17,.cls-18,.cls-4{fill:#fff;}.cls-5{fill:#003a70;}.cls-6{fill:#ffa400;}.cls-7{fill:#d7edff;}.cls-8{fill:#0399ff;}.cls-9{fill:#912626;}.cls-10{fill:#c6302b;}.cls-11{fill:#621b1c;}.cls-12{fill:#9a2928;}.cls-13{fill:#fff1d7;}.cls-14{fill:#ffb70a;}.cls-15{fill:#002b64;}.cls-16{fill:#d77758;}.cls-17{font-size:12px;}.cls-17,.cls-18{font-family:OpenSans-SemiBold, Open Sans;font-weight:600;}.cls-18{font-size:14px;}.cls-19{fill:#009438;}.cls-20{fill:#fefefe;}</style></defs><g id="Layer_2" data-name="Layer 2"><g id="Слой_1" data-name="Слой 1"><path class="cls-1" d="M206.25,2a5,5,0,0,1,5,5V197.36a5,5,0,0,1-5,5H7a5,5,0,0,1-5-5V7A5,5,0,0,1,7,2H206.25m0-2H7A7,7,0,0,0,0,7V197.36a7,7,0,0,0,7,7H206.25a7,7,0,0,0,7-7V7a7,7,0,0,0-7-7Z"/><path class="cls-2" d="M2,180.36H211.25a0,0,0,0,1,0,0v17a5,5,0,0,1-5,5H7a5,5,0,0,1-5-5v-17A0,0,0,0,1,2,180.36Z"/><rect class="cls-3" x="12.13" y="9.36" width="35" height="35" rx="5"/><path class="cls-4" d="M36.68,27.41H35.33V25.69a5.86,5.86,0,1,0-11.71,0v1.72H22.23a1.12,1.12,0,0,0-1.13,1.13V39.23a1.12,1.12,0,0,0,1.13,1.13H36.68a1.12,1.12,0,0,0,1.13-1.13V28.54A1.16,1.16,0,0,0,36.68,27.41Zm-6.52,7v1.45a.74.74,0,0,1-1.48,0V34.43a1.44,1.44,0,0,1-.74-1.3,1.48,1.48,0,0,1,3,0A1.37,1.37,0,0,1,30.16,34.43Zm-3.19-7V25.69a2.51,2.51,0,1,1,5,0v1.72Z"/><path class="cls-4" d="M21.78,24.81a1,1,0,0,0-1-1H17.27a1,1,0,0,0,0,2h3.49A1,1,0,0,0,21.78,24.81Z"/><path class="cls-4" d="M22.6,20.08a.87.87,0,0,0,.63.25,1.17,1.17,0,0,0,.81-.39,1.06,1.06,0,0,0-.14-1.45l-2.75-2.25a1,1,0,1,0-1.3,1.58Z"/><path class="cls-4" d="M29.47,17.93a1,1,0,0,0,1-1V13.38a1,1,0,1,0-2,0v3.53A1,1,0,0,0,29.47,17.93Z"/><path class="cls-4" d="M35.68,20.33a1,1,0,0,0,.67-.25l2.75-2.26a1,1,0,1,0-1.31-1.58L35,18.49a1.06,1.06,0,0,0-.14,1.45A1,1,0,0,0,35.68,20.33Z"/><path class="cls-4" d="M41.64,23.78H38.11a1,1,0,0,0,0,2h3.53a1,1,0,0,0,0-2Z"/><path class="cls-5" d="M36.68,27.41H22.23a1.12,1.12,0,0,0-1.13,1.13V39.23a1.12,1.12,0,0,0,1.13,1.13H36.68a1.12,1.12,0,0,0,1.13-1.13V28.54A1.16,1.16,0,0,0,36.68,27.41Zm-6.52,7v1.45a.74.74,0,0,1-1.48,0V34.43a1.44,1.44,0,0,1-.74-1.3,1.48,1.48,0,0,1,3,0A1.37,1.37,0,0,1,30.16,34.43Z"/><path class="cls-6" d="M35.33,27.41H32V25.69a2.51,2.51,0,1,0-5,0v1.72H23.62V25.69a5.86,5.86,0,1,1,11.71,0Z"/><path class="cls-6" d="M20.76,25.83H17.27a1,1,0,0,1,0-2h3.49a1,1,0,0,1,0,2Z"/><path class="cls-6" d="M23.23,20.33a.87.87,0,0,1-.63-.25l-2.75-2.26a1,1,0,1,1,1.3-1.58l2.75,2.25A1.06,1.06,0,0,1,24,19.94,1.17,1.17,0,0,1,23.23,20.33Z"/><path class="cls-6" d="M29.47,17.93a1,1,0,0,1-1-1V13.38a1,1,0,1,1,2,0v3.53A1,1,0,0,1,29.47,17.93Z"/><path class="cls-6" d="M35.68,20.33a1,1,0,0,1-.78-.39A1.06,1.06,0,0,1,35,18.49l2.75-2.25a1,1,0,1,1,1.31,1.58l-2.75,2.26A1,1,0,0,1,35.68,20.33Z"/><path class="cls-6" d="M41.64,25.83H38.11a1,1,0,0,1,0-2h3.53a1,1,0,0,1,0,2Z"/><rect class="cls-3" x="12" y="50.36" width="35.25" height="35" rx="5"/><rect class="cls-7" x="12.13" y="90.36" width="37" height="37" rx="6"/><path class="cls-8" d="M43.13,91.36a5,5,0,0,1,5,5v25a5,5,0,0,1-5,5h-25a5,5,0,0,1-5-5v-25a5,5,0,0,1,5-5h25m0-2h-25a7,7,0,0,0-7,7v25a7,7,0,0,0,7,7h25a7,7,0,0,0,7-7v-25a7,7,0,0,0-7-7Z"/><path class="cls-9" d="M41.64,115.33c-1.29.67-8,3.43-9.43,4.18a3.21,3.21,0,0,1-3.36.19c-1.12-.54-8.27-3.42-9.55-4-.65-.3-1-.56-1-.81V112.4s9.3-2,10.81-2.57a3.87,3.87,0,0,1,3.3-.09c1.27.47,8.91,1.85,10.18,2.31,0,0,0,2.2,0,2.42s-.29.51-1,.86"/><path class="cls-10" d="M41.64,112.89c-1.29.67-8,3.43-9.43,4.18a3.21,3.21,0,0,1-3.36.19c-1.12-.54-8.27-3.42-9.55-4s-1.32-1-.05-1.53,8.36-3.28,9.87-3.82a3.8,3.8,0,0,1,3.3-.09c1.27.47,7.95,3.12,9.21,3.59s1.31.84,0,1.52"/><path class="cls-9" d="M41.64,111.35c-1.29.68-8,3.44-9.43,4.18a3.19,3.19,0,0,1-3.36.2c-1.12-.54-8.27-3.42-9.55-4-.65-.3-1-.56-1-.81v-2.45s9.3-2,10.81-2.57a3.83,3.83,0,0,1,3.3-.09c1.27.47,8.91,1.85,10.18,2.31,0,0,0,2.19,0,2.42s-.29.51-1,.85"/><path class="cls-10" d="M41.64,108.91c-1.29.68-8,3.44-9.43,4.18a3.19,3.19,0,0,1-3.36.2c-1.12-.54-8.27-3.42-9.55-4s-1.32-1-.05-1.53,8.36-3.28,9.87-3.82a3.8,3.8,0,0,1,3.3-.09c1.27.47,7.95,3.12,9.21,3.58s1.31.85,0,1.52h0"/><path class="cls-9" d="M41.64,107.24c-1.29.67-8,3.43-9.43,4.18a3.21,3.21,0,0,1-3.36.19c-1.12-.54-8.27-3.42-9.55-4-.65-.3-1-.56-1-.81v-2.45s9.3-2,10.81-2.56a3.83,3.83,0,0,1,3.3-.1c1.27.47,8.91,1.85,10.18,2.31,0,0,0,2.2,0,2.42s-.29.51-1,.86"/><path class="cls-10" d="M41.64,104.8c-1.29.67-8,3.43-9.43,4.18a3.21,3.21,0,0,1-3.36.19c-1.12-.54-8.27-3.42-9.55-4s-1.32-1-.05-1.53,8.36-3.28,9.87-3.82a3.8,3.8,0,0,1,3.3-.09c1.27.47,7.95,3.12,9.21,3.59s1.31.84,0,1.52"/><path class="cls-4" d="M33.42,102.41l-2.09.22-.46,1.12-.76-1.26-2.41-.21,1.8-.65-.54-1,1.68.66,1.59-.52-.43,1,1.62.61"/><path class="cls-4" d="M30.74,107.86l-3.89-1.61,5.58-.86-1.69,2.47"/><path class="cls-4" d="M25.34,103c1.65,0,3,.52,3,1.16s-1.33,1.16-3,1.16-3-.52-3-1.16,1.33-1.16,3-1.16"/><path class="cls-11" d="M35.89,102.72l3.3,1.3-3.3,1.31v-2.61"/><path class="cls-12" d="M32.23,104.16l3.66-1.44v2.61l-.36.14-3.3-1.31"/><rect class="cls-13" x="12.63" y="132.36" width="37" height="37" rx="6"/><path class="cls-14" d="M43.63,133.36a5,5,0,0,1,5,5v25a5,5,0,0,1-5,5h-25a5,5,0,0,1-5-5v-25a5,5,0,0,1,5-5h25m0-2h-25a7,7,0,0,0-7,7v25a7,7,0,0,0,7,7h25a7,7,0,0,0,7-7v-25a7,7,0,0,0-7-7Z"/><path class="cls-15" d="M45.8,142.36c-.45,0-.3.14-1.27.38a19.48,19.48,0,0,0-3.22.6c-3.13,1.32-3.76,5.81-6.61,7.42-2.13,1.21-4.28,1.3-6.21,1.91a11.23,11.23,0,0,0-3.81,2.2c-.89.77-.92,1.45-1.85,2.41s-4,0-5.31,1.6c.43.44.62.56,1.48.45-.18.34-1.22.62-1,1.11s2.74.87,5-.51c1.06-.65,1.91-1.57,3.57-1.8a27.85,27.85,0,0,1,7.12.55,11.3,11.3,0,0,1-1.7,2.71c-.19.19.37.22,1,.1a10,10,0,0,0,2.81-1c1-.61,1.21-2.18,2.5-2.52a2.9,2.9,0,0,0,3.89.48c-1.07-.3-1.36-2.57-1-3.57s.68-2.46,1-3.71.5-3,1-3.71a8.86,8.86,0,0,1,2-2A2.89,2.89,0,0,0,46.44,143c0-.43-.23-.67-.64-.65Z"/><path class="cls-16" d="M18.44,160.35a6.44,6.44,0,0,0,3.94-.57c1.11-.49,2.19-1.48,3.5-1.9,1.94-.62,4.06,0,6.12.12a9.36,9.36,0,0,0,1.5,0c.77-.48.75-2.25,1.5-2.41A8.55,8.55,0,0,1,32.9,161a6,6,0,0,0,4.49-3.42,12.81,12.81,0,0,0,.72-1.69c.32.25.14,1,.3,1.41,1.55-.87,2.43-2.83,3-4.82.67-2.3,1-4.63,1.39-5.31a5.75,5.75,0,0,1,1.7-1.49,2.74,2.74,0,0,0,1.41-1.91c-.73-.07-.9-.24-1-.6a2.17,2.17,0,0,1-1.07.26c-.33,0-.69,0-1.13,0-3.64.37-4.1,4.38-6.43,6.65a6.19,6.19,0,0,1-.55.47A11.41,11.41,0,0,1,33,152c-1.49.57-2.91.61-4.31,1.11a12.59,12.59,0,0,0-2.91,1.46c-.21.14-.41.29-.6.44a6,6,0,0,0-1.13,1.32,9.32,9.32,0,0,1-1.12,1.43c-.77.76-3.66.22-4.67.93a.8.8,0,0,0-.27.28c.56.26.93.1,1.56.17.09.61-1.31,1-1.11,1.25Z"/><path class="cls-16" d="M40.49,156a5.28,5.28,0,0,0,.8,2.41,2.49,2.49,0,0,1-2.21-.6C39.24,157.08,40.07,156.43,40.49,156Z"/><path class="cls-15" d="M41.51,145a.85.85,0,0,0,1.4-.8C42.11,144.08,41.65,144.36,41.51,145Z"/><path class="cls-15" d="M45.1,143.91a2.67,2.67,0,0,0-.4,1.39c0,.13-.09.21-.09,0a2.68,2.68,0,0,1,.39-1.43C45.1,143.72,45.15,143.79,45.1,143.91Z"/><path class="cls-15" d="M45,143.8a3.33,3.33,0,0,0-.61,1.51c0,.12-.12.2-.1,0a3.33,3.33,0,0,1,.62-1.55C45,143.61,45,143.69,45,143.8Z"/><path class="cls-15" d="M44.84,143.66a3.79,3.79,0,0,0-.91,1.58c0,.12-.13.19-.1,0a4.2,4.2,0,0,1,.91-1.62C44.86,143.47,44.91,143.55,44.84,143.66Z"/><path class="cls-15" d="M44.73,143.5a5.33,5.33,0,0,0-1.16,1.69c0,.12-.16.18-.1,0a5.27,5.27,0,0,1,1.17-1.73c.14-.13.17,0,.09.05Z"/><text class="cls-17" transform="translate(78.7 196.06)">CONTAINER</text><text class="cls-18" transform="translate(57.55 30.7)">Let’s Encrypt SSL</text><text class="cls-18" transform="translate(56.53 71.84)">NGINX Web Server</text><text class="cls-18" transform="translate(55 114.84)">Redis Object Cache</text><text class="cls-18" transform="translate(55.61 152.47)">MariaDB (Primary)</text><text/><path class="cls-19" d="M29.34,82.56a1.21,1.21,0,0,1-.59-.16L17.4,75.89a1.09,1.09,0,0,1-.56-1V61.78a1,1,0,0,1,.61-1l11.31-6.54a1.07,1.07,0,0,1,.58-.18,1,1,0,0,1,.55.16l11.39,6.56a1.11,1.11,0,0,1,.56,1V74.9a1.09,1.09,0,0,1-.56,1L31.5,81.56c-.51.31-1,.61-1.56.9A1.25,1.25,0,0,1,29.34,82.56Z"/><path class="cls-4" d="M29.34,54.56a.51.51,0,0,1,.29.08L41,61.22a.61.61,0,0,1,.31.56V74.9a.62.62,0,0,1-.31.56l-9.78,5.65L29.7,82A.71.71,0,0,1,29,82L17.65,75.46a.59.59,0,0,1-.31-.54V61.78a.59.59,0,0,1,.33-.56L29,54.67a.57.57,0,0,1,.33-.11m0-1a1.62,1.62,0,0,0-.88.26L17.2,60.34a1.58,1.58,0,0,0-.86,1.46V74.92a1.58,1.58,0,0,0,.78,1.38l11.39,6.57a1.73,1.73,0,0,0,.84.23,1.72,1.72,0,0,0,.83-.22c.53-.29,1.06-.6,1.58-.91l9.77-5.65a1.62,1.62,0,0,0,.8-1.48V61.78a1.58,1.58,0,0,0-.81-1.43L30.15,53.78A1.48,1.48,0,0,0,29.34,53.56Z"/><path class="cls-20" d="M25.46,65.93v7.63a1.58,1.58,0,0,1-1.55,1.61h-.06a1.52,1.52,0,0,1-1.29-.74,1.36,1.36,0,0,1-.2-.76V63.06a1.53,1.53,0,0,1,1-1.5,2.37,2.37,0,0,1,1.7,0,2.66,2.66,0,0,1,1.3.94l6.78,8.13a.88.88,0,0,0,.1.13V63a1.48,1.48,0,0,1,1.35-1.53,1.52,1.52,0,0,1,1.76,1.27v10.9A1.43,1.43,0,0,1,35.55,75a2.24,2.24,0,0,1-1.22.23,2.74,2.74,0,0,1-1.68-.71,9.45,9.45,0,0,1-.66-.76L25.51,66a.1.1,0,0,0-.05-.08Z"/></g></g></svg>