<svg xmlns="http://www.w3.org/2000/svg" viewBox="0 0 224 284"><defs><style>.cls-1,.cls-49{fill:#fff;}.cls-2{fill:#7889a8;}.cls-3{fill:#5b6b8d;}.cls-4{fill:#e9eeff;stroke:#556ae5;}.cls-4,.cls-9{stroke-miterlimit:10;stroke-width:2px;}.cls-49,.cls-5{font-size:12px;font-family:OpenSans-Regular, OpenSans Regular;}.cls-6{letter-spacing:-0.02em;}.cls-7{letter-spacing:-0.01em;}.cls-8{fill:#556ae5;}.cls-9{fill:#e1fff1;stroke:#0ab979;}.cls-10{letter-spacing:-0.01em;}.cls-11{letter-spacing:0.02em;}.cls-12{letter-spacing:-0.07em;}.cls-13{letter-spacing:0.03em;}.cls-14{letter-spacing:0em;}.cls-15{fill:#003a70;}.cls-16{fill:#ffa400;}.cls-17{letter-spacing:-0.03em;}.cls-18{letter-spacing:0em;}.cls-19{letter-spacing:-0.03em;}.cls-20{letter-spacing:0em;}.cls-21{letter-spacing:0em;}.cls-22{fill:#58596c;}.cls-23{fill:#ff5856;}.cls-24{fill:#db4040;}.cls-25{fill:#cc3636;}.cls-26{fill:#ffdc67;}.cls-27{fill:#ffb456;}.cls-28{fill:#fc974d;}.cls-29{fill:#f47f31;}.cls-30{letter-spacing:-0.01em;}.cls-31{letter-spacing:-0.04em;}.cls-32{fill:#5e8cda;}.cls-33{fill:#f5cd21;}.cls-34{fill:#093071;}.cls-35{fill:#d7edff;}.cls-36{fill:#0399ff;}.cls-37{letter-spacing:0em;}.cls-38{letter-spacing:0.01em;}.cls-39{letter-spacing:-0.01em;}.cls-40{fill:#912626;}.cls-41{fill:#c6302b;}.cls-42{fill:#621b1c;}.cls-43{fill:#9a2928;}.cls-44{fill:#fff1d7;}.cls-45{fill:#ffb70a;}.cls-46{letter-spacing:0.01em;}.cls-47{fill:#002b64;}.cls-48{fill:#d77758;}.cls-50{letter-spacing:-0.02em;}.cls-51{letter-spacing:-0.08em;}</style></defs><g id="Layer_2" data-name="Layer 2"><g id="Слой_1" data-name="Слой 1"><rect class="cls-1" x="1" y="1" width="222" height="282" rx="6"/><path class="cls-2" d="M217,2a5,5,0,0,1,5,5V277a5,5,0,0,1-5,5H7a5,5,0,0,1-5-5V7A5,5,0,0,1,7,2H217m0-2H7A7,7,0,0,0,0,7V277a7,7,0,0,0,7,7H217a7,7,0,0,0,7-7V7a7,7,0,0,0-7-7Z"/><path class="cls-3" d="M2,260H222a0,0,0,0,1,0,0v17a5,5,0,0,1-5,5H7a5,5,0,0,1-5-5V260a0,0,0,0,1,0,0Z"/><rect class="cls-4" x="12" y="10" width="200" height="35" rx="5"/><text class="cls-5" transform="translate(57.3 31.53)"><tspan class="cls-6">P</tspan><tspan class="cls-7" x="6.19" y="0">r</tspan><tspan x="10" y="0">emium CDN</tspan></text><path class="cls-8" d="M28.75,24a2.33,2.33,0,0,1,.7.11A19.49,19.49,0,0,1,32.2,21.6a2.35,2.35,0,0,1-.07-.54,2.27,2.27,0,0,1,.13-.75,17.1,17.1,0,0,0-3.63-2,11.11,11.11,0,0,0-3.12,2.87,17.42,17.42,0,0,0,2.22,3.09A2.32,2.32,0,0,1,28.75,24ZM26.39,26.4a2.43,2.43,0,0,1,.19-.94,19.8,19.8,0,0,1-2-2.68,11.11,11.11,0,0,0,.38,10.66,19,19,0,0,1,2-5.62A2.34,2.34,0,0,1,26.39,26.4Zm8.11-7.71a2.37,2.37,0,0,1,1.61.64A18.77,18.77,0,0,1,40,18.14a11.05,11.05,0,0,0-5.54-1.48,11.19,11.19,0,0,0-3.9.7A20.7,20.7,0,0,1,33.3,19,2.32,2.32,0,0,1,34.5,18.69ZM38,29.82a2.39,2.39,0,0,1,.61-.79,17.19,17.19,0,0,0-3.22-5.8,2.37,2.37,0,0,1-.92.19A2.41,2.41,0,0,1,33.12,23a18,18,0,0,0-2.36,2.17,2.4,2.4,0,0,1,.35,1.25,2.33,2.33,0,0,1-.11.7A17.14,17.14,0,0,0,38,29.82ZM41.09,33c0,.45,0,.9,0,1.35A20.66,20.66,0,0,1,41,36.73a11.21,11.21,0,0,0,4-5.6,17.74,17.74,0,0,1-2.64.44A2.36,2.36,0,0,1,41.09,33Zm-3.61-1.6a18.93,18.93,0,0,1-7.5-3,2.35,2.35,0,0,1-1.23.35,2.44,2.44,0,0,1-.48-.05,17.11,17.11,0,0,0-1.93,6.62A11,11,0,0,0,30.13,38,18.85,18.85,0,0,1,37.48,31.41Zm4.43-11.88a17.12,17.12,0,0,0-5.06,1.29,1.93,1.93,0,0,1,0,.24,2.36,2.36,0,0,1-.24,1,18.89,18.89,0,0,1,3.58,6.39,2.39,2.39,0,0,1,2.14,1.44,17,17,0,0,0,3.11-.61,11.2,11.2,0,0,0,.11-1.55A11.09,11.09,0,0,0,41.91,19.53ZM38.66,32.67a17.34,17.34,0,0,0-6.9,5.86,10.83,10.83,0,0,0,2.69.33,11.1,11.1,0,0,0,4.69-1,17.23,17.23,0,0,0,.35-3.47c0-.43,0-.85-.05-1.27A2.27,2.27,0,0,1,38.66,32.67Z"/><rect class="cls-9" x="12" y="50" width="200" height="35" rx="5"/><text class="cls-5" transform="translate(57.3 71.53)"><tspan class="cls-10">L</tspan><tspan x="5.5" y="0">e</tspan><tspan class="cls-11" x="11.51" y="0">t</tspan><tspan class="cls-12" x="15.73" y="0">’</tspan><tspan x="17.35" y="0">s Enc</tspan><tspan class="cls-13" x="42.59" y="0">r</tspan><tspan class="cls-14" x="46.81" y="0">ypt SSL</tspan></text><path class="cls-1" d="M41.68,68.06H40.33V66.33a5.86,5.86,0,0,0-11.71,0v1.73H27.23a1.11,1.11,0,0,0-1.13,1.13V79.87A1.11,1.11,0,0,0,27.23,81H41.68a1.11,1.11,0,0,0,1.13-1.13V69.19A1.15,1.15,0,0,0,41.68,68.06Zm-6.52,7v1.44a.74.74,0,1,1-1.48,0V75.08a1.47,1.47,0,0,1-.74-1.31,1.48,1.48,0,0,1,3,0A1.39,1.39,0,0,1,35.16,75.08Zm-3.19-7V66.33a2.51,2.51,0,0,1,5,0v1.73Z"/><path class="cls-1" d="M26.78,65.45a1,1,0,0,0-1-1H22.27a1,1,0,0,0,0,2h3.49A1,1,0,0,0,26.78,65.45Z"/><path class="cls-1" d="M27.6,60.72a.87.87,0,0,0,.63.25,1.17,1.17,0,0,0,.81-.39,1,1,0,0,0-.14-1.44l-2.75-2.26a1,1,0,1,0-1.3,1.59Z"/><path class="cls-1" d="M34.47,58.57a1,1,0,0,0,1-1V54a1,1,0,0,0-2,0v3.53A1,1,0,0,0,34.47,58.57Z"/><path class="cls-1" d="M40.68,61a1,1,0,0,0,.67-.25l2.75-2.25a1,1,0,1,0-1.31-1.59L40,59.14a1,1,0,0,0-.14,1.44A1,1,0,0,0,40.68,61Z"/><path class="cls-1" d="M46.64,64.43H43.11a1,1,0,0,0,0,2h3.53a1,1,0,0,0,0-2Z"/><path class="cls-15" d="M41.68,68.06H27.23a1.11,1.11,0,0,0-1.13,1.13V79.87A1.11,1.11,0,0,0,27.23,81H41.68a1.11,1.11,0,0,0,1.13-1.13V69.19A1.15,1.15,0,0,0,41.68,68.06Zm-6.52,7v1.44a.74.74,0,1,1-1.48,0V75.08a1.46,1.46,0,0,1-.74-1.31,1.48,1.48,0,0,1,3,0A1.38,1.38,0,0,1,35.16,75.08Z"/><path class="cls-16" d="M40.33,68.06H37V66.33a2.51,2.51,0,0,0-5,0v1.73H28.62V66.33a5.86,5.86,0,0,1,11.71,0Z"/><path class="cls-16" d="M25.76,66.47H22.27a1,1,0,0,1,0-2h3.49a1,1,0,1,1,0,2Z"/><path class="cls-16" d="M28.23,61a.87.87,0,0,1-.63-.25l-2.75-2.25a1,1,0,1,1,1.3-1.59l2.75,2.26A1,1,0,0,1,29,60.58,1.17,1.17,0,0,1,28.23,61Z"/><path class="cls-16" d="M34.47,58.57a1,1,0,0,1-1-1V54a1,1,0,0,1,2,0v3.53A1,1,0,0,1,34.47,58.57Z"/><path class="cls-16" d="M40.68,61a1,1,0,0,1-.78-.39A1,1,0,0,1,40,59.14l2.75-2.26a1,1,0,1,1,1.31,1.59l-2.75,2.25A1,1,0,0,1,40.68,61Z"/><path class="cls-16" d="M46.64,66.47H43.11a1,1,0,0,1,0-2h3.53a1,1,0,0,1,0,2Z"/><rect class="cls-9" x="12" y="90" width="200" height="35" rx="5"/><text class="cls-5" transform="translate(57.3 111.53)"><tspan class="cls-17">W</tspan><tspan x="9.76" y="0">eb </tspan><tspan class="cls-18" x="25.14" y="0">A</tspan><tspan class="cls-14" x="32.45" y="0">pp </tspan><tspan class="cls-19" x="48.65" y="0">F</tspan><tspan x="54.18" y="0">i</tspan><tspan class="cls-7" x="56.99" y="0">r</tspan><tspan class="cls-20" x="60.79" y="0">e</tspan><tspan class="cls-21" x="66.8" y="0">w</tspan><tspan x="75.59" y="0">all</tspan></text><path class="cls-22" d="M46,107.52A11.54,11.54,0,1,1,34.45,96,11.54,11.54,0,0,1,46,107.52Z"/><path class="cls-23" d="M45.13,103.15H23.76a11.54,11.54,0,1,0,21.37,0Z"/><path class="cls-24" d="M46,106.85c0-.28,0-.55-.07-.81h-7v-2.48h6.37q-.15-.42-.33-.81h-21q-.18.39-.33.81H30V106H23c0,.26-.06.53-.07.81h3v2.47H23.05c0,.28.1.55.16.82H30v2.47H24.09c.14.28.29.55.45.82h1.38v1.86a11.63,11.63,0,0,0,1.56,1.42H30v1.45q.4.16.81.3v-1.75h7.32v1.75q.41-.13.81-.3v-1.45h2.5A11.63,11.63,0,0,0,43,115.29v-1.86h1.38a9.27,9.27,0,0,0,.44-.82H38.92v-2.47h6.77c.06-.27.12-.54.16-.82H43v-2.47Zm-15.18-3.29h7.32V106H30.79Zm-4.06,5.76v-2.47H34v2.47ZM34,115.9H26.73v-2.47H34Zm-3.25-3.29v-2.47h7.32v2.47Zm11.38.82v2.47H34.85v-2.47Zm0-4.11H34.85v-2.47h7.32Z"/><path class="cls-24" d="M28.27,103.34a1.11,1.11,0,0,1,0-.19H23.76a11.56,11.56,0,0,0,4.51,14.11Z"/><path class="cls-25" d="M28.27,110.14v-.82H26.73v-2.47h1.54V106H23c0,.26-.06.53-.07.81h3v2.47H23.05c0,.28.1.55.16.82Z"/><path class="cls-25" d="M28.27,103.34a.87.87,0,0,1,.23-.59H23.94q-.18.39-.33.81h4.66Z"/><path class="cls-25" d="M28.27,115.9H26.73v-2.47h1.54v-.82H24.09c.14.28.29.55.45.82h1.38v1.86a11.63,11.63,0,0,0,1.56,1.42h.79Z"/><path class="cls-26" d="M41.13,106.3l-1.69.53a3.58,3.58,0,0,0,.19-4.54,5,5,0,0,1-1.08-2.66A.29.29,0,0,0,38,99.5a7.08,7.08,0,0,0-.84,1.79h0a4.9,4.9,0,0,0-1.36-3.67,3.4,3.4,0,0,1-1-3,.26.26,0,0,0-.12-.29.29.29,0,0,0-.32,0,8.93,8.93,0,0,0-4.2,9.06h0c0,.26-.15.18-.21.13a7.32,7.32,0,0,1-1.13-1.2.26.26,0,0,0-.27-.11.27.27,0,0,0-.23.19,8.88,8.88,0,0,0,.64,7.44,6.26,6.26,0,0,0,5.62,2.82c4.2,0,6.5-2.54,6.93-6A.28.28,0,0,0,41.13,106.3Z"/><path class="cls-27" d="M29.86,103.66a.3.3,0,0,1,.11-.14l0,0a7.32,7.32,0,0,1-1.13-1.2.26.26,0,0,0-.27-.11.27.27,0,0,0-.23.19c-1.2,3.35-.41,7.67,2.7,9.42A8.58,8.58,0,0,1,29.86,103.66Z"/><path class="cls-27" d="M30.15,103.37a.31.31,0,0,1,0,.1.3.3,0,0,1,.23.11,7.36,7.36,0,0,0,1.13,1.21c.06,0,.21.12.21-.13h0a8.9,8.9,0,0,1,3.23-8.37,3.18,3.18,0,0,1-.15-1.68.26.26,0,0,0-.12-.29.29.29,0,0,0-.32,0,8.93,8.93,0,0,0-4.2,9.06Z"/><path class="cls-27" d="M38.34,109l-1,.32a2.15,2.15,0,0,0,.1-2.71A3,3,0,0,1,36.8,105a.17.17,0,0,0-.31-.08A3.93,3.93,0,0,0,36,106h0a2.91,2.91,0,0,0-.81-2.18,2,2,0,0,1-.58-1.78.2.2,0,0,0-.07-.18.17.17,0,0,0-.19,0,5.3,5.3,0,0,0-2.5,5.4h0c0,.15-.11.08-.13.07a4,4,0,0,1-.67-.72.17.17,0,0,0-.3.05c-.77,2.15-.16,4.91,2,5.79a7.89,7.89,0,0,0,1.85.2,9.52,9.52,0,0,0,1.34-.09,3.8,3.8,0,0,0,2.65-3.38A.17.17,0,0,0,38.34,109Z"/><path class="cls-28" d="M32,111.86a5.34,5.34,0,0,1-.38-4.43.2.2,0,0,1,.09-.09l-.05,0a4,4,0,0,1-.67-.72.17.17,0,0,0-.3.05c-.71,2-.25,4.54,1.59,5.59A3.73,3.73,0,0,1,32,111.86Z"/><path class="cls-28" d="M31.81,107.25a.56.56,0,0,1,0,.07.16.16,0,0,1,.14.07,4.46,4.46,0,0,0,.68.71s.13.09.12-.06a5.32,5.32,0,0,1,1.92-5,1.88,1.88,0,0,1-.09-1,.2.2,0,0,0-.07-.18.17.17,0,0,0-.19,0,5.3,5.3,0,0,0-2.5,5.4Z"/><path class="cls-28" d="M34.69,108.54a.49.49,0,0,0-.64,0,2.7,2.7,0,0,0,0,4.06l0,0h.56l0,0a2.7,2.7,0,0,0,0-4.06Z"/><path class="cls-29" d="M34.22,110.64a2.7,2.7,0,0,1,.73-1.85,3.07,3.07,0,0,0-.26-.25.49.49,0,0,0-.64,0,2.7,2.7,0,0,0,0,4.06l0,0h.56l0,0,.19-.18A2.67,2.67,0,0,1,34.22,110.64Z"/><rect class="cls-9" x="12" y="130" width="200" height="35" rx="5"/><text class="cls-5" transform="translate(57.3 151.53)">Li<tspan class="cls-30" x="8.47" y="0">t</tspan><tspan x="12.37" y="0">eSpeed</tspan><tspan class="cls-31" x="49.92" y="0"> </tspan><tspan class="cls-17" x="52.03" y="0">W</tspan><tspan x="61.79" y="0">eb ADC</tspan></text><path class="cls-32" d="M37.28,146.88a.66.66,0,0,1,0,1l-2.35,2.35a.68.68,0,0,1-1,0l-2.36-2.35a.68.68,0,0,1,0-1L34,144.52a.68.68,0,0,1,1,0Z"/><path class="cls-33" d="M22.49,149.35a.4.4,0,0,1-.57,0l-1.71-1.71a.41.41,0,0,1,0-.58l1.71-1.71a.4.4,0,0,1,.57,0l1.72,1.71a.43.43,0,0,1,0,.58Z"/><path class="cls-33" d="M46.91,149.35a.41.41,0,0,1-.58,0l-1.71-1.71a.41.41,0,0,1,0-.58l1.71-1.71a.41.41,0,0,1,.58,0l1.71,1.71a.41.41,0,0,1,0,.58Z"/><path class="cls-34" d="M39.27,148.24a.14.14,0,0,0-.17,0l-4.23,4.23a.59.59,0,0,1-.82,0l-9.63-9.94a3.07,3.07,0,0,0-4.34,0l-2.65,2.65a3,3,0,0,0-.9,2.17c0,.1,0,.2,0,.3a3.1,3.1,0,0,0,.89,1.87l2.65,2.65a3.38,3.38,0,0,0,.35.31,3.13,3.13,0,0,0,3,.37,3.16,3.16,0,0,0,1-.68l2.63-2.62a.16.16,0,0,0,0-.09.11.11,0,0,0,0-.08l-.94-.94a.17.17,0,0,0-.19,0L23.38,151a1.61,1.61,0,0,1-.36.27,1.34,1.34,0,0,1-1.42,0,1.48,1.48,0,0,1-.43-.31l-2.55-2.54a1.54,1.54,0,0,1-.36-.57,1.27,1.27,0,0,1-.05-.88,1.57,1.57,0,0,1,.41-.76l2.55-2.54a1.49,1.49,0,0,1,.95-.45,1.23,1.23,0,0,1,.43,0,1.49,1.49,0,0,1,.83.43L33,153.79a2,2,0,0,0,1.42.61h0a2.25,2.25,0,0,0,.36-.06,2.16,2.16,0,0,0,.55-.21,2.25,2.25,0,0,0,.49-.37l4.37-4.37a.14.14,0,0,0,0-.17Z"/><path class="cls-34" d="M51.48,145.18l-2.65-2.65a3,3,0,0,0-2-.89h-.3a3,3,0,0,0-2,.89l-2.63,2.63a.11.11,0,0,0,0,.17l.94.93c0,.05.15,0,.19,0l2.54-2.54a1.69,1.69,0,0,1,.36-.27,1.33,1.33,0,0,1,1.41,0,1.4,1.4,0,0,1,.44.31l2.54,2.54a1.44,1.44,0,0,1,.37.57,1.3,1.3,0,0,1,.05.89,1.48,1.48,0,0,1-.42.75L47.74,151a1.6,1.6,0,0,1-1,.45,1.48,1.48,0,0,1-.42,0,1.62,1.62,0,0,1-.83-.43L35.88,141a2,2,0,0,0-.4-.31,2,2,0,0,0-.83-.27h-.39A2,2,0,0,0,33,141l-4.37,4.37a.1.1,0,0,0,0,.16l1,1a.12.12,0,0,0,.17,0L34,142.23a.59.59,0,0,1,.82,0l9.63,9.94a3.07,3.07,0,0,0,4.34,0l2.65-2.64a3.16,3.16,0,0,0,.89-1.88c0-.1,0-.2,0-.3A3,3,0,0,0,51.48,145.18Z"/><path class="cls-33" d="M32.88,150.05l0,0s0,0,0-.09l1.48-1.88a.11.11,0,0,0,0-.11l-.83-1.2a.17.17,0,0,1,0-.23L36,144.68a.11.11,0,0,1,.07,0,.05.05,0,0,1,0,0s0,0,0,.09l-1.48,1.88a.12.12,0,0,0,0,.13l.82,1.17c0,.05,0,.19,0,.24L33,150l-.06,0Z"/><path class="cls-34" d="M35.11,154a2.47,2.47,0,0,1-.52.18A2.47,2.47,0,0,0,35.11,154Z"/><rect class="cls-35" x="11" y="170" width="202" height="37" rx="6"/><path class="cls-36" d="M207,171a5,5,0,0,1,5,5v25a5,5,0,0,1-5,5H17a5,5,0,0,1-5-5V176a5,5,0,0,1,5-5H207m0-2H17a7,7,0,0,0-7,7v25a7,7,0,0,0,7,7H207a7,7,0,0,0,7-7V176a7,7,0,0,0-7-7Z"/><text class="cls-5" transform="translate(57.3 192.53)"><tspan class="cls-37">R</tspan><tspan x="6.5" y="0">edis Obje</tspan><tspan class="cls-38" x="53.41" y="0">c</tspan><tspan x="58.94" y="0">t </tspan><tspan class="cls-39" x="65.46" y="0">C</tspan><tspan class="cls-14" x="72.33" y="0">ache</tspan></text><path class="cls-40" d="M45.64,195c-1.29.67-8,3.43-9.43,4.18a3.22,3.22,0,0,1-3.36.2c-1.12-.54-8.27-3.43-9.55-4-.65-.31-1-.57-1-.82V192s9.3-2,10.81-2.56a3.8,3.8,0,0,1,3.3-.09c1.27.47,8.91,1.84,10.18,2.31,0,0,0,2.19,0,2.42s-.29.5-1,.85"/><path class="cls-41" d="M45.64,192.53c-1.29.67-8,3.43-9.43,4.18a3.22,3.22,0,0,1-3.36.2c-1.12-.54-8.27-3.43-9.55-4s-1.32-1-.05-1.54,8.36-3.28,9.87-3.82a3.8,3.8,0,0,1,3.3-.09c1.27.47,7.95,3.13,9.21,3.59s1.31.84,0,1.52"/><path class="cls-40" d="M45.64,191c-1.29.67-8,3.43-9.43,4.18a3.22,3.22,0,0,1-3.36.2c-1.12-.54-8.27-3.43-9.55-4-.65-.31-1-.57-1-.82v-2.45s9.3-2,10.81-2.56a3.8,3.8,0,0,1,3.3-.09c1.27.46,8.91,1.84,10.18,2.31,0,0,0,2.19,0,2.41s-.29.51-1,.86"/><path class="cls-41" d="M45.64,188.56c-1.29.67-8,3.43-9.43,4.18a3.22,3.22,0,0,1-3.36.2c-1.12-.54-8.27-3.43-9.55-4s-1.32-1-.05-1.54,8.36-3.28,9.87-3.82a3.8,3.8,0,0,1,3.3-.09c1.27.47,7.95,3.13,9.21,3.59s1.31.84,0,1.52h0"/><path class="cls-40" d="M45.64,186.88c-1.29.67-8,3.43-9.43,4.18a3.22,3.22,0,0,1-3.36.2c-1.12-.54-8.27-3.43-9.55-4-.65-.31-1-.57-1-.81V184s9.3-2,10.81-2.56a3.8,3.8,0,0,1,3.3-.09c1.27.47,8.91,1.84,10.18,2.31,0,0,0,2.19,0,2.42s-.29.51-1,.85"/><path class="cls-41" d="M45.64,184.44c-1.29.67-8,3.43-9.43,4.18a3.22,3.22,0,0,1-3.36.2c-1.12-.54-8.27-3.43-9.55-4s-1.32-1-.05-1.54,8.36-3.28,9.87-3.82a3.83,3.83,0,0,1,3.3-.09c1.27.47,7.95,3.13,9.21,3.59s1.31.84,0,1.52"/><path class="cls-1" d="M37.42,182.05l-2.09.22-.46,1.12-.76-1.25-2.41-.22,1.8-.65-.54-1,1.68.66,1.59-.52-.43,1,1.62.6"/><path class="cls-1" d="M34.74,187.51l-3.89-1.62,5.58-.86-1.69,2.48"/><path class="cls-1" d="M29.34,182.68c1.65,0,3,.51,3,1.15S31,185,29.34,185s-3-.52-3-1.16,1.33-1.15,3-1.15"/><path class="cls-42" d="M39.89,182.36l3.3,1.3L39.89,185v-2.61"/><path class="cls-43" d="M36.23,183.8l3.66-1.44V185l-.36.14-3.3-1.31"/><rect class="cls-44" x="11" y="212" width="202" height="37" rx="6"/><path class="cls-45" d="M207,213a5,5,0,0,1,5,5v25a5,5,0,0,1-5,5H17a5,5,0,0,1-5-5V218a5,5,0,0,1,5-5H207m0-2H17a7,7,0,0,0-7,7v25a7,7,0,0,0,7,7H207a7,7,0,0,0,7-7V218a7,7,0,0,0-7-7Z"/><text class="cls-5" transform="translate(57.3 234.53)"><tspan class="cls-46">M</tspan><tspan x="9.72" y="0">a</tspan><tspan class="cls-37" x="15.5" y="0">r</tspan><tspan x="19.48" y="0">iaDB</tspan></text><path class="cls-47" d="M46.8,222c-.45,0-.3.14-1.27.38a19.54,19.54,0,0,0-3.22.61c-3.13,1.31-3.76,5.81-6.61,7.42-2.13,1.2-4.28,1.29-6.21,1.9a11.26,11.26,0,0,0-3.81,2.21c-.89.77-.92,1.44-1.85,2.41s-4,0-5.31,1.6c.43.43.62.56,1.48.44-.18.34-1.22.62-1,1.11s2.74.87,5-.51c1.06-.64,1.91-1.57,3.57-1.79a27.38,27.38,0,0,1,7.12.54A11.3,11.3,0,0,1,33,241c-.19.2.37.22,1,.1a10,10,0,0,0,2.81-1c1-.61,1.21-2.18,2.5-2.52a2.88,2.88,0,0,0,3.89.48c-1.07-.3-1.36-2.57-1-3.56s.68-2.46,1-3.71.5-3,1-3.72a8.79,8.79,0,0,1,2-2,2.9,2.9,0,0,0,1.22-2.48.58.58,0,0,0-.64-.65Z"/><path class="cls-48" d="M19.44,240a6.44,6.44,0,0,0,3.94-.57c1.11-.48,2.19-1.48,3.5-1.9,1.94-.62,4.06,0,6.12.12a9.36,9.36,0,0,0,1.5,0c.77-.47.75-2.24,1.5-2.4a8.55,8.55,0,0,1-2.1,5.41,6,6,0,0,0,4.49-3.43,12.67,12.67,0,0,0,.72-1.68c.32.24.14,1,.3,1.4,1.55-.86,2.43-2.83,3-4.81.67-2.3,1-4.63,1.39-5.31a5.65,5.65,0,0,1,1.7-1.5,2.72,2.72,0,0,0,1.41-1.91c-.73-.07-.9-.23-1-.6a2.17,2.17,0,0,1-1.07.26c-.33,0-.69,0-1.13,0-3.64.37-4.1,4.38-6.43,6.66a6.09,6.09,0,0,1-.55.46,11.44,11.44,0,0,1-2.74,1.4c-1.49.57-2.91.61-4.31,1.1a12.59,12.59,0,0,0-2.91,1.46c-.21.15-.41.29-.6.44a6,6,0,0,0-1.13,1.32,8.92,8.92,0,0,1-1.12,1.44c-.77.75-3.66.22-4.67.92a.75.75,0,0,0-.27.29c.56.25.93.09,1.56.16.09.61-1.31,1-1.11,1.25Z"/><path class="cls-48" d="M41.49,235.62a5.28,5.28,0,0,0,.8,2.41,2.49,2.49,0,0,1-2.21-.6C40.24,236.72,41.07,236.07,41.49,235.62Z"/><path class="cls-47" d="M42.51,224.59a.85.85,0,0,0,1.4-.8C43.11,223.73,42.65,224,42.51,224.59Z"/><path class="cls-47" d="M46.1,223.56a2.59,2.59,0,0,0-.4,1.38c0,.13-.09.22-.09,0a2.71,2.71,0,0,1,.39-1.43C46.1,223.37,46.15,223.43,46.1,223.56Z"/><path class="cls-47" d="M46,223.45a3.23,3.23,0,0,0-.61,1.5c0,.12-.12.2-.1,0a3.28,3.28,0,0,1,.62-1.54C46,223.26,46,223.33,46,223.45Z"/><path class="cls-47" d="M45.84,223.3a3.79,3.79,0,0,0-.91,1.58c0,.13-.13.2-.1,0a4.18,4.18,0,0,1,.91-1.63C45.86,223.12,45.91,223.19,45.84,223.3Z"/><path class="cls-47" d="M45.73,223.14a5.27,5.27,0,0,0-1.16,1.7c0,.12-.16.17-.1,0a5.5,5.5,0,0,1,1.17-1.73c.14-.13.17-.05.09,0Z"/><text class="cls-49" transform="translate(77.7 275.7)"><tspan class="cls-50">C</tspan><tspan x="6.71" y="0">ON</tspan><tspan class="cls-51" x="22.87" y="0">T</tspan><tspan x="27.94" y="0">AINER</tspan></text></g></g></svg>