<svg xmlns="http://www.w3.org/2000/svg" viewBox="0 0 213.25 243.85"><defs><style>.cls-1{fill:#7889a8;}.cls-2{fill:#5b6b8d;}.cls-3{fill:#e1fff1;stroke:#0ab979;stroke-miterlimit:10;stroke-width:2px;}.cls-25,.cls-30,.cls-4{fill:#fff;}.cls-5{fill:#003a70;}.cls-6{fill:#ffa400;}.cls-7{fill:#58596c;}.cls-8{fill:#ff5856;}.cls-9{fill:#db4040;}.cls-10{fill:#cc3636;}.cls-11{fill:#ffdc67;}.cls-12{fill:#ffb456;}.cls-13{fill:#fc974d;}.cls-14{fill:#f47f31;}.cls-15{fill:#d7edff;}.cls-16{fill:#0399ff;}.cls-17{fill:#912626;}.cls-18{fill:#c6302b;}.cls-19{fill:#621b1c;}.cls-20{fill:#9a2928;}.cls-21{fill:#fff1d7;}.cls-22{fill:#ffb70a;}.cls-23{fill:#002b64;}.cls-24{fill:#d77758;}.cls-25{font-size:12px;}.cls-25,.cls-30{font-family:OpenSans-SemiBold, Open Sans;font-weight:600;}.cls-26{fill:#5e8cda;}.cls-27{fill:#093071;}.cls-28{fill:#f5cd21;}.cls-29{fill:#fddd75;}.cls-30{font-size:14px;}</style></defs><g id="Layer_2" data-name="Layer 2"><g id="Слой_1" data-name="Слой 1"><path class="cls-1" d="M206.25,2a5,5,0,0,1,5,5V236.85a5,5,0,0,1-5,5H7a5,5,0,0,1-5-5V7A5,5,0,0,1,7,2H206.25m0-2H7A7,7,0,0,0,0,7V236.85a7,7,0,0,0,7,7H206.25a7,7,0,0,0,7-7V7a7,7,0,0,0-7-7Z"/><path class="cls-2" d="M2,219.85H211.25a0,0,0,0,1,0,0v17a5,5,0,0,1-5,5H7a5,5,0,0,1-5-5v-17A0,0,0,0,1,2,219.85Z"/><rect class="cls-3" x="12.13" y="9.85" width="35" height="35" rx="5"/><path class="cls-4" d="M36.68,27.91H35.33V26.18a5.86,5.86,0,0,0-11.71,0v1.73H22.23A1.12,1.12,0,0,0,21.1,29V39.73a1.11,1.11,0,0,0,1.13,1.12H36.68a1.11,1.11,0,0,0,1.13-1.12V29A1.16,1.16,0,0,0,36.68,27.91Zm-6.52,7v1.45a.74.74,0,0,1-1.48,0V34.93a1.46,1.46,0,0,1-.74-1.31,1.48,1.48,0,0,1,3,0A1.38,1.38,0,0,1,30.16,34.93Zm-3.19-7V26.18a2.51,2.51,0,0,1,5,0v1.73Z"/><path class="cls-4" d="M21.78,25.3a1,1,0,0,0-1-1H17.27a1,1,0,0,0,0,2h3.49A1,1,0,0,0,21.78,25.3Z"/><path class="cls-4" d="M22.6,20.58a.91.91,0,0,0,.63.24,1.2,1.2,0,0,0,.81-.38A1.06,1.06,0,0,0,23.9,19l-2.75-2.26a1,1,0,1,0-1.3,1.59Z"/><path class="cls-4" d="M29.47,18.43a1,1,0,0,0,1-1V13.88a1,1,0,1,0-2,0V17.4A1,1,0,0,0,29.47,18.43Z"/><path class="cls-4" d="M35.68,20.82a1,1,0,0,0,.67-.24l2.75-2.26a1,1,0,1,0-1.31-1.59L35,19a1.06,1.06,0,0,0-.14,1.45A1,1,0,0,0,35.68,20.82Z"/><path class="cls-4" d="M41.64,24.28H38.11a1,1,0,0,0,0,2h3.53a1,1,0,0,0,0-2Z"/><path class="cls-5" d="M36.68,27.91H22.23A1.12,1.12,0,0,0,21.1,29V39.73a1.11,1.11,0,0,0,1.13,1.12H36.68a1.11,1.11,0,0,0,1.13-1.12V29A1.16,1.16,0,0,0,36.68,27.91Zm-6.52,7v1.45a.74.74,0,0,1-1.48,0V34.93a1.46,1.46,0,0,1-.74-1.31,1.48,1.48,0,0,1,3,0A1.38,1.38,0,0,1,30.16,34.93Z"/><path class="cls-6" d="M35.33,27.91H32V26.18a2.51,2.51,0,0,0-5,0v1.73H23.62V26.18a5.86,5.86,0,0,1,11.71,0Z"/><path class="cls-6" d="M20.76,26.33H17.27a1,1,0,0,1,0-2h3.49a1,1,0,0,1,0,2Z"/><path class="cls-6" d="M23.23,20.82a.91.91,0,0,1-.63-.24l-2.75-2.26a1,1,0,1,1,1.3-1.59L23.9,19A1.06,1.06,0,0,1,24,20.44,1.2,1.2,0,0,1,23.23,20.82Z"/><path class="cls-6" d="M29.47,18.43a1,1,0,0,1-1-1V13.88a1,1,0,1,1,2,0V17.4A1,1,0,0,1,29.47,18.43Z"/><path class="cls-6" d="M35.68,20.82a1,1,0,0,1-.78-.38A1.06,1.06,0,0,1,35,19l2.75-2.26a1,1,0,1,1,1.31,1.59l-2.75,2.26A1,1,0,0,1,35.68,20.82Z"/><path class="cls-6" d="M41.64,26.33H38.11a1,1,0,0,1,0-2h3.53a1,1,0,0,1,0,2Z"/><rect class="cls-3" x="12" y="49.85" width="35.25" height="35" rx="5"/><path class="cls-7" d="M41,67.37A11.54,11.54,0,1,1,29.45,55.83,11.54,11.54,0,0,1,41,67.37Z"/><path class="cls-8" d="M40.13,63H18.76a11.54,11.54,0,1,0,21.37,0Z"/><path class="cls-9" d="M41,66.7c0-.27,0-.54-.07-.81h-7V63.41h6.37c-.1-.27-.21-.55-.33-.81h-21q-.18.4-.33.81H25v2.48H18c0,.27-.06.54-.07.81h3v2.48H18.05c0,.27.1.54.16.81H25v2.48H19.09c.14.27.29.55.45.81h1.38v1.86a12.42,12.42,0,0,0,1.56,1.43H25V78c.27.11.54.22.81.31V76.57h7.32v1.75c.27-.09.54-.2.81-.31V76.57h2.5A12.42,12.42,0,0,0,38,75.14V73.28h1.38a9.1,9.1,0,0,0,.44-.81H33.92V70h6.77c.06-.27.12-.54.16-.81H38V66.7ZM25.79,63.41h7.32v2.48H25.79Zm-4.06,5.77V66.7H29v2.48ZM29,75.76H21.73V73.28H29Zm-3.25-3.29V70h7.32v2.48Zm11.38.81v2.48H29.85V73.28Zm0-4.1H29.85V66.7h7.32Z"/><path class="cls-9" d="M23.27,63.19a1.1,1.1,0,0,1,0-.18H18.76a11.56,11.56,0,0,0,4.51,14.11Z"/><path class="cls-10" d="M23.27,70v-.81H21.73V66.7h1.54v-.81H18c0,.27-.06.54-.07.81h3v2.48H18.05c0,.27.1.54.16.81Z"/><path class="cls-10" d="M23.27,63.19a.89.89,0,0,1,.23-.59H18.94c-.12.26-.23.54-.33.81h4.66Z"/><path class="cls-10" d="M23.27,75.76H21.73V73.28h1.54v-.81H19.09c.14.27.29.55.45.81h1.38v1.86a12.42,12.42,0,0,0,1.56,1.43h.79Z"/><path class="cls-11" d="M36.13,66.15l-1.69.53a3.58,3.58,0,0,0,.19-4.54,4.94,4.94,0,0,1-1.08-2.66.3.3,0,0,0-.53-.13,7.24,7.24,0,0,0-.84,1.79h0a4.89,4.89,0,0,0-1.36-3.66,3.41,3.41,0,0,1-1-3,.28.28,0,0,0-.12-.3.31.31,0,0,0-.32,0,8.93,8.93,0,0,0-4.2,9.06h0c0,.25-.15.17-.21.13a7.36,7.36,0,0,1-1.13-1.21.31.31,0,0,0-.27-.11.28.28,0,0,0-.23.19A8.88,8.88,0,0,0,24,69.67a6.26,6.26,0,0,0,5.62,2.82c4.2,0,6.5-2.54,6.93-6A.29.29,0,0,0,36.13,66.15Z"/><path class="cls-12" d="M24.86,63.52a.26.26,0,0,1,.11-.14l0,0a7.36,7.36,0,0,1-1.13-1.21.31.31,0,0,0-.27-.11.28.28,0,0,0-.23.19c-1.2,3.35-.41,7.67,2.7,9.42A8.57,8.57,0,0,1,24.86,63.52Z"/><path class="cls-12" d="M25.15,63.23a.22.22,0,0,1,0,.09.31.31,0,0,1,.23.12,7.32,7.32,0,0,0,1.13,1.2c.06,0,.21.13.21-.13h0a8.91,8.91,0,0,1,3.23-8.37,3.15,3.15,0,0,1-.15-1.67.28.28,0,0,0-.12-.3.31.31,0,0,0-.32,0,8.93,8.93,0,0,0-4.2,9.06Z"/><path class="cls-12" d="M33.34,68.83l-1,.32a2.13,2.13,0,0,0,.11-2.7,3.09,3.09,0,0,1-.64-1.58.17.17,0,0,0-.31-.08,3.76,3.76,0,0,0-.5,1.06h0a2.89,2.89,0,0,0-.81-2.18,2,2,0,0,1-.58-1.79.17.17,0,0,0-.07-.17.19.19,0,0,0-.19,0,5.32,5.32,0,0,0-2.5,5.41h0c0,.14-.11.07-.13.06a4,4,0,0,1-.67-.72.18.18,0,0,0-.3,0c-.77,2.16-.16,4.91,2,5.8a8.47,8.47,0,0,0,1.85.19,9.52,9.52,0,0,0,1.34-.09A3.79,3.79,0,0,0,33.56,69,.17.17,0,0,0,33.34,68.83Z"/><path class="cls-13" d="M27,71.72a5.34,5.34,0,0,1-.38-4.43.22.22,0,0,1,.09-.1l-.05,0a4,4,0,0,1-.67-.72.18.18,0,0,0-.3,0c-.71,2-.25,4.54,1.59,5.59C27.2,72,27.11,71.85,27,71.72Z"/><path class="cls-13" d="M26.81,67.11a.35.35,0,0,1,0,.06.19.19,0,0,1,.14.07,4.5,4.5,0,0,0,.68.72s.13.08.12-.07a5.32,5.32,0,0,1,1.92-5,1.87,1.87,0,0,1-.09-1,.17.17,0,0,0-.07-.17.19.19,0,0,0-.19,0,5.32,5.32,0,0,0-2.5,5.41Z"/><path class="cls-13" d="M29.69,68.4a.47.47,0,0,0-.64,0,2.69,2.69,0,0,0,0,4l0,0h.56a.1.1,0,0,0,.05,0,2.69,2.69,0,0,0,0-4Z"/><path class="cls-14" d="M29.22,70.5A2.66,2.66,0,0,1,30,68.65a2,2,0,0,0-.26-.25.47.47,0,0,0-.64,0,2.69,2.69,0,0,0,0,4l0,0h.56a.1.1,0,0,0,.05,0,1.54,1.54,0,0,0,.19-.17A2.69,2.69,0,0,1,29.22,70.5Z"/><rect class="cls-3" x="12" y="89.85" width="35.25" height="35" rx="5"/><rect class="cls-15" x="12.13" y="129.85" width="37" height="37" rx="6"/><path class="cls-16" d="M43.13,130.85a5,5,0,0,1,5,5v25a5,5,0,0,1-5,5h-25a5,5,0,0,1-5-5v-25a5,5,0,0,1,5-5h25m0-2h-25a7,7,0,0,0-7,7v25a7,7,0,0,0,7,7h25a7,7,0,0,0,7-7v-25a7,7,0,0,0-7-7Z"/><path class="cls-17" d="M41.64,154.82c-1.29.68-8,3.44-9.43,4.18a3.19,3.19,0,0,1-3.36.2c-1.12-.54-8.27-3.42-9.55-4-.65-.31-1-.57-1-.81v-2.46s9.3-2,10.81-2.56a3.8,3.8,0,0,1,3.3-.09c1.27.47,8.91,1.85,10.18,2.31,0,0,0,2.19,0,2.42s-.29.51-1,.85"/><path class="cls-18" d="M41.64,152.38c-1.29.68-8,3.44-9.43,4.18a3.19,3.19,0,0,1-3.36.2c-1.12-.54-8.27-3.42-9.55-4s-1.32-1-.05-1.53,8.36-3.28,9.87-3.82a3.8,3.8,0,0,1,3.3-.09c1.27.47,7.95,3.12,9.21,3.58s1.31.85,0,1.52"/><path class="cls-17" d="M41.64,150.85c-1.29.68-8,3.44-9.43,4.18a3.19,3.19,0,0,1-3.36.2c-1.12-.54-8.27-3.43-9.55-4-.65-.31-1-.57-1-.81v-2.46s9.3-2,10.81-2.56a3.8,3.8,0,0,1,3.3-.09c1.27.47,8.91,1.85,10.18,2.31,0,0,0,2.19,0,2.42s-.29.51-1,.85"/><path class="cls-18" d="M41.64,148.41c-1.29.68-8,3.44-9.43,4.18a3.19,3.19,0,0,1-3.36.2c-1.12-.54-8.27-3.43-9.55-4s-1.32-1-.05-1.53,8.36-3.29,9.87-3.82a3.8,3.8,0,0,1,3.3-.09c1.27.46,7.95,3.12,9.21,3.58s1.31.85,0,1.52h0"/><path class="cls-17" d="M41.64,146.73c-1.29.68-8,3.44-9.43,4.18a3.19,3.19,0,0,1-3.36.2c-1.12-.54-8.27-3.42-9.55-4-.65-.31-1-.57-1-.81v-2.45s9.3-2,10.81-2.57a3.8,3.8,0,0,1,3.3-.09c1.27.47,8.91,1.85,10.18,2.31,0,0,0,2.19,0,2.42s-.29.51-1,.85"/><path class="cls-18" d="M41.64,144.29c-1.29.68-8,3.44-9.43,4.18a3.19,3.19,0,0,1-3.36.2c-1.12-.54-8.27-3.42-9.55-4s-1.32-1-.05-1.53,8.36-3.28,9.87-3.82a3.8,3.8,0,0,1,3.3-.09c1.27.47,7.95,3.12,9.21,3.58s1.31.85,0,1.52"/><path class="cls-4" d="M33.42,141.91l-2.09.21-.46,1.13L30.11,142l-2.41-.21,1.8-.65-.54-1,1.68.66,1.59-.52-.43,1,1.62.61"/><path class="cls-4" d="M30.74,147.36l-3.89-1.61,5.58-.86-1.69,2.47"/><path class="cls-4" d="M25.34,142.53c1.65,0,3,.52,3,1.16s-1.33,1.15-3,1.15-3-.51-3-1.15,1.33-1.16,3-1.16"/><path class="cls-19" d="M35.89,142.21l3.3,1.31-3.3,1.3v-2.61"/><path class="cls-20" d="M32.23,143.66l3.66-1.45v2.61l-.36.14-3.3-1.3"/><rect class="cls-21" x="12.63" y="171.85" width="37" height="37" rx="6"/><path class="cls-22" d="M43.63,172.85a5,5,0,0,1,5,5v25a5,5,0,0,1-5,5h-25a5,5,0,0,1-5-5v-25a5,5,0,0,1,5-5h25m0-2h-25a7,7,0,0,0-7,7v25a7,7,0,0,0,7,7h25a7,7,0,0,0,7-7v-25a7,7,0,0,0-7-7Z"/><path class="cls-23" d="M45.8,181.85c-.45,0-.3.15-1.27.39a19.48,19.48,0,0,0-3.22.6c-3.13,1.32-3.76,5.81-6.61,7.42-2.13,1.2-4.28,1.3-6.21,1.9a11.43,11.43,0,0,0-3.81,2.21c-.89.77-.92,1.45-1.85,2.41s-4,0-5.31,1.6c.43.44.62.56,1.48.45-.18.33-1.22.61-1,1.11s2.74.87,5-.51c1.06-.65,1.91-1.58,3.57-1.8,2.15-.29,4.63.19,7.12.54a11.11,11.11,0,0,1-1.7,2.71c-.19.2.37.22,1,.1a10,10,0,0,0,2.81-1c1-.61,1.21-2.18,2.5-2.52a2.9,2.9,0,0,0,3.89.48c-1.07-.3-1.36-2.57-1-3.57s.68-2.46,1-3.71.5-3,1-3.72a8.79,8.79,0,0,1,2-2,2.89,2.89,0,0,0,1.22-2.47c0-.43-.23-.67-.64-.66Z"/><path class="cls-24" d="M18.44,199.84a6.44,6.44,0,0,0,3.94-.56,35.69,35.69,0,0,1,3.5-1.91c1.94-.62,4.06,0,6.12.13a8.32,8.32,0,0,0,1.5,0c.77-.47.75-2.24,1.5-2.4a8.55,8.55,0,0,1-2.1,5.41,6,6,0,0,0,4.49-3.43,12.13,12.13,0,0,0,.72-1.68c.32.25.14,1,.3,1.4,1.55-.86,2.43-2.82,3-4.81.67-2.3,1-4.63,1.39-5.31a5.93,5.93,0,0,1,1.7-1.5,2.7,2.7,0,0,0,1.41-1.91c-.73-.06-.9-.23-1-.6a2.07,2.07,0,0,1-1.07.26c-.33,0-.69,0-1.13,0-3.64.38-4.1,4.39-6.43,6.66a6.19,6.19,0,0,1-.55.47A11.78,11.78,0,0,1,33,191.46c-1.49.57-2.91.61-4.31,1.1A13,13,0,0,0,25.78,194c-.21.14-.41.29-.6.44a5.71,5.71,0,0,0-1.13,1.31,8.92,8.92,0,0,1-1.12,1.44c-.77.76-3.66.22-4.67.93a.72.72,0,0,0-.27.28,4.43,4.43,0,0,0,1.56.17c.09.6-1.31,1-1.11,1.24Z"/><path class="cls-24" d="M40.49,195.48a5.36,5.36,0,0,0,.8,2.41,2.49,2.49,0,0,1-2.21-.6C39.24,196.57,40.07,195.93,40.49,195.48Z"/><path class="cls-23" d="M41.51,184.45a.85.85,0,0,0,1.4-.8C42.11,183.58,41.65,183.85,41.51,184.45Z"/><path class="cls-23" d="M45.1,183.41a2.67,2.67,0,0,0-.4,1.39c0,.12-.09.21-.09,0a2.65,2.65,0,0,1,.39-1.43C45.1,183.22,45.15,183.29,45.1,183.41Z"/><path class="cls-23" d="M45,183.3a3.33,3.33,0,0,0-.61,1.5c0,.13-.12.21-.1,0a3.33,3.33,0,0,1,.62-1.54C45,183.11,45,183.19,45,183.3Z"/><path class="cls-23" d="M44.84,183.16a3.79,3.79,0,0,0-.91,1.58c0,.12-.13.19-.1,0a4.13,4.13,0,0,1,.91-1.62C44.86,183,44.91,183.05,44.84,183.16Z"/><path class="cls-23" d="M44.73,183a5.21,5.21,0,0,0-1.16,1.69c0,.12-.16.17-.1,0A5.27,5.27,0,0,1,44.64,183c.14-.13.17,0,.09.05Z"/><text class="cls-25" transform="translate(78.7 235.56)">CONTAINER</text><path class="cls-26" d="M40.12,106.73,33.39,100l-2.87,3.64,3.09,3.1a.73.73,0,0,1,0,1l-.89.89s.6.9.63,1a1.1,1.1,0,0,1-.22,1.23l-7,5.4c0,1.82,0,5.55,0,5.55l14-14A.73.73,0,0,0,40.12,106.73Z"/><path class="cls-27" d="M24.48,107.58a.73.73,0,0,1,0-1l.89-.9-.61-.88a1,1,0,0,1,.2-1.31l7-5.4V92.51h0l-14,14a.75.75,0,0,0,0,1l6.74,6.73,2.87-3.64Z"/><polygon class="cls-4" points="29.16 112.02 29.16 112.02 25.91 115.28 29.16 112.02"/><path class="cls-26" d="M35.55,95.89a.27.27,0,0,1,.23.14c.07.15,0,.3-.12.42l-6.17,7.83a.43.43,0,0,0,0,.45s3.33,4.83,3.45,5a.83.83,0,0,1-.16.94l-9.91,7.61a.5.5,0,0,1-.32.15.31.31,0,0,1-.22-.14c-.08-.15,0-.3.12-.43L28.6,110a.43.43,0,0,0,0-.45l-3.44-5a.73.73,0,0,1,.15-1L35.24,96a.45.45,0,0,1,.31-.14m0-.13a.65.65,0,0,0-.39.17l-9.92,7.61a.86.86,0,0,0-.17,1.16l3.44,5a.32.32,0,0,1,0,.3l-6.17,7.83a.53.53,0,0,0-.14.55.43.43,0,0,0,.33.22.74.74,0,0,0,.4-.17l9.92-7.62a1,1,0,0,0,.18-1.11c-.11-.17-3.44-5-3.44-5a.29.29,0,0,1,0-.3l6.17-7.83a.52.52,0,0,0,.13-.56.4.4,0,0,0-.34-.21Z"/><path class="cls-28" d="M32.67,109.74c.08.12.15.58-.05.73l-9.92,7.61a.38.38,0,0,1-.16.1s0-.06.08-.18l6.17-7.82a.68.68,0,0,0,0-.74l-3.44-5S32.59,109.62,32.67,109.74Z"/><path class="cls-29" d="M32.67,109.74l-3.39-4.87a.66.66,0,0,1,0-.74l6.16-7.83c.1-.11.12-.17.09-.17a.37.37,0,0,0-.16.09l-9.92,7.61a.49.49,0,0,0-.1.66Z"/><text class="cls-30" transform="translate(55.55 31.2)">Let’s Encrypt SSL</text><text class="cls-30" transform="translate(55.93 72.52)">Web App Firewall</text><text class="cls-30" transform="translate(54.88 111.34)">LiteSpeed Web Server</text><text class="cls-30" transform="translate(55 156.34)">Redis Object Cache</text><text class="cls-30" transform="translate(55.65 191.97)">MariaDB</text><text/></g></g></svg>