<svg xmlns="http://www.w3.org/2000/svg" viewBox="0 0 213.25 349.1"><defs><style>.cls-1{fill:#7889a8;}.cls-2{fill:#5b6b8d;}.cls-12,.cls-13,.cls-3{fill:#fff;}.cls-4{fill:#003a70;}.cls-5{fill:#ffa400;}.cls-6{fill:#912626;}.cls-7{fill:#c6302b;}.cls-8{fill:#621b1c;}.cls-9{fill:#9a2928;}.cls-10{fill:#002b64;}.cls-11{fill:#d77758;}.cls-12{font-size:12px;font-family:OpenSans-SemiBold, Open Sans;font-weight:600;}.cls-13{font-size:14px;font-family:Tahoma;}.cls-14{letter-spacing:0.01em;}.cls-15{letter-spacing:-0.03em;}.cls-16{letter-spacing:-0.01em;}.cls-17{letter-spacing:-0.02em;}.cls-18{fill:#556ae5;}.cls-19{fill:#009438;}.cls-20{fill:#fefefe;}.cls-21{letter-spacing:-0.04em;}.cls-22{letter-spacing:0em;}.cls-23{letter-spacing:-0.01em;}</style></defs><g id="Layer_2" data-name="Layer 2"><g id="Слой_1" data-name="Слой 1"><path class="cls-1" d="M206.25,142.84a5,5,0,0,1,5,5V342.1a5,5,0,0,1-5,5H7a5,5,0,0,1-5-5V147.84a5,5,0,0,1,5-5H206.25m0-2H7a7,7,0,0,0-7,7V342.1a7,7,0,0,0,7,7H206.25a7,7,0,0,0,7-7V147.84a7,7,0,0,0-7-7Z"/><path class="cls-2" d="M2,325.1H211.25a0,0,0,0,1,0,0v17a5,5,0,0,1-5,5H7a5,5,0,0,1-5-5v-17A0,0,0,0,1,2,325.1Z"/><path class="cls-3" d="M115.68,141.16h-1.35v-1.73a5.86,5.86,0,0,0-11.71,0v1.73h-1.39a1.12,1.12,0,0,0-1.13,1.13V153a1.11,1.11,0,0,0,1.13,1.12h14.45a1.11,1.11,0,0,0,1.13-1.12V142.29A1.16,1.16,0,0,0,115.68,141.16Zm-6.52,7v1.45a.74.74,0,0,1-1.48,0v-1.45a1.45,1.45,0,0,1-.74-1.3,1.48,1.48,0,1,1,3,0A1.38,1.38,0,0,1,109.16,148.18Zm-3.19-7v-1.73a2.51,2.51,0,0,1,5,0v1.73Z"/><path class="cls-3" d="M100.78,138.55a1,1,0,0,0-1-1H96.27a1,1,0,0,0,0,2.05h3.49A1,1,0,0,0,100.78,138.55Z"/><path class="cls-3" d="M101.6,133.83a.91.91,0,0,0,.63.24,1.2,1.2,0,0,0,.81-.38,1.06,1.06,0,0,0-.14-1.45L100.15,130a1,1,0,1,0-1.3,1.59Z"/><path class="cls-3" d="M108.47,131.68a1,1,0,0,0,1-1v-3.52a1,1,0,1,0-2,0v3.52A1,1,0,0,0,108.47,131.68Z"/><path class="cls-3" d="M114.68,134.07a1,1,0,0,0,.67-.24l2.75-2.26a1,1,0,0,0-1.31-1.59L114,132.24a1.06,1.06,0,0,0-.14,1.45A1,1,0,0,0,114.68,134.07Z"/><path class="cls-3" d="M120.64,137.53h-3.53a1,1,0,0,0,0,2.05h3.53a1,1,0,0,0,0-2.05Z"/><path class="cls-4" d="M115.68,141.16H101.23a1.12,1.12,0,0,0-1.13,1.13V153a1.11,1.11,0,0,0,1.13,1.12h14.45a1.11,1.11,0,0,0,1.13-1.12V142.29A1.16,1.16,0,0,0,115.68,141.16Zm-6.52,7v1.45a.74.74,0,0,1-1.48,0v-1.45a1.45,1.45,0,0,1-.74-1.3,1.48,1.48,0,1,1,3,0A1.38,1.38,0,0,1,109.16,148.18Z"/><path class="cls-5" d="M114.33,141.16H111v-1.73a2.51,2.51,0,0,0-5,0v1.73h-3.35v-1.73a5.86,5.86,0,0,1,11.71,0Z"/><path class="cls-5" d="M99.76,139.58H96.27a1,1,0,0,1,0-2.05h3.49a1,1,0,0,1,0,2.05Z"/><path class="cls-5" d="M102.23,134.07a.91.91,0,0,1-.63-.24l-2.75-2.26a1,1,0,1,1,1.3-1.59l2.75,2.26a1.06,1.06,0,0,1,.14,1.45A1.2,1.2,0,0,1,102.23,134.07Z"/><path class="cls-5" d="M108.47,131.68a1,1,0,0,1-1-1v-3.52a1,1,0,1,1,2,0v3.52A1,1,0,0,1,108.47,131.68Z"/><path class="cls-5" d="M114.68,134.07a1,1,0,0,1-.78-.38,1.06,1.06,0,0,1,.14-1.45l2.75-2.26a1,1,0,0,1,1.31,1.59l-2.75,2.26A1,1,0,0,1,114.68,134.07Z"/><path class="cls-5" d="M120.64,139.58h-3.53a1,1,0,0,1,0-2.05h3.53a1,1,0,0,1,0,2.05Z"/><path class="cls-6" d="M41.64,260.07c-1.29.68-8,3.44-9.43,4.18a3.19,3.19,0,0,1-3.36.2c-1.12-.54-8.27-3.42-9.55-4-.65-.31-1-.57-1-.81v-2.45s9.3-2,10.81-2.57a3.8,3.8,0,0,1,3.3-.09c1.27.47,8.91,1.85,10.18,2.31,0,0,0,2.19,0,2.42s-.29.51-1,.85"/><path class="cls-7" d="M41.64,257.63c-1.29.68-8,3.44-9.43,4.18a3.19,3.19,0,0,1-3.36.2c-1.12-.54-8.27-3.42-9.55-4s-1.32-1-.05-1.53,8.36-3.28,9.87-3.82a3.78,3.78,0,0,1,3.29-.09c1.28.47,8,3.12,9.22,3.58s1.31.85,0,1.52"/><path class="cls-6" d="M41.64,256.1c-1.29.68-8,3.44-9.43,4.18a3.19,3.19,0,0,1-3.36.2c-1.12-.54-8.27-3.42-9.55-4-.65-.31-1-.57-1-.81v-2.46s9.3-2,10.81-2.56a3.8,3.8,0,0,1,3.3-.09c1.27.47,8.91,1.85,10.18,2.31,0,0,0,2.19,0,2.42s-.29.51-1,.85"/><path class="cls-7" d="M41.64,253.66c-1.29.68-8,3.44-9.43,4.18a3.19,3.19,0,0,1-3.36.2c-1.12-.54-8.27-3.42-9.55-4s-1.32-1-.05-1.53,8.36-3.28,9.87-3.82a3.78,3.78,0,0,1,3.29-.09c1.28.46,8,3.12,9.22,3.58s1.31.85,0,1.52h0"/><path class="cls-6" d="M41.64,252c-1.29.68-8,3.44-9.43,4.18a3.19,3.19,0,0,1-3.36.2c-1.12-.54-8.27-3.42-9.55-4-.65-.31-1-.56-1-.81v-2.45s9.3-2,10.81-2.57a3.8,3.8,0,0,1,3.3-.09c1.27.47,8.91,1.85,10.18,2.31,0,0,0,2.19,0,2.42s-.29.51-1,.85"/><path class="cls-7" d="M41.64,249.54c-1.29.68-8,3.44-9.43,4.18a3.19,3.19,0,0,1-3.36.2c-1.12-.54-8.27-3.42-9.55-4s-1.32-1-.05-1.53,8.36-3.28,9.87-3.82a3.78,3.78,0,0,1,3.29-.09c1.28.47,8,3.12,9.22,3.58s1.31.85,0,1.52"/><path class="cls-3" d="M33.42,247.16l-2.09.21-.46,1.13-.76-1.26L27.7,247l1.8-.65-.54-1,1.68.66,1.59-.52-.43,1,1.62.61"/><path class="cls-3" d="M30.74,252.61,26.85,251l5.58-.86-1.69,2.47"/><path class="cls-3" d="M25.34,247.78c1.65,0,3,.52,3,1.16s-1.33,1.15-3,1.15-3-.51-3-1.15,1.33-1.16,3-1.16"/><path class="cls-8" d="M35.89,247.46l3.3,1.31-3.3,1.3v-2.61"/><path class="cls-9" d="M32.23,248.91l3.66-1.45v2.61l-.36.14-3.3-1.3"/><path class="cls-10" d="M45.8,287.11c-.45,0-.3.14-1.27.38a19.48,19.48,0,0,0-3.22.6c-3.13,1.32-3.76,5.81-6.61,7.42-2.13,1.2-4.28,1.3-6.21,1.9a11.43,11.43,0,0,0-3.81,2.21c-.89.77-.92,1.45-1.85,2.41s-4,0-5.31,1.6c.43.44.62.56,1.48.45-.18.33-1.22.62-1,1.11s2.74.87,5-.51c1.06-.65,1.91-1.58,3.57-1.8a28.28,28.28,0,0,1,7.12.54,11.11,11.11,0,0,1-1.7,2.71c-.19.2.37.22,1,.1a10,10,0,0,0,2.81-1c1-.61,1.21-2.18,2.5-2.52a2.9,2.9,0,0,0,3.89.48c-1.07-.3-1.36-2.57-1-3.57s.68-2.46,1-3.71.5-3,1-3.72a8.79,8.79,0,0,1,2-2,2.89,2.89,0,0,0,1.22-2.47c0-.43-.23-.67-.64-.65Z"/><path class="cls-11" d="M18.44,305.09a6.44,6.44,0,0,0,3.94-.56,35.69,35.69,0,0,1,3.5-1.91c1.94-.62,4.06,0,6.12.13a8.32,8.32,0,0,0,1.5,0c.77-.47.75-2.24,1.5-2.4a8.55,8.55,0,0,1-2.1,5.41,6,6,0,0,0,4.49-3.43,12.13,12.13,0,0,0,.72-1.68c.32.25.14,1,.3,1.4,1.55-.86,2.43-2.82,3-4.81.67-2.3,1-4.63,1.39-5.31a5.93,5.93,0,0,1,1.7-1.5,2.7,2.7,0,0,0,1.41-1.9c-.73-.07-.9-.24-1-.61a2.07,2.07,0,0,1-1.07.26c-.33,0-.69,0-1.13,0-3.64.38-4.1,4.39-6.43,6.66a6.19,6.19,0,0,1-.55.47A11.41,11.41,0,0,1,33,296.71c-1.49.57-2.91.61-4.31,1.1a13,13,0,0,0-2.91,1.47c-.21.14-.41.29-.6.44A5.55,5.55,0,0,0,24.05,301a9.32,9.32,0,0,1-1.12,1.43c-.77.76-3.66.22-4.67.93a.72.72,0,0,0-.27.28,4.43,4.43,0,0,0,1.56.17c.09.6-1.31,1-1.11,1.24Z"/><path class="cls-11" d="M40.49,300.73a5.36,5.36,0,0,0,.8,2.41,2.49,2.49,0,0,1-2.21-.6C39.24,301.83,40.07,301.18,40.49,300.73Z"/><path class="cls-10" d="M41.51,289.7a.85.85,0,0,0,1.4-.8C42.11,288.83,41.65,289.1,41.51,289.7Z"/><path class="cls-10" d="M45.1,288.66a2.67,2.67,0,0,0-.4,1.39c0,.12-.09.21-.09,0a2.65,2.65,0,0,1,.39-1.43C45.1,288.47,45.15,288.54,45.1,288.66Z"/><path class="cls-10" d="M45,288.55a3.33,3.33,0,0,0-.61,1.5c0,.13-.12.21-.1,0a3.33,3.33,0,0,1,.62-1.54C45,288.36,45,288.44,45,288.55Z"/><path class="cls-10" d="M44.84,288.41a3.79,3.79,0,0,0-.91,1.58c0,.12-.13.19-.1,0a4.13,4.13,0,0,1,.91-1.62C44.86,288.22,44.91,288.3,44.84,288.41Z"/><path class="cls-10" d="M44.73,288.25a5.21,5.21,0,0,0-1.16,1.69c0,.12-.16.17-.1,0a5.27,5.27,0,0,1,1.17-1.73c.14-.13.17-.05.09.05Z"/><text class="cls-12" transform="translate(75.7 340.81)">CONTAINER</text><text class="cls-13" transform="translate(55.55 174.45)">Le<tspan class="cls-14" x="14.33" y="0">t</tspan><tspan class="cls-15" x="19.14" y="0">’</tspan><tspan x="21.63" y="0">s Encrypt </tspan><tspan class="cls-16" x="83.19" y="0">S</tspan><tspan x="90.83" y="0">SL</tspan></text><text class="cls-13" transform="translate(55.79 258.59)"><tspan class="cls-17">R</tspan><tspan x="8.44" y="0">edis Object Cache</tspan></text><text class="cls-13" transform="translate(56.2 297.22)">MariaDB</text><text/><line class="cls-1" x1="89.32" y1="0.48" x2="89.32" y2="15.48"/><rect class="cls-1" x="88.82" y="0.48" width="1" height="15"/><polyline class="cls-1" points="88.65 14 86.32 14 89.32 19 92.32 14 89.99 14"/><polygon class="cls-1" points="89.32 19.97 85.44 13.5 88.65 13.5 88.65 14.5 87.2 14.5 89.32 18.03 91.44 14.5 89.99 14.5 89.99 13.5 93.2 13.5 89.32 19.97"/><line class="cls-1" x1="109.32" x2="109.32" y2="15"/><rect class="cls-1" x="108.82" width="1" height="15"/><polyline class="cls-1" points="108.65 14 106.32 14 109.32 19 112.32 14 109.99 14"/><polygon class="cls-1" points="109.32 19.97 105.44 13.5 108.65 13.5 108.65 14.5 107.2 14.5 109.32 18.03 111.44 14.5 109.99 14.5 109.99 13.5 113.2 13.5 109.32 19.97"/><line class="cls-1" x1="129.32" x2="129.32" y2="15"/><rect class="cls-1" x="128.82" width="1" height="15"/><polyline class="cls-1" points="128.65 14 126.32 14 129.32 19 132.32 14 129.99 14"/><polygon class="cls-1" points="129.32 19.97 125.44 13.5 128.65 13.5 128.65 14.5 127.2 14.5 129.32 18.03 131.44 14.5 129.99 14.5 129.99 13.5 133.2 13.5 129.32 19.97"/><path class="cls-18" d="M97.59,43.76A4.92,4.92,0,0,1,99,44a40,40,0,0,1,5.71-5.25,4.75,4.75,0,0,1-.14-1.14,5,5,0,0,1,.25-1.55,35.91,35.91,0,0,0-7.52-4.14,23.24,23.24,0,0,0-6.46,6,35.87,35.87,0,0,0,4.6,6.39A4.86,4.86,0,0,1,97.59,43.76Zm-4.9,4.9a5,5,0,0,1,.4-1.94,39.14,39.14,0,0,1-4.24-5.57,23,23,0,0,0,.79,22.09,39.37,39.37,0,0,1,4-11.63A4.88,4.88,0,0,1,92.69,48.66Zm16.8-16A4.84,4.84,0,0,1,112.83,34a38.87,38.87,0,0,1,8-2.48A23,23,0,0,0,101.31,30a38.64,38.64,0,0,1,5.7,3.43A4.85,4.85,0,0,1,109.49,32.7Zm7.32,23a4.89,4.89,0,0,1,1.27-1.64,35.67,35.67,0,0,0-6.68-12,4.83,4.83,0,0,1-1.91.39,4.89,4.89,0,0,1-2.84-.92,36.18,36.18,0,0,0-4.91,4.51,4.83,4.83,0,0,1,.74,2.58,5,5,0,0,1-.22,1.46A35.53,35.53,0,0,0,116.81,55.75Zm6.35,6.6c.07.93.1,1.86.1,2.81a39.67,39.67,0,0,1-.3,4.9,23.08,23.08,0,0,0,8.36-11.6,39,39,0,0,1-5.45.92A4.89,4.89,0,0,1,123.16,62.35ZM115.66,59a39.09,39.09,0,0,1-15.52-6.21,4.89,4.89,0,0,1-2.55.72,5.38,5.38,0,0,1-1-.1,35.34,35.34,0,0,0-4,13.71,23,23,0,0,0,7.86,5.51A39.2,39.2,0,0,1,115.66,59Zm9.18-24.61a35.75,35.75,0,0,0-10.48,2.67,4,4,0,0,1,0,.49,4.86,4.86,0,0,1-.51,2.15A39.32,39.32,0,0,1,121.31,53a4.9,4.9,0,0,1,4.42,3,36.26,36.26,0,0,0,6.45-1.26,24.41,24.41,0,0,0,.22-3.22A22.93,22.93,0,0,0,124.84,34.43Zm-6.71,27.22a35.77,35.77,0,0,0-14.31,12.14,23,23,0,0,0,15.29-1.46,35.37,35.37,0,0,0,.73-7.17c0-.89,0-1.77-.11-2.64A5,5,0,0,1,118.13,61.65Z"/><path class="cls-18" d="M73.38,84.11a2.83,2.83,0,0,1-.9,2.25,3.83,3.83,0,0,1-2.57.78H69v3.49H67.55V81.28h2.54a3.66,3.66,0,0,1,2.47.72A2.64,2.64,0,0,1,73.38,84.11ZM69,85.85h.77a2.62,2.62,0,0,0,1.62-.41A1.82,1.82,0,0,0,71.44,83a2.18,2.18,0,0,0-1.45-.4H69Z"/><path class="cls-18" d="M78.36,83.43a2.83,2.83,0,0,1,.71.07l-.14,1.4a2.59,2.59,0,0,0-.63-.08,1.76,1.76,0,0,0-1.37.59,2.21,2.21,0,0,0-.53,1.53v3.69H75V83.56H76.1l.18,1.25h.07a2.77,2.77,0,0,1,.87-1A2,2,0,0,1,78.36,83.43Z"/><path class="cls-18" d="M83.21,90.76a3.11,3.11,0,0,1-2.43-1,3.82,3.82,0,0,1-.88-2.65,4.19,4.19,0,0,1,.82-2.73,2.72,2.72,0,0,1,2.23-1,2.68,2.68,0,0,1,2.08.85,3.38,3.38,0,0,1,.77,2.34v.82H81.36A2.42,2.42,0,0,0,81.89,89a1.74,1.74,0,0,0,1.39.55,5.29,5.29,0,0,0,1.09-.11,5.94,5.94,0,0,0,1.1-.4v1.22a4,4,0,0,1-1,.37A5.54,5.54,0,0,1,83.21,90.76ZM83,84.57a1.38,1.38,0,0,0-1.08.45,2.27,2.27,0,0,0-.48,1.33h3A2,2,0,0,0,84,85,1.33,1.33,0,0,0,83,84.57Z"/><path class="cls-18" d="M93,90.63H91.59V86.27a2.1,2.1,0,0,0-.28-1.21,1.05,1.05,0,0,0-.91-.4,1.35,1.35,0,0,0-1.2.57,3.5,3.5,0,0,0-.38,1.88v3.52H87.4V83.56h1.11l.2.93h.07a1.91,1.91,0,0,1,.81-.78,2.4,2.4,0,0,1,1.16-.28,2,2,0,0,1,2,1.11h.1a2,2,0,0,1,.83-.81,2.44,2.44,0,0,1,1.23-.3,2.17,2.17,0,0,1,1.73.64,2.93,2.93,0,0,1,.55,2v4.61H95.8V86.27a2.1,2.1,0,0,0-.29-1.21,1,1,0,0,0-.91-.4,1.34,1.34,0,0,0-1.2.55A2.89,2.89,0,0,0,93,86.89Z"/><path class="cls-18" d="M99.11,81.69a.89.89,0,0,1,.2-.62.78.78,0,0,1,.6-.22.75.75,0,0,1,.58.22,1,1,0,0,1,0,1.22.75.75,0,0,1-.58.22.78.78,0,0,1-.6-.22A.89.89,0,0,1,99.11,81.69Zm1.5,8.94H99.19V83.56h1.42Z"/><path class="cls-18" d="M107.32,90.63l-.2-.92h-.07a2,2,0,0,1-.84.77,2.61,2.61,0,0,1-1.24.28,2.35,2.35,0,0,1-1.81-.64,2.78,2.78,0,0,1-.59-1.94V83.56H104v4.36a2,2,0,0,0,.32,1.22,1.16,1.16,0,0,0,1,.41A1.52,1.52,0,0,0,106.6,89a3.27,3.27,0,0,0,.42-1.9V83.56h1.42v7.07Z"/><path class="cls-18" d="M116.06,90.63h-1.42V86.27a2.1,2.1,0,0,0-.28-1.21,1.05,1.05,0,0,0-.91-.4,1.35,1.35,0,0,0-1.2.57,3.5,3.5,0,0,0-.38,1.88v3.52h-1.42V83.56h1.11l.2.93h.07a1.85,1.85,0,0,1,.81-.78,2.36,2.36,0,0,1,1.15-.28,2,2,0,0,1,2,1.11h.09a2.11,2.11,0,0,1,.84-.81,2.42,2.42,0,0,1,1.22-.3,2.18,2.18,0,0,1,1.74.64,3,3,0,0,1,.55,2v4.61h-1.42V86.27a2.1,2.1,0,0,0-.29-1.21,1.05,1.05,0,0,0-.91-.4,1.34,1.34,0,0,0-1.2.55,2.89,2.89,0,0,0-.39,1.68Z"/><path class="cls-18" d="M129.34,82.46a2.31,2.31,0,0,0-2,.93,5.17,5.17,0,0,0,0,5.18,2.34,2.34,0,0,0,2,.89,4.83,4.83,0,0,0,1.08-.12c.35-.08.71-.18,1.09-.3v1.31a6.4,6.4,0,0,1-2.35.41,3.65,3.65,0,0,1-3-1.24,5.49,5.49,0,0,1-1-3.56,6.14,6.14,0,0,1,.5-2.55,3.76,3.76,0,0,1,1.46-1.68,4.14,4.14,0,0,1,2.23-.58,5.26,5.26,0,0,1,2.49.6L131.32,83a6.61,6.61,0,0,0-.94-.39A3.29,3.29,0,0,0,129.34,82.46Z"/><path class="cls-18" d="M140.56,85.87a4.83,4.83,0,0,1-1.21,3.54,4.64,4.64,0,0,1-3.48,1.22h-2.46V81.28h2.72a4.32,4.32,0,0,1,3.27,1.21A4.67,4.67,0,0,1,140.56,85.87Zm-1.51,0q0-3.36-3-3.36h-1.24v6.79h1Q139.05,89.35,139.05,85.92Z"/><path class="cls-18" d="M149.79,90.63H148l-4.33-7.45h0l0,.42c.06.79.09,1.52.09,2.17v4.86h-1.31V81.28h1.75l4.31,7.42h0c0-.1,0-.46-.05-1.07s0-1.1,0-1.45v-4.9h1.32Z"/><rect class="cls-18" x="108.25" y="100.84" width="1" height="15.83"/><polyline class="cls-18" points="108.08 115.17 105.75 115.17 108.75 120.17 111.75 115.17 109.42 115.17"/><path class="cls-19" d="M29.73,227.49a1.21,1.21,0,0,1-.59-.16l-11.35-6.51a1.09,1.09,0,0,1-.56-1V206.71a1,1,0,0,1,.61-1l11.31-6.54a1.17,1.17,0,0,1,.58-.18,1,1,0,0,1,.55.16l11.39,6.56a1.11,1.11,0,0,1,.56,1v13.12a1.09,1.09,0,0,1-.56,1l-9.78,5.66c-.51.31-1,.61-1.56.9A1.25,1.25,0,0,1,29.73,227.49Z"/><path class="cls-3" d="M29.73,199.49a.6.6,0,0,1,.29.08l11.4,6.58a.61.61,0,0,1,.31.56v13.12a.61.61,0,0,1-.31.56L31.64,226c-.52.31-1,.6-1.55.89a.66.66,0,0,1-.69,0L18,220.39a.58.58,0,0,1-.31-.54V206.71a.59.59,0,0,1,.33-.56L29.4,199.6a.65.65,0,0,1,.33-.11m0-1a1.62,1.62,0,0,0-.88.26l-11.26,6.52a1.58,1.58,0,0,0-.86,1.46v13.12a1.57,1.57,0,0,0,.78,1.38L28.9,227.8a1.63,1.63,0,0,0,.84.23,1.72,1.72,0,0,0,.83-.22c.53-.29,1.06-.6,1.58-.91l9.77-5.65a1.62,1.62,0,0,0,.8-1.48V206.71a1.59,1.59,0,0,0-.81-1.43l-11.37-6.57A1.48,1.48,0,0,0,29.73,198.49Z"/><path class="cls-20" d="M25.85,210.86v7.63a1.59,1.59,0,0,1-1.55,1.61h-.06a1.49,1.49,0,0,1-1.29-.74,1.36,1.36,0,0,1-.2-.76V208a1.53,1.53,0,0,1,1-1.5,2.37,2.37,0,0,1,1.7,0,2.66,2.66,0,0,1,1.3.94l6.78,8.13a.88.88,0,0,0,.1.13v-7.75A1.48,1.48,0,0,1,35,206.41a1.54,1.54,0,0,1,1.76,1.28v10.89a1.43,1.43,0,0,1-.79,1.33,2.24,2.24,0,0,1-1.22.23,2.74,2.74,0,0,1-1.68-.71,7.8,7.8,0,0,1-.66-.76l-6.48-7.74a.1.1,0,0,0,0-.08Z"/><text class="cls-13" transform="translate(56.34 215.12)">NGINX <tspan class="cls-21" x="45.76" y="0">W</tspan><tspan x="57.87" y="0">eb </tspan><tspan class="cls-22" x="77.35" y="0">S</tspan><tspan x="85.18" y="0">er</tspan><tspan class="cls-23" x="97.59" y="0">v</tspan><tspan x="104.45" y="0">er</tspan></text></g></g></svg>