<svg xmlns="http://www.w3.org/2000/svg" viewBox="0 0 213.25 389.88"><defs><style>.cls-1{fill:#5b6b8d;}.cls-2{fill:#7889a8;}.cls-20,.cls-25,.cls-3{fill:#fff;}.cls-4{fill:#003a70;}.cls-5{fill:#ffa400;}.cls-6{fill:#58596c;}.cls-7{fill:#ff5856;}.cls-8{fill:#db4040;}.cls-9{fill:#cc3636;}.cls-10{fill:#ffdc67;}.cls-11{fill:#ffb456;}.cls-12{fill:#fc974d;}.cls-13{fill:#f47f31;}.cls-14{fill:#912626;}.cls-15{fill:#c6302b;}.cls-16{fill:#621b1c;}.cls-17{fill:#9a2928;}.cls-18{fill:#002b64;}.cls-19{fill:#d77758;}.cls-20{font-size:12px;font-family:OpenSans-SemiBold, Open Sans;font-weight:600;}.cls-21{fill:#5e8cda;}.cls-22{fill:#093071;}.cls-23{fill:#f5cd21;}.cls-24{fill:#fddd75;}.cls-25{font-size:14px;font-family:Tahoma;}.cls-26{letter-spacing:0.01em;}.cls-27{letter-spacing:-0.03em;}.cls-28{letter-spacing:-0.01em;}.cls-29{letter-spacing:-0.04em;}.cls-30{letter-spacing:0em;}.cls-31{letter-spacing:-0.01em;}.cls-32{letter-spacing:0em;}.cls-33{letter-spacing:0em;}.cls-34{letter-spacing:-0.01em;}.cls-35{letter-spacing:-0.02em;}.cls-36{fill:#556ae5;}</style></defs><g id="Layer_2" data-name="Layer 2"><g id="Слой_1" data-name="Слой 1"><path class="cls-1" d="M2.33,366.18h209a0,0,0,0,1,0,0v17a5,5,0,0,1-5,5H7.33a5,5,0,0,1-5-5v-17A0,0,0,0,1,2.33,366.18Z"/><path class="cls-2" d="M206.25,148a5,5,0,0,1,5,5V382.88a5,5,0,0,1-5,5H7a5,5,0,0,1-5-5V153a5,5,0,0,1,5-5H206.25m0-2H7a7,7,0,0,0-7,7V382.88a7,7,0,0,0,7,7H206.25a7,7,0,0,0,7-7V153a7,7,0,0,0-7-7Z"/><path class="cls-3" d="M114.68,143.94h-1.35v-1.73a5.86,5.86,0,0,0-11.71,0v1.73h-1.39a1.11,1.11,0,0,0-1.13,1.13v10.68a1.11,1.11,0,0,0,1.13,1.13h14.45a1.11,1.11,0,0,0,1.13-1.13V145.07A1.15,1.15,0,0,0,114.68,143.94Zm-6.52,7v1.44a.74.74,0,1,1-1.48,0V151a1.46,1.46,0,0,1-.74-1.31,1.48,1.48,0,1,1,3,0A1.38,1.38,0,0,1,108.16,151Zm-3.19-7v-1.73a2.51,2.51,0,0,1,5,0v1.73Z"/><path class="cls-3" d="M99.78,141.33a1,1,0,0,0-1-1H95.27a1,1,0,0,0,0,2h3.49A1,1,0,0,0,99.78,141.33Z"/><path class="cls-3" d="M100.6,136.61a.91.91,0,0,0,.63.24,1.15,1.15,0,0,0,.81-.39,1,1,0,0,0-.14-1.44l-2.75-2.26a1,1,0,1,0-1.3,1.59Z"/><path class="cls-3" d="M107.47,134.45a1,1,0,0,0,1-1v-3.52a1,1,0,1,0-2,0v3.52A1,1,0,0,0,107.47,134.45Z"/><path class="cls-3" d="M113.68,136.85a1,1,0,0,0,.67-.24l2.75-2.26a1,1,0,0,0-1.31-1.59L113,135a1,1,0,0,0-.14,1.44A1,1,0,0,0,113.68,136.85Z"/><path class="cls-3" d="M119.64,140.31h-3.53a1,1,0,0,0,0,2h3.53a1,1,0,0,0,0-2Z"/><path class="cls-4" d="M114.68,143.94H100.23a1.11,1.11,0,0,0-1.13,1.13v10.68a1.11,1.11,0,0,0,1.13,1.13h14.45a1.11,1.11,0,0,0,1.13-1.13V145.07A1.15,1.15,0,0,0,114.68,143.94Zm-6.52,7v1.44a.74.74,0,1,1-1.48,0V151a1.46,1.46,0,0,1-.74-1.31,1.48,1.48,0,1,1,3,0A1.38,1.38,0,0,1,108.16,151Z"/><path class="cls-5" d="M113.33,143.94H110v-1.73a2.51,2.51,0,0,0-5,0v1.73h-3.35v-1.73a5.86,5.86,0,0,1,11.71,0Z"/><path class="cls-5" d="M98.76,142.35H95.27a1,1,0,0,1,0-2h3.49a1,1,0,0,1,0,2Z"/><path class="cls-5" d="M101.23,136.85a.91.91,0,0,1-.63-.24l-2.75-2.26a1,1,0,1,1,1.3-1.59L101.9,135a1,1,0,0,1,.14,1.44A1.17,1.17,0,0,1,101.23,136.85Z"/><path class="cls-5" d="M107.47,134.45a1,1,0,0,1-1-1v-3.52a1,1,0,1,1,2,0v3.52A1,1,0,0,1,107.47,134.45Z"/><path class="cls-5" d="M113.68,136.85a1,1,0,0,1-.78-.39A1,1,0,0,1,113,135l2.75-2.26a1,1,0,0,1,1.31,1.59l-2.75,2.26A1,1,0,0,1,113.68,136.85Z"/><path class="cls-5" d="M119.64,142.35h-3.53a1,1,0,0,1,0-2h3.53a1,1,0,0,1,0,2Z"/><path class="cls-6" d="M41,213.4a11.54,11.54,0,1,1-11.54-11.54A11.54,11.54,0,0,1,41,213.4Z"/><path class="cls-7" d="M40.14,209H18.76a11.55,11.55,0,1,0,21.38,0Z"/><path class="cls-8" d="M41,212.73c0-.27,0-.54-.07-.81h-7v-2.48h6.37q-.15-.42-.33-.81h-21q-.18.39-.33.81H25v2.48H18c0,.27-.06.54-.07.81h3v2.48H18.05c0,.27.1.54.16.81H25v2.48H19.09q.21.41.45.81h1.38v1.86a12.42,12.42,0,0,0,1.56,1.43H25V224l.81.31V222.6h7.32v1.75l.81-.31V222.6h2.5A12.42,12.42,0,0,0,38,221.17v-1.86h1.38c.16-.27.31-.54.44-.81H33.92V216h6.77c.06-.27.12-.54.16-.81H38v-2.48Zm-15.18-3.29h7.32v2.48H25.79Zm-4.06,5.77v-2.48H29v2.48ZM29,221.79H21.73v-2.48H29Zm-3.25-3.29V216h7.32v2.48Zm11.38.81v2.48H29.86v-2.48Zm0-4.1H29.86v-2.48h7.31Z"/><path class="cls-8" d="M23.27,209.22a1.23,1.23,0,0,1,0-.19H18.76a11.58,11.58,0,0,0,4.51,14.12Z"/><path class="cls-9" d="M23.27,216v-.81H21.73v-2.48h1.54v-.81H18c0,.27-.06.54-.07.81h3v2.48H18.05c0,.27.1.54.16.81Z"/><path class="cls-9" d="M23.27,209.22a.87.87,0,0,1,.23-.59H18.94q-.18.39-.33.81h4.66Z"/><path class="cls-9" d="M23.27,221.79H21.73v-2.48h1.54v-.81H19.09q.21.41.45.81h1.38v1.86a12.42,12.42,0,0,0,1.56,1.43h.79Z"/><path class="cls-10" d="M36.13,212.18l-1.69.53a3.58,3.58,0,0,0,.19-4.54,4.94,4.94,0,0,1-1.08-2.66.3.3,0,0,0-.53-.13,7.24,7.24,0,0,0-.84,1.79h0a4.88,4.88,0,0,0-1.36-3.66,3.41,3.41,0,0,1-1-3,.28.28,0,0,0-.12-.3.29.29,0,0,0-.32,0,8.92,8.92,0,0,0-4.2,9.05h0c0,.26-.15.18-.21.13a6.94,6.94,0,0,1-1.13-1.2.29.29,0,0,0-.5.08A8.88,8.88,0,0,0,24,215.7a6.26,6.26,0,0,0,5.62,2.82c4.2,0,6.5-2.54,6.93-6A.29.29,0,0,0,36.13,212.18Z"/><path class="cls-11" d="M24.86,209.55a.33.33,0,0,1,.11-.15l0,0a6.94,6.94,0,0,1-1.13-1.2.29.29,0,0,0-.5.08c-1.2,3.35-.41,7.67,2.7,9.42A8.57,8.57,0,0,1,24.86,209.55Z"/><path class="cls-11" d="M25.15,209.25a.25.25,0,0,1,0,.1.28.28,0,0,1,.23.12,7.32,7.32,0,0,0,1.13,1.2c.06.05.21.13.21-.13h0a8.9,8.9,0,0,1,3.23-8.37,3.15,3.15,0,0,1-.15-1.67.28.28,0,0,0-.12-.3.29.29,0,0,0-.32,0,8.92,8.92,0,0,0-4.2,9.05Z"/><path class="cls-11" d="M33.34,214.86l-1,.32a2.15,2.15,0,0,0,.1-2.71,3,3,0,0,1-.64-1.58.17.17,0,0,0-.31-.07,4.07,4.07,0,0,0-.5,1.06h0a2.92,2.92,0,0,0-.81-2.19,2,2,0,0,1-.58-1.78.2.2,0,0,0-.07-.18.18.18,0,0,0-.19,0,5.3,5.3,0,0,0-2.5,5.4h0c0,.15-.11.08-.13.07a4,4,0,0,1-.67-.72.17.17,0,0,0-.3.05c-.77,2.16-.16,4.91,2,5.79a7.89,7.89,0,0,0,1.85.2,9.52,9.52,0,0,0,1.34-.09,3.79,3.79,0,0,0,2.65-3.38A.17.17,0,0,0,33.34,214.86Z"/><path class="cls-12" d="M27,217.75a5.34,5.34,0,0,1-.38-4.43.22.22,0,0,1,.09-.1l-.05,0a4,4,0,0,1-.67-.72.17.17,0,0,0-.3.05c-.71,2-.25,4.54,1.59,5.59C27.2,218,27.11,217.88,27,217.75Z"/><path class="cls-12" d="M26.81,213.13a.35.35,0,0,1,0,.07.16.16,0,0,1,.14.07,4.5,4.5,0,0,0,.68.72s.13.08.12-.07a5.32,5.32,0,0,1,1.92-5,1.88,1.88,0,0,1-.09-1,.2.2,0,0,0-.07-.18.18.18,0,0,0-.19,0,5.3,5.3,0,0,0-2.5,5.4Z"/><path class="cls-12" d="M29.69,214.42a.49.49,0,0,0-.64,0,2.7,2.7,0,0,0,0,4.06l0,0h.56a.1.1,0,0,0,.05,0,2.7,2.7,0,0,0,0-4.06Z"/><path class="cls-13" d="M29.22,216.53a2.7,2.7,0,0,1,.73-1.86l-.26-.25a.49.49,0,0,0-.64,0,2.7,2.7,0,0,0,0,4.06l0,0h.56a.1.1,0,0,0,.05,0,1.54,1.54,0,0,0,.19-.17A2.71,2.71,0,0,1,29.22,216.53Z"/><path class="cls-14" d="M41.64,300.85c-1.29.68-8,3.44-9.43,4.18a3.19,3.19,0,0,1-3.36.2c-1.12-.54-8.27-3.43-9.55-4-.65-.31-1-.57-1-.81v-2.46s9.3-2,10.81-2.56a3.8,3.8,0,0,1,3.3-.09c1.27.47,8.91,1.85,10.18,2.31,0,0,0,2.19,0,2.42s-.29.51-1,.85"/><path class="cls-15" d="M41.64,298.41c-1.29.68-8,3.44-9.43,4.18a3.19,3.19,0,0,1-3.36.2c-1.12-.54-8.27-3.43-9.55-4s-1.32-1-.05-1.53,8.36-3.29,9.87-3.82a3.8,3.8,0,0,1,3.3-.09c1.27.46,7.95,3.12,9.21,3.58s1.31.85,0,1.52"/><path class="cls-14" d="M41.64,296.88c-1.29.68-8,3.44-9.43,4.18a3.19,3.19,0,0,1-3.36.2c-1.12-.54-8.27-3.43-9.55-4-.65-.31-1-.57-1-.81V294s9.3-2,10.81-2.56a3.8,3.8,0,0,1,3.3-.09c1.27.47,8.91,1.84,10.18,2.31,0,0,0,2.19,0,2.42s-.29.51-1,.85"/><path class="cls-15" d="M41.64,294.44c-1.29.68-8,3.44-9.43,4.18a3.19,3.19,0,0,1-3.36.2c-1.12-.54-8.27-3.43-9.55-4s-1.32-1-.05-1.53,8.36-3.29,9.87-3.83a3.87,3.87,0,0,1,3.3-.09c1.27.47,7.95,3.13,9.21,3.59s1.31.84,0,1.52h0"/><path class="cls-14" d="M41.64,292.76c-1.29.68-8,3.44-9.43,4.18a3.19,3.19,0,0,1-3.36.2c-1.12-.54-8.27-3.43-9.55-4-.65-.31-1-.57-1-.81v-2.46s9.3-2,10.81-2.56a3.8,3.8,0,0,1,3.3-.09c1.27.47,8.91,1.85,10.18,2.31,0,0,0,2.19,0,2.42s-.29.51-1,.85"/><path class="cls-15" d="M41.64,290.32c-1.29.68-8,3.44-9.43,4.18a3.19,3.19,0,0,1-3.36.2c-1.12-.54-8.27-3.43-9.55-4s-1.32-1-.05-1.53,8.36-3.29,9.87-3.82a3.8,3.8,0,0,1,3.3-.09c1.27.46,7.95,3.12,9.21,3.58s1.31.85,0,1.52"/><path class="cls-3" d="M33.42,287.93l-2.09.22-.46,1.13L30.11,288l-2.41-.22,1.8-.64-.54-1,1.68.66,1.59-.52-.43,1,1.62.6"/><path class="cls-3" d="M30.74,293.39l-3.89-1.62,5.58-.85-1.69,2.47"/><path class="cls-3" d="M25.34,288.56c1.65,0,3,.52,3,1.16s-1.33,1.15-3,1.15-3-.52-3-1.15,1.33-1.16,3-1.16"/><path class="cls-16" d="M35.89,288.24l3.3,1.31-3.3,1.3v-2.61"/><path class="cls-17" d="M32.23,289.69l3.66-1.45v2.61l-.36.14-3.3-1.3"/><path class="cls-18" d="M45.8,327.88c-.45,0-.3.15-1.27.38a19.54,19.54,0,0,0-3.22.61c-3.13,1.31-3.76,5.81-6.61,7.42-2.13,1.2-4.28,1.3-6.21,1.9a11.43,11.43,0,0,0-3.81,2.21c-.89.77-.92,1.44-1.85,2.41s-4,0-5.31,1.6c.43.44.62.56,1.48.45-.18.33-1.22.61-1,1.11s2.74.87,5-.52c1.06-.64,1.91-1.57,3.57-1.79a27.38,27.38,0,0,1,7.12.54,11.3,11.3,0,0,1-1.7,2.71c-.19.2.37.22,1,.1a10.32,10.32,0,0,0,2.81-1c1-.62,1.21-2.19,2.5-2.53a2.89,2.89,0,0,0,3.89.49c-1.07-.31-1.36-2.57-1-3.57s.68-2.46,1-3.71.5-3,1-3.72a8.79,8.79,0,0,1,2-2,2.9,2.9,0,0,0,1.22-2.47c0-.43-.23-.67-.64-.66Z"/><path class="cls-19" d="M18.44,345.87a6.37,6.37,0,0,0,3.94-.57c1.11-.48,2.19-1.48,3.5-1.9,1.94-.62,4.06,0,6.12.13a8.32,8.32,0,0,0,1.5,0c.77-.47.75-2.24,1.5-2.4a8.55,8.55,0,0,1-2.1,5.41,6,6,0,0,0,4.49-3.43,12.13,12.13,0,0,0,.72-1.68c.32.24.14,1,.3,1.4,1.55-.86,2.43-2.82,3-4.81.67-2.3,1-4.63,1.39-5.31a5.93,5.93,0,0,1,1.7-1.5,2.72,2.72,0,0,0,1.41-1.91c-.73-.06-.9-.23-1-.6a2.07,2.07,0,0,1-1.07.26c-.33,0-.69,0-1.13,0-3.64.38-4.1,4.39-6.43,6.66a4.79,4.79,0,0,1-.55.46,11.44,11.44,0,0,1-2.74,1.4c-1.49.57-2.91.61-4.31,1.1a13,13,0,0,0-2.91,1.46l-.6.45a5.71,5.71,0,0,0-1.13,1.31,8.92,8.92,0,0,1-1.12,1.44c-.77.76-3.66.22-4.67.92a.82.82,0,0,0-.27.29,4.43,4.43,0,0,0,1.56.17c.09.6-1.31,1-1.11,1.24Z"/><path class="cls-19" d="M40.49,341.51a5.36,5.36,0,0,0,.8,2.41,2.47,2.47,0,0,1-2.21-.61C39.24,342.6,40.07,342,40.49,341.51Z"/><path class="cls-18" d="M41.51,330.48a.86.86,0,0,0,1.4-.8C42.11,329.61,41.65,329.88,41.51,330.48Z"/><path class="cls-18" d="M45.1,329.44a2.63,2.63,0,0,0-.4,1.39c0,.12-.09.21-.09,0a2.71,2.71,0,0,1,.39-1.43C45.1,329.25,45.15,329.32,45.1,329.44Z"/><path class="cls-18" d="M45,329.33a3.23,3.23,0,0,0-.61,1.5c0,.13-.12.2-.1,0a3.28,3.28,0,0,1,.62-1.54C45,329.14,45,329.21,45,329.33Z"/><path class="cls-18" d="M44.84,329.19a3.79,3.79,0,0,0-.91,1.58c0,.12-.13.19-.1,0a4.06,4.06,0,0,1,.91-1.62C44.86,329,44.91,329.08,44.84,329.19Z"/><path class="cls-18" d="M44.73,329a5.21,5.21,0,0,0-1.16,1.69c0,.12-.16.17-.1,0A5.44,5.44,0,0,1,44.64,329c.14-.13.17,0,.09.06Z"/><text class="cls-20" transform="translate(75.7 382.59)">CONTAINER</text><path class="cls-21" d="M40.12,252.76,33.39,246l-2.87,3.64,3.09,3.1a.72.72,0,0,1,0,1l-.89.9s.6.9.63,1a1.1,1.1,0,0,1-.22,1.23l-7,5.4c0,1.82,0,5.54,0,5.55l14-14A.72.72,0,0,0,40.12,252.76Z"/><path class="cls-22" d="M24.48,253.6a.72.72,0,0,1,0-1l.89-.9-.61-.88a1,1,0,0,1,.2-1.31l7-5.4v-5.54h0l-14,14a.75.75,0,0,0,0,1l6.74,6.73,2.87-3.64Z"/><polygon class="cls-3" points="29.16 258.05 29.16 258.05 25.91 261.31 29.16 258.05"/><path class="cls-21" d="M35.55,241.91a.26.26,0,0,1,.23.15c.07.15,0,.29-.12.42l-6.17,7.83a.43.43,0,0,0,0,.45l3.45,5a.83.83,0,0,1-.16.94l-9.91,7.61a.5.5,0,0,1-.32.15.29.29,0,0,1-.22-.15c-.07-.15,0-.29.12-.42l6.17-7.82a.45.45,0,0,0,0-.46l-3.44-4.95a.72.72,0,0,1,.15-1l9.92-7.61c.16-.13.24-.15.31-.15m0-.12a.65.65,0,0,0-.39.17l-9.92,7.61a.86.86,0,0,0-.17,1.16l3.44,5a.32.32,0,0,1,0,.3l-6.17,7.82c-.08.11-.25.33-.13.56a.37.37,0,0,0,.32.21.62.62,0,0,0,.4-.17l9.92-7.61a1,1,0,0,0,.18-1.11c-.11-.17-3.44-5-3.44-5a.29.29,0,0,1,0-.3l6.17-7.82a.53.53,0,0,0,.13-.56.38.38,0,0,0-.34-.21Z"/><path class="cls-23" d="M32.67,255.77c.08.12.15.58-.05.73l-9.92,7.61a.38.38,0,0,1-.16.1s0-.06.08-.18l6.17-7.82a.68.68,0,0,0,0-.74l-3.44-4.95S32.59,255.65,32.67,255.77Z"/><path class="cls-24" d="M32.67,255.77l-3.39-4.88a.65.65,0,0,1,0-.73l6.16-7.83c.1-.12.12-.17.09-.17a.28.28,0,0,0-.16.09l-9.92,7.61a.49.49,0,0,0-.1.66Z"/><text class="cls-25" transform="translate(55.55 177.23)">Le<tspan class="cls-26" x="14.33" y="0">t</tspan><tspan class="cls-27" x="19.14" y="0">’</tspan><tspan x="21.63" y="0">s Encrypt </tspan><tspan class="cls-28" x="83.19" y="0">S</tspan><tspan x="90.83" y="0">SL</tspan></text><text class="cls-25" transform="translate(55.93 218.55)"><tspan class="cls-29">W</tspan><tspan x="12.11" y="0">eb App Fi</tspan><tspan class="cls-30" x="70.33" y="0">r</tspan><tspan x="75.31" y="0">e</tspan><tspan class="cls-31" x="82.68" y="0">w</tspan><tspan x="92.95" y="0">a</tspan><tspan class="cls-32" x="100.3" y="0">l</tspan><tspan x="103.54" y="0">l</tspan></text><text class="cls-25" transform="translate(55.54 257.36)">L<tspan class="cls-33" x="6.97" y="0">i</tspan><tspan x="10.19" y="0">teSpeed </tspan><tspan class="cls-29" x="64.63" y="0">W</tspan><tspan x="76.74" y="0">eb </tspan><tspan class="cls-33" x="96.22" y="0">S</tspan><tspan x="104.05" y="0">er</tspan><tspan class="cls-34" x="116.46" y="0">v</tspan><tspan x="123.33" y="0">er</tspan></text><text class="cls-25" transform="translate(55.79 299.36)"><tspan class="cls-35">R</tspan><tspan x="8.44" y="0">edis Object Cache</tspan></text><text class="cls-25" transform="translate(56.2 338)">MariaDB</text><text/><line class="cls-2" x1="87.91" y1="0.48" x2="87.91" y2="15.48"/><rect class="cls-2" x="87.41" y="0.48" width="1" height="15"/><polyline class="cls-2" points="87.25 14 84.91 14 87.91 19 90.91 14 88.58 14"/><polygon class="cls-2" points="87.91 19.97 84.03 13.5 87.25 13.5 87.25 14.5 85.8 14.5 87.91 18.03 90.03 14.5 88.58 14.5 88.58 13.5 91.8 13.5 87.91 19.97"/><line class="cls-2" x1="107.91" x2="107.91" y2="15"/><rect class="cls-2" x="107.41" width="1" height="15"/><polyline class="cls-2" points="107.25 14 104.91 14 107.91 19 110.91 14 108.58 14"/><polygon class="cls-2" points="107.91 19.97 104.03 13.5 107.25 13.5 107.25 14.5 105.8 14.5 107.91 18.03 110.03 14.5 108.58 14.5 108.58 13.5 111.8 13.5 107.91 19.97"/><line class="cls-2" x1="127.91" x2="127.91" y2="15"/><rect class="cls-2" x="127.41" width="1" height="15"/><polyline class="cls-2" points="127.25 14 124.91 14 127.91 19 130.91 14 128.58 14"/><polygon class="cls-2" points="127.91 19.97 124.03 13.5 127.25 13.5 127.25 14.5 125.8 14.5 127.91 18.03 130.03 14.5 128.58 14.5 128.58 13.5 131.8 13.5 127.91 19.97"/><path class="cls-36" d="M96.18,43.76a4.87,4.87,0,0,1,1.44.22,40,40,0,0,1,5.71-5.25,4.73,4.73,0,0,1,.12-2.69,36,36,0,0,0-7.53-4.14,23.07,23.07,0,0,0-6.45,6,35.82,35.82,0,0,0,4.59,6.39A4.86,4.86,0,0,1,96.18,43.76Zm-4.89,4.9a4.81,4.81,0,0,1,.4-1.94,38.41,38.41,0,0,1-4.24-5.57,23,23,0,0,0,.79,22.09,38.81,38.81,0,0,1,4.05-11.63A4.82,4.82,0,0,1,91.29,48.66Zm16.79-16A4.84,4.84,0,0,1,111.42,34a39.25,39.25,0,0,1,8-2.48A23,23,0,0,0,99.91,30a39.07,39.07,0,0,1,5.69,3.43A4.88,4.88,0,0,1,108.08,32.7Zm7.32,23a4.89,4.89,0,0,1,1.27-1.64,35.67,35.67,0,0,0-6.68-12,4.83,4.83,0,0,1-1.91.39,4.89,4.89,0,0,1-2.84-.92,36.79,36.79,0,0,0-4.91,4.51,4.83,4.83,0,0,1,.74,2.58,5,5,0,0,1-.22,1.46A35.53,35.53,0,0,0,115.4,55.75Zm6.35,6.6c.07.93.1,1.86.1,2.81a39.67,39.67,0,0,1-.3,4.9,23,23,0,0,0,8.36-11.6,39,39,0,0,1-5.45.92A4.86,4.86,0,0,1,121.75,62.35ZM114.26,59a39.08,39.08,0,0,1-15.53-6.21,4.89,4.89,0,0,1-2.55.72,5.47,5.47,0,0,1-1-.1,35.34,35.34,0,0,0-4,13.71A23,23,0,0,0,99,72.67,39.16,39.16,0,0,1,114.26,59Zm9.18-24.61A35.73,35.73,0,0,0,113,37.1a4,4,0,0,1,0,.49,5,5,0,0,1-.5,2.15A39.47,39.47,0,0,1,119.9,53a4.9,4.9,0,0,1,4.42,3,36.08,36.08,0,0,0,6.45-1.26,23,23,0,0,0-7.33-20.27Zm-6.72,27.22a35.77,35.77,0,0,0-14.31,12.14,23,23,0,0,0,15.29-1.46,35.37,35.37,0,0,0,.73-7.17c0-.89,0-1.77-.11-2.64A5,5,0,0,1,116.72,61.65Z"/><path class="cls-36" d="M72,84.11a2.83,2.83,0,0,1-.9,2.25,3.81,3.81,0,0,1-2.57.78h-.92v3.49H66.14V81.28h2.54a3.66,3.66,0,0,1,2.47.72A2.64,2.64,0,0,1,72,84.11Zm-4.39,1.74h.77A2.6,2.6,0,0,0,70,85.44a1.52,1.52,0,0,0,.52-1.28A1.48,1.48,0,0,0,70,83a2.17,2.17,0,0,0-1.45-.4h-1Z"/><path class="cls-36" d="M77,83.43a2.75,2.75,0,0,1,.7.07l-.14,1.4a2.57,2.57,0,0,0-.62-.08,1.77,1.77,0,0,0-1.38.59A2.21,2.21,0,0,0,75,86.94v3.69H73.58V83.56h1.11l.18,1.25H75a2.84,2.84,0,0,1,.86-1A2,2,0,0,1,77,83.43Z"/><path class="cls-36" d="M81.8,90.76a3.14,3.14,0,0,1-2.43-1,3.81,3.81,0,0,1-.87-2.65,4.19,4.19,0,0,1,.81-2.73,2.73,2.73,0,0,1,2.23-1,2.7,2.7,0,0,1,2.09.85,3.38,3.38,0,0,1,.76,2.34v.82H80A2.42,2.42,0,0,0,80.48,89a1.76,1.76,0,0,0,1.39.55,5.47,5.47,0,0,0,1.1-.11,6.13,6.13,0,0,0,1.09-.4v1.22a3.88,3.88,0,0,1-1,.37A5.48,5.48,0,0,1,81.8,90.76Zm-.26-6.19a1.38,1.38,0,0,0-1.08.45A2.27,2.27,0,0,0,80,86.35h3A2,2,0,0,0,82.6,85,1.31,1.31,0,0,0,81.54,84.57Z"/><path class="cls-36" d="M91.61,90.63H90.19V86.27a2.1,2.1,0,0,0-.29-1.21,1.05,1.05,0,0,0-.91-.4,1.35,1.35,0,0,0-1.2.57,3.5,3.5,0,0,0-.38,1.88v3.52H86V83.56h1.1l.2.93h.08a1.83,1.83,0,0,1,.8-.78,2.4,2.4,0,0,1,1.16-.28,2,2,0,0,1,2,1.11h.1a2,2,0,0,1,.83-.81,2.49,2.49,0,0,1,1.23-.3,2.17,2.17,0,0,1,1.73.64,2.93,2.93,0,0,1,.55,2v4.61H94.4V86.27a2,2,0,0,0-.3-1.21,1,1,0,0,0-.9-.4,1.37,1.37,0,0,0-1.21.55,2.9,2.9,0,0,0-.38,1.68Z"/><path class="cls-36" d="M97.7,81.69a.85.85,0,0,1,.21-.62.76.76,0,0,1,.59-.22.75.75,0,0,1,.58.22,1,1,0,0,1,0,1.22.75.75,0,0,1-.58.22.76.76,0,0,1-.59-.22A.84.84,0,0,1,97.7,81.69Zm1.5,8.94H97.78V83.56H99.2Z"/><path class="cls-36" d="M105.92,90.63l-.2-.92h-.08a2,2,0,0,1-.83.77,2.68,2.68,0,0,1-1.25.28,2.33,2.33,0,0,1-1.8-.64,2.73,2.73,0,0,1-.6-1.94V83.56h1.43v4.36a2,2,0,0,0,.31,1.22,1.17,1.17,0,0,0,1,.41,1.52,1.52,0,0,0,1.31-.57,3.27,3.27,0,0,0,.42-1.9V83.56H107v7.07Z"/><path class="cls-36" d="M114.66,90.63h-1.42V86.27a2.1,2.1,0,0,0-.29-1.21,1.05,1.05,0,0,0-.91-.4,1.35,1.35,0,0,0-1.2.57,3.5,3.5,0,0,0-.38,1.88v3.52h-1.41V83.56h1.1l.2.93h.07a1.91,1.91,0,0,1,.81-.78,2.37,2.37,0,0,1,1.16-.28,2,2,0,0,1,2,1.11h.1a2,2,0,0,1,.83-.81,2.49,2.49,0,0,1,1.23-.3,2.17,2.17,0,0,1,1.73.64,2.93,2.93,0,0,1,.55,2v4.61h-1.42V86.27a2,2,0,0,0-.29-1.21,1,1,0,0,0-.9-.4,1.35,1.35,0,0,0-1.21.55,2.9,2.9,0,0,0-.38,1.68Z"/><path class="cls-36" d="M127.93,82.46a2.31,2.31,0,0,0-2,.93,5.17,5.17,0,0,0,0,5.18,2.37,2.37,0,0,0,2,.89,4.83,4.83,0,0,0,1.08-.12c.35-.08.71-.18,1.09-.3v1.31a6.38,6.38,0,0,1-2.34.41,3.64,3.64,0,0,1-3-1.24,5.44,5.44,0,0,1-1-3.56,6.14,6.14,0,0,1,.5-2.55,3.76,3.76,0,0,1,1.46-1.68,4.16,4.16,0,0,1,2.23-.58,5.26,5.26,0,0,1,2.49.6L129.92,83a6.74,6.74,0,0,0-.95-.39A3.29,3.29,0,0,0,127.93,82.46Z"/><path class="cls-36" d="M139.16,85.87A4.87,4.87,0,0,1,138,89.41a4.68,4.68,0,0,1-3.49,1.22H132V81.28h2.72A4.32,4.32,0,0,1,138,82.49,4.63,4.63,0,0,1,139.16,85.87Zm-1.52,0q0-3.36-3-3.36h-1.24v6.79h1Q137.64,89.35,137.64,85.92Z"/><path class="cls-36" d="M148.38,90.63h-1.77l-4.32-7.45h0l0,.42c0,.79.08,1.52.08,2.17v4.86h-1.3V81.28h1.74l4.32,7.42h0c0-.1,0-.46,0-1.07s0-1.1,0-1.45v-4.9h1.32Z"/><rect class="cls-36" x="106.84" y="100.84" width="1" height="15.83"/><polyline class="cls-36" points="106.68 115.17 104.34 115.17 107.34 120.17 110.34 115.17 108.01 115.17"/></g></g></svg>