<svg xmlns="http://www.w3.org/2000/svg" viewBox="0 0 221 564.11"><defs><style>.cls-1{fill:#556ae5;}.cls-17,.cls-2,.cls-20,.cls-3,.cls-4,.cls-7{fill:none;}.cls-2{stroke:#ffb70a;}.cls-17,.cls-19,.cls-2,.cls-20,.cls-29,.cls-3,.cls-4,.cls-7{stroke-miterlimit:10;}.cls-3{stroke:#7889a8;}.cls-19,.cls-20,.cls-4{stroke:#0ab979;}.cls-5{fill:#d7edff;}.cls-6{fill:#0399ff;}.cls-17,.cls-7{stroke:#0399ff;}.cls-20,.cls-7{stroke-dasharray:3;}.cls-8{fill:#912626;}.cls-9{fill:#c6302b;}.cls-10,.cls-29,.cls-33{fill:#fff;}.cls-11{fill:#621b1c;}.cls-12{fill:#9a2928;}.cls-13{fill:#5e8cda;}.cls-14{fill:#093071;}.cls-15{fill:#f5cd21;}.cls-16{fill:#fddd75;}.cls-18{fill:#95aace;}.cls-19{fill:#e1fff1;stroke-width:2px;}.cls-21{fill:#58596c;}.cls-22{fill:#ff5856;}.cls-23{fill:#db4040;}.cls-24{fill:#cc3636;}.cls-25{fill:#ffdc67;}.cls-26{fill:#ffb456;}.cls-27{fill:#fc974d;}.cls-28{fill:#f47f31;}.cls-29{stroke:#fff;stroke-width:3px;}.cls-30{fill:#003a70;}.cls-31{fill:#ffa400;}.cls-32{fill:#7889a8;}.cls-33{font-size:12px;font-family:Tahoma;}.cls-34{letter-spacing:-0.02em;}.cls-35{letter-spacing:-0.02em;}.cls-36{fill:#fff1d7;}.cls-37{fill:#ffb70a;}.cls-38{fill:#ffa10b;}.cls-39{fill:#e2e6f2;}.cls-40{fill:#5e6981;}.cls-41{letter-spacing:0em;}.cls-42{letter-spacing:-0.04em;}.cls-43{letter-spacing:-0.01em;}.cls-44{letter-spacing:0em;}.cls-45{letter-spacing:-0.01em;}.cls-46{letter-spacing:0em;}.cls-47{letter-spacing:0.01em;}.cls-48{letter-spacing:-0.03em;}.cls-49{letter-spacing:-0.01em;}</style></defs><g id="Layer_2" data-name="Layer 2"><g id="Слой_1" data-name="Слой 1"><rect class="cls-1" x="42.76" y="115.44" width="135.24" height="1"/><line class="cls-2" x1="85.97" y1="426.08" x2="67.97" y2="426.08"/><line class="cls-2" x1="152.97" y1="426.08" x2="134.97" y2="426.08"/><line class="cls-3" x1="85.97" y1="517.08" x2="67.97" y2="517.08"/><line class="cls-3" x1="152.97" y1="517.08" x2="134.97" y2="517.08"/><line class="cls-4" x1="43.25" y1="243" x2="43.25" y2="274.36"/><line class="cls-4" x1="177.25" y1="243" x2="177.25" y2="274.36"/><rect class="cls-5" x="17.25" y="275.7" width="52" height="92" rx="6"/><path class="cls-6" d="M63.25,276.7a5,5,0,0,1,5,5v80a5,5,0,0,1-5,5h-40a5,5,0,0,1-5-5v-80a5,5,0,0,1,5-5h40m0-2h-40a7,7,0,0,0-7,7v80a7,7,0,0,0,7,7h40a7,7,0,0,0,7-7v-80a7,7,0,0,0-7-7Z"/><line class="cls-7" x1="18.25" y1="321.7" x2="69.26" y2="321.7"/><path class="cls-8" d="M55.2,350.34c-1.36.71-8.41,3.61-9.91,4.39a3.35,3.35,0,0,1-3.52.21c-1.19-.57-8.69-3.6-10.05-4.25-.67-.32-1-.59-1-.85v-2.58s9.77-2.12,11.35-2.69a4,4,0,0,1,3.47-.09c1.34.49,9.36,1.94,10.69,2.42v2.54c0,.26-.31.54-1,.9"/><path class="cls-9" d="M55.2,347.78c-1.36.71-8.41,3.6-9.91,4.39a3.37,3.37,0,0,1-3.52.21c-1.19-.57-8.69-3.6-10-4.25s-1.38-1.09-.06-1.61,8.79-3.45,10.37-4a4,4,0,0,1,3.47-.1c1.34.49,8.35,3.28,9.67,3.77s1.38.89,0,1.6"/><path class="cls-8" d="M55.2,346.17c-1.36.71-8.41,3.61-9.91,4.39a3.37,3.37,0,0,1-3.52.21c-1.19-.57-8.69-3.6-10.05-4.25-.67-.32-1-.59-1-.85v-2.58S40.46,341,42,340.4a4,4,0,0,1,3.47-.1c1.34.5,9.36,1.94,10.69,2.43v2.54c0,.26-.31.54-1,.9"/><path class="cls-9" d="M55.2,343.6c-1.36.71-8.41,3.61-9.91,4.4a3.35,3.35,0,0,1-3.52.2c-1.19-.56-8.69-3.59-10-4.24s-1.38-1.09-.06-1.61,8.79-3.45,10.37-4a4,4,0,0,1,3.47-.1c1.34.49,8.35,3.28,9.67,3.77s1.38.89,0,1.59h0"/><path class="cls-8" d="M55.2,341.84c-1.36.71-8.41,3.61-9.91,4.39a3.33,3.33,0,0,1-3.52.21c-1.19-.57-8.69-3.6-10.05-4.24-.67-.33-1-.6-1-.86v-2.57s9.77-2.13,11.35-2.7a4,4,0,0,1,3.47-.09c1.34.49,9.36,1.94,10.69,2.42V341c0,.25-.31.53-1,.89"/><path class="cls-9" d="M55.2,339.28c-1.36.71-8.41,3.61-9.91,4.39a3.37,3.37,0,0,1-3.52.21c-1.19-.57-8.69-3.6-10-4.25s-1.38-1.09-.06-1.61,8.79-3.44,10.37-4a4,4,0,0,1,3.47-.09c1.34.49,8.35,3.28,9.67,3.76s1.38.89,0,1.6"/><path class="cls-10" d="M46.56,336.77l-2.19.23-.49,1.18-.79-1.32-2.53-.23,1.88-.68-.56-1,1.77.69,1.66-.55-.45,1.08,1.7.64"/><path class="cls-10" d="M43.75,342.5l-4.09-1.7,5.86-.9-1.77,2.6"/><path class="cls-10" d="M38.08,337.43c1.73,0,3.13.54,3.13,1.21s-1.4,1.22-3.13,1.22-3.14-.55-3.14-1.22,1.4-1.21,3.14-1.21"/><path class="cls-11" d="M49.16,337.09l3.47,1.37-3.47,1.38v-2.75"/><path class="cls-12" d="M45.32,338.61l3.84-1.52v2.75l-.38.14-3.46-1.37"/><path class="cls-13" d="M54.53,299.51l-6.74-6.74-2.87,3.64,3.1,3.1a.74.74,0,0,1,0,1l-.9.9s.6.9.63,1a1.1,1.1,0,0,1-.22,1.23l-7,5.4v5.55l14-14A.74.74,0,0,0,54.53,299.51Z"/><path class="cls-14" d="M38.88,300.35a.72.72,0,0,1,0-1l.9-.9-.62-.88a1,1,0,0,1,.21-1.31l7-5.4v-5.54h0l-14,14a.73.73,0,0,0,0,1l6.73,6.73L42,303.45Z"/><polygon class="cls-10" points="43.57 304.8 43.57 304.8 40.31 308.06 43.57 304.8"/><path class="cls-13" d="M50,288.66a.25.25,0,0,1,.23.15c.08.15,0,.29-.12.42l-6.17,7.83a.43.43,0,0,0,0,.45s3.33,4.82,3.44,5a.81.81,0,0,1-.15.94l-9.92,7.61a.5.5,0,0,1-.32.15.31.31,0,0,1-.22-.14c-.07-.16,0-.3.12-.43L43,302.81a.45.45,0,0,0,0-.46l-3.45-5a.71.71,0,0,1,.16-1l9.91-7.61a.5.5,0,0,1,.31-.15m0-.12a.6.6,0,0,0-.38.17l-9.92,7.61a.85.85,0,0,0-.18,1.16l3.44,4.95a.29.29,0,0,1,0,.3l-6.17,7.82c-.08.11-.25.33-.13.56a.38.38,0,0,0,.32.21.62.62,0,0,0,.41-.17l9.91-7.61a.94.94,0,0,0,.19-1.11l-3.45-5a.32.32,0,0,1,0-.3l6.17-7.82a.55.55,0,0,0,.14-.56.4.4,0,0,0-.35-.21Z"/><path class="cls-15" d="M47.07,302.52c.08.12.15.58,0,.73l-9.92,7.61c-.08.07-.13.1-.16.1s0-.06.08-.18L43.19,303a.65.65,0,0,0,0-.74l-3.44-5S47,302.4,47.07,302.52Z"/><path class="cls-16" d="M47.07,302.52l-3.39-4.88a.67.67,0,0,1,0-.73l6.17-7.83c.09-.12.11-.17.08-.17a.32.32,0,0,0-.16.09l-9.92,7.61a.5.5,0,0,0-.1.66Z"/><rect class="cls-5" x="151.25" y="275.7" width="52" height="92" rx="6"/><path class="cls-6" d="M197.25,276.7a5,5,0,0,1,5,5v80a5,5,0,0,1-5,5h-40a5,5,0,0,1-5-5v-80a5,5,0,0,1,5-5h40m0-2h-40a7,7,0,0,0-7,7v80a7,7,0,0,0,7,7h40a7,7,0,0,0,7-7v-80a7,7,0,0,0-7-7Z"/><line class="cls-7" x1="152.25" y1="321.7" x2="202.26" y2="321.7"/><path class="cls-8" d="M189.2,350.34c-1.36.71-8.41,3.61-9.91,4.39a3.35,3.35,0,0,1-3.52.21c-1.19-.57-8.69-3.6-10.05-4.25-.67-.32-1-.59-1-.85v-2.58s9.77-2.12,11.35-2.69a4,4,0,0,1,3.47-.09c1.34.49,9.36,1.94,10.69,2.42v2.54c0,.26-.31.54-1,.9"/><path class="cls-9" d="M189.2,347.78c-1.36.71-8.41,3.6-9.91,4.39a3.37,3.37,0,0,1-3.52.21c-1.19-.57-8.69-3.6-10-4.25s-1.38-1.09-.06-1.61,8.79-3.45,10.37-4a4,4,0,0,1,3.47-.1c1.34.49,8.35,3.28,9.67,3.77s1.38.89,0,1.6"/><path class="cls-8" d="M189.2,346.17c-1.36.71-8.41,3.61-9.91,4.39a3.37,3.37,0,0,1-3.52.21c-1.19-.57-8.69-3.6-10.05-4.25-.67-.32-1-.59-1-.85v-2.58S174.46,341,176,340.4a4,4,0,0,1,3.47-.1c1.34.5,9.36,1.94,10.69,2.43v2.54c0,.26-.31.54-1,.9"/><path class="cls-9" d="M189.2,343.6c-1.36.71-8.41,3.61-9.91,4.4a3.35,3.35,0,0,1-3.52.2c-1.19-.56-8.69-3.59-10-4.24s-1.38-1.09-.06-1.61,8.79-3.45,10.37-4a4,4,0,0,1,3.47-.1c1.34.49,8.35,3.28,9.67,3.77s1.38.89,0,1.59h0"/><path class="cls-8" d="M189.2,341.84c-1.36.71-8.41,3.61-9.91,4.39a3.33,3.33,0,0,1-3.52.21c-1.19-.57-8.69-3.6-10.05-4.24-.67-.33-1-.6-1-.86v-2.57s9.77-2.13,11.35-2.7a4,4,0,0,1,3.47-.09c1.34.49,9.36,1.94,10.69,2.42V341c0,.25-.31.53-1,.89"/><path class="cls-9" d="M189.2,339.28c-1.36.71-8.41,3.61-9.91,4.39a3.37,3.37,0,0,1-3.52.21c-1.19-.57-8.69-3.6-10-4.25s-1.38-1.09-.06-1.61,8.79-3.44,10.37-4a4,4,0,0,1,3.47-.09c1.34.49,8.35,3.28,9.67,3.76s1.38.89,0,1.6"/><path class="cls-10" d="M180.56,336.77l-2.19.23-.49,1.18-.79-1.32-2.53-.23,1.88-.68-.56-1,1.77.69,1.66-.55-.45,1.08,1.7.64"/><path class="cls-10" d="M177.75,342.5l-4.09-1.7,5.86-.9-1.77,2.6"/><path class="cls-10" d="M172.08,337.43c1.73,0,3.13.54,3.13,1.21s-1.4,1.22-3.13,1.22-3.14-.55-3.14-1.22,1.4-1.21,3.14-1.21"/><path class="cls-11" d="M183.16,337.09l3.47,1.37-3.47,1.38v-2.75"/><path class="cls-12" d="M179.32,338.61l3.84-1.52v2.75l-.38.14-3.46-1.37"/><path class="cls-13" d="M186.89,298.51l-6.74-6.74-2.87,3.64,3.09,3.1a.72.72,0,0,1,0,1l-.89.9s.6.9.63,1a1.1,1.1,0,0,1-.22,1.23l-7,5.4c0,1.82,0,5.54,0,5.55l14-14A.74.74,0,0,0,186.89,298.51Z"/><path class="cls-14" d="M171.24,299.35a.72.72,0,0,1,0-1l.89-.9-.61-.88a1,1,0,0,1,.2-1.31l7-5.4v-5.54h0l-14,14a.75.75,0,0,0,0,1l6.74,6.73,2.87-3.64Z"/><polygon class="cls-10" points="175.92 303.8 175.92 303.8 172.67 307.06 175.92 303.8"/><path class="cls-13" d="M182.31,287.66a.26.26,0,0,1,.23.15c.07.15,0,.29-.12.42l-6.17,7.83a.41.41,0,0,0,0,.45l3.44,5a.82.82,0,0,1-.16.94l-9.91,7.61a.5.5,0,0,1-.32.15.31.31,0,0,1-.22-.14c-.07-.16,0-.3.12-.43l6.17-7.82a.45.45,0,0,0,0-.46l-3.44-5a.72.72,0,0,1,.15-1l9.92-7.61c.16-.13.24-.15.31-.15m0-.12a.65.65,0,0,0-.39.17L172,295.32a.85.85,0,0,0-.18,1.16l3.44,4.95a.32.32,0,0,1,0,.3l-6.17,7.82c-.08.11-.25.33-.13.56a.37.37,0,0,0,.32.21.62.62,0,0,0,.41-.17l9.91-7.61a.94.94,0,0,0,.18-1.11c-.11-.17-3.44-5-3.44-5a.29.29,0,0,1,0-.3l6.17-7.82a.53.53,0,0,0,.13-.56.38.38,0,0,0-.34-.21Z"/><path class="cls-15" d="M179.43,301.52c.08.12.15.58-.05.73l-9.92,7.61a.38.38,0,0,1-.16.1s0-.06.08-.18l6.17-7.82a.68.68,0,0,0,0-.74l-3.44-5S179.35,301.4,179.43,301.52Z"/><path class="cls-16" d="M179.43,301.52,176,296.64a.65.65,0,0,1,0-.73l6.17-7.83c.09-.12.11-.17.08-.17a.28.28,0,0,0-.16.09l-9.92,7.61a.49.49,0,0,0-.1.66Z"/><line class="cls-4" x1="177.58" y1="258.7" x2="43.25" y2="258.7"/><line class="cls-17" x1="16.5" y1="322.08" x2="0.5" y2="322.08"/><line class="cls-17" x1="220.5" y1="322.08" x2="204.5" y2="322.08"/><line class="cls-17" x1="110.25" y1="490.2" x2="110.25" y2="475.2"/><line class="cls-17" x1="177.25" y1="490.2" x2="177.25" y2="475.2"/><line class="cls-17" x1="43.25" y1="490.2" x2="43.25" y2="475.2"/><line class="cls-17" x1="110.25" y1="399.2" x2="110.25" y2="384.2"/><line class="cls-17" x1="177.25" y1="399.2" x2="177.25" y2="384.2"/><line class="cls-17" x1="43.25" y1="399.2" x2="43.25" y2="384.2"/><line class="cls-17" x1="43.25" y1="384.36" x2="43.25" y2="368.2"/><line class="cls-17" x1="0.5" y1="475" x2="0.5" y2="322.08"/><line class="cls-17" x1="220.5" y1="475" x2="220.5" y2="322.08"/><line class="cls-17" x1="177.25" y1="384.36" x2="177.25" y2="368.2"/><line class="cls-17" x1="177.58" y1="383.7" x2="43.25" y2="383.7"/><line class="cls-17" x1="220.58" y1="474.7" x2="0.5" y2="474.7"/><circle class="cls-18" cx="104" cy="321.7" r="1.5"/><circle class="cls-18" cx="110" cy="321.7" r="1.5"/><circle class="cls-18" cx="116" cy="321.7" r="1.5"/><circle class="cls-18" cx="104" cy="197.7" r="1.5"/><circle class="cls-18" cx="110" cy="197.7" r="1.5"/><circle class="cls-18" cx="116" cy="197.7" r="1.5"/><rect class="cls-19" x="18.25" y="152.2" width="50" height="90" rx="5"/><path class="cls-13" d="M46.08,218.92a.69.69,0,0,1,0,1l-2.36,2.35a.68.68,0,0,1-.95,0l-2.35-2.35a.69.69,0,0,1,0-1l2.35-2.35a.68.68,0,0,1,.95,0Z"/><path class="cls-15" d="M31.29,221.4a.41.41,0,0,1-.58,0L29,219.69a.41.41,0,0,1,0-.58l1.71-1.71a.41.41,0,0,1,.58,0L33,219.11a.41.41,0,0,1,0,.58Z"/><path class="cls-15" d="M55.7,221.4a.4.4,0,0,1-.57,0l-1.71-1.71a.41.41,0,0,1,0-.58l1.71-1.71a.4.4,0,0,1,.57,0l1.72,1.71a.41.41,0,0,1,0,.58Z"/><path class="cls-14" d="M48.06,220.29a.1.1,0,0,0-.16,0l-4.23,4.23a.6.6,0,0,1-.83,0l-9.62-9.94a3.09,3.09,0,0,0-4.35,0l-2.65,2.65a3,3,0,0,0-.9,2.17,2.64,2.64,0,0,0,0,.29,3.09,3.09,0,0,0,.88,1.88l2.65,2.65a3.65,3.65,0,0,0,.36.31,3,3,0,0,0,1.81.59,3.07,3.07,0,0,0,1.16-.22,3.31,3.31,0,0,0,1-.68l2.62-2.62a.12.12,0,0,0,0-.09.09.09,0,0,0,0-.08l-.94-.94a.14.14,0,0,0-.09,0,.24.24,0,0,0-.1,0l-2.54,2.54a1.91,1.91,0,0,1-.35.27,1.35,1.35,0,0,1-1.42,0,1.67,1.67,0,0,1-.44-.31l-2.54-2.54a1.54,1.54,0,0,1-.36-.57,1.36,1.36,0,0,1-.06-.89,1.6,1.6,0,0,1,.42-.75L30,215.76a1.54,1.54,0,0,1,1-.45,1.25,1.25,0,0,1,.43,0,1.54,1.54,0,0,1,.82.44l9.65,10.07a2,2,0,0,0,1.43.62h0a1.53,1.53,0,0,0,.36-.07,1.88,1.88,0,0,0,.56-.2,2.52,2.52,0,0,0,.49-.37L49,221.44a.12.12,0,0,0,0-.17Z"/><path class="cls-14" d="M60.27,217.23l-2.64-2.65a3.09,3.09,0,0,0-2-.9h-.29a3.09,3.09,0,0,0-2,.9l-2.62,2.63a.1.1,0,0,0,0,.16l.93.94a.15.15,0,0,0,.2,0l2.54-2.54a1.91,1.91,0,0,1,.35-.27,1.35,1.35,0,0,1,1.42,0,1.67,1.67,0,0,1,.44.31l2.54,2.54a1.54,1.54,0,0,1,.36.57,1.36,1.36,0,0,1,.06.89,1.6,1.6,0,0,1-.42.75L56.54,223a1.54,1.54,0,0,1-1,.45,1.24,1.24,0,0,1-.43,0,1.59,1.59,0,0,1-.82-.43L44.68,213a1.77,1.77,0,0,0-.41-.31,1.89,1.89,0,0,0-.83-.27h-.38a1.92,1.92,0,0,0-.75.22,1.88,1.88,0,0,0-.49.36l-4.36,4.36a.11.11,0,0,0,0,.17l1,1a.11.11,0,0,0,.17,0l4.23-4.23a.6.6,0,0,1,.83,0l9.62,9.94a3.08,3.08,0,0,0,4.35,0l2.64-2.65a3,3,0,0,0,.89-1.88,2.64,2.64,0,0,0,0-.29A3,3,0,0,0,60.27,217.23Z"/><path class="cls-15" d="M41.68,222.1s0,0,0,0,0,0,0-.09l1.49-1.88a.14.14,0,0,0,0-.11l-.84-1.2a.17.17,0,0,1,0-.23l2.39-1.83.06,0a.05.05,0,0,1,0,0s0,.05,0,.09l-1.49,1.88a.13.13,0,0,0,0,.12l.81,1.17c0,.06.05.2,0,.25l-2.39,1.83a.09.09,0,0,1-.06,0Z"/><path class="cls-14" d="M43.9,226a1.87,1.87,0,0,1-.52.17A1.87,1.87,0,0,0,43.9,226Z"/><line class="cls-20" x1="17.71" y1="197.7" x2="68.26" y2="197.7"/><path class="cls-21" d="M52.07,179.08a8.83,8.83,0,1,1-8.82-8.82A8.82,8.82,0,0,1,52.07,179.08Z"/><path class="cls-22" d="M51.42,175.75H35.07a8.83,8.83,0,1,0,16.35,0Z"/><path class="cls-23" d="M52.06,178.57c0-.21,0-.41-.06-.62H46.66v-1.89h4.88c-.08-.22-.16-.42-.25-.62H35.21a5.76,5.76,0,0,0-.26.62h4.88V178H34.49c0,.21,0,.41-.06.62h2.29v1.9H34.53c0,.21.07.41.12.62h5.18V183h-4.5c.1.21.21.42.33.62h1.06V185a9.52,9.52,0,0,0,1.2,1.09h1.91v1.1a6.62,6.62,0,0,0,.62.24v-1.34H46v1.34a6.62,6.62,0,0,0,.62-.24v-1.1h1.92A8.8,8.8,0,0,0,49.77,185V183.6h1.06c.12-.2.23-.41.34-.62H46.66v-1.89h5.18c0-.21.09-.41.12-.62H49.77v-1.9Zm-11.61-2.51H46V178H40.45Zm-3.11,4.41v-1.9h5.6v1.9Zm5.6,5h-5.6v-1.9h5.6ZM40.45,183v-1.89H46V183Zm8.7.62v1.9H43.56v-1.9Zm0-3.13H43.56v-1.9h5.59Z"/><path class="cls-23" d="M38.52,175.89a.59.59,0,0,1,0-.14H35.07a8.84,8.84,0,0,0,3.45,10.79Z"/><path class="cls-24" d="M38.52,181.09v-.62H37.34v-1.9h1.18V178h-4c0,.21,0,.41-.06.62h2.29v1.9H34.53c0,.21.07.41.12.62Z"/><path class="cls-24" d="M38.52,175.89a.65.65,0,0,1,.18-.45H35.21a5.76,5.76,0,0,0-.26.62h3.57Z"/><path class="cls-24" d="M38.52,185.5H37.34v-1.9h1.18V183H35.33c.1.21.21.42.33.62h1.06V185a9.52,9.52,0,0,0,1.2,1.09h.6Z"/><path class="cls-25" d="M48.35,178.15l-1.29.41a2.75,2.75,0,0,0,.15-3.48,3.81,3.81,0,0,1-.83-2,.22.22,0,0,0-.4-.1,5.45,5.45,0,0,0-.65,1.37h0a3.78,3.78,0,0,0-1-2.8,2.58,2.58,0,0,1-.75-2.29.22.22,0,0,0-.34-.23A6.8,6.8,0,0,0,40,175.91h0c0,.2-.12.14-.16.1a5.28,5.28,0,0,1-.87-.92.24.24,0,0,0-.21-.08.21.21,0,0,0-.17.14,6.82,6.82,0,0,0,.49,5.7,4.79,4.79,0,0,0,4.3,2.15,4.94,4.94,0,0,0,5.3-4.61A.22.22,0,0,0,48.35,178.15Z"/><path class="cls-26" d="M39.74,176.14a.18.18,0,0,1,.08-.11l0,0a5.28,5.28,0,0,1-.87-.92.24.24,0,0,0-.21-.08.21.21,0,0,0-.17.14c-.92,2.57-.32,5.87,2.07,7.21A6.56,6.56,0,0,1,39.74,176.14Z"/><path class="cls-26" d="M40,175.91s0,.06,0,.08a.23.23,0,0,1,.18.09A6,6,0,0,0,41,177s.16.09.16-.1h0a6.82,6.82,0,0,1,2.47-6.4,2.46,2.46,0,0,1-.11-1.28.22.22,0,0,0-.34-.23A6.8,6.8,0,0,0,40,175.91Z"/><path class="cls-26" d="M46.22,180.2l-.77.24a1.63,1.63,0,0,0,.09-2.06,2.22,2.22,0,0,1-.49-1.21.13.13,0,0,0-.24-.06,3.22,3.22,0,0,0-.39.81h0a2.24,2.24,0,0,0-.62-1.67,1.52,1.52,0,0,1-.44-1.36.13.13,0,0,0-.06-.14.12.12,0,0,0-.14,0,4.06,4.06,0,0,0-1.92,4.13h0c0,.12-.08.06-.09.05a2.94,2.94,0,0,1-.52-.55.13.13,0,0,0-.23,0c-.59,1.65-.12,3.76,1.54,4.43a6.51,6.51,0,0,0,1.42.15,6.63,6.63,0,0,0,1-.07,2.9,2.9,0,0,0,2-2.58A.14.14,0,0,0,46.22,180.2Z"/><path class="cls-27" d="M41.39,182.41A4,4,0,0,1,41.1,179a.11.11,0,0,1,.06-.07l0,0a2.94,2.94,0,0,1-.52-.55.13.13,0,0,0-.23,0,3.57,3.57,0,0,0,1.22,4.27A3.4,3.4,0,0,1,41.39,182.41Z"/><path class="cls-27" d="M41.22,178.88a.08.08,0,0,1,0,.05.14.14,0,0,1,.11.06,3.61,3.61,0,0,0,.51.54s.1.07.1-.05a4,4,0,0,1,1.47-3.82,1.34,1.34,0,0,1-.07-.77.13.13,0,0,0-.06-.14.12.12,0,0,0-.14,0,4.06,4.06,0,0,0-1.92,4.13Z"/><path class="cls-27" d="M43.43,179.87a.38.38,0,0,0-.49,0,2.07,2.07,0,0,0,0,3.1l0,0h.42l0,0a2.07,2.07,0,0,0,0-3.1Z"/><path class="cls-28" d="M43.07,181.48a2.06,2.06,0,0,1,.55-1.42,1.14,1.14,0,0,0-.19-.19.38.38,0,0,0-.49,0,2.07,2.07,0,0,0,0,3.1l0,0h.42l0,0,.14-.13A2.09,2.09,0,0,1,43.07,181.48Z"/><rect class="cls-19" x="152.25" y="152.2" width="50" height="90" rx="5"/><path class="cls-13" d="M180.08,218.92a.69.69,0,0,1,0,1l-2.36,2.35a.68.68,0,0,1-.95,0l-2.35-2.35a.69.69,0,0,1,0-1l2.35-2.35a.68.68,0,0,1,.95,0Z"/><path class="cls-15" d="M165.29,221.4a.41.41,0,0,1-.58,0L163,219.69a.41.41,0,0,1,0-.58l1.71-1.71a.41.41,0,0,1,.58,0l1.71,1.71a.41.41,0,0,1,0,.58Z"/><path class="cls-15" d="M189.7,221.4a.4.4,0,0,1-.57,0l-1.71-1.71a.41.41,0,0,1,0-.58l1.71-1.71a.4.4,0,0,1,.57,0l1.72,1.71a.41.41,0,0,1,0,.58Z"/><path class="cls-14" d="M182.06,220.29a.1.1,0,0,0-.16,0l-4.23,4.23a.6.6,0,0,1-.83,0l-9.62-9.94a3.09,3.09,0,0,0-4.35,0l-2.65,2.65a3,3,0,0,0-.9,2.17,2.64,2.64,0,0,0,0,.29,3.09,3.09,0,0,0,.88,1.88l2.65,2.65a3.65,3.65,0,0,0,.36.31,3,3,0,0,0,1.81.59,3.07,3.07,0,0,0,1.16-.22,3.31,3.31,0,0,0,1-.68l2.62-2.62a.12.12,0,0,0,0-.09.09.09,0,0,0,0-.08l-.94-.94a.14.14,0,0,0-.09,0,.24.24,0,0,0-.1,0l-2.54,2.54a1.91,1.91,0,0,1-.35.27,1.35,1.35,0,0,1-1.42,0,1.67,1.67,0,0,1-.44-.31l-2.54-2.54a1.54,1.54,0,0,1-.36-.57,1.36,1.36,0,0,1-.06-.89,1.6,1.6,0,0,1,.42-.75l2.54-2.54a1.54,1.54,0,0,1,1-.45,1.25,1.25,0,0,1,.43,0,1.54,1.54,0,0,1,.82.44l9.65,10.07a2,2,0,0,0,1.43.62h0a1.53,1.53,0,0,0,.36-.07,1.88,1.88,0,0,0,.56-.2,2.52,2.52,0,0,0,.49-.37l4.36-4.37a.12.12,0,0,0,0-.17Z"/><path class="cls-14" d="M194.27,217.23l-2.64-2.65a3.09,3.09,0,0,0-2-.9h-.29a3.09,3.09,0,0,0-2,.9l-2.62,2.63a.1.1,0,0,0,0,.16l.93.94a.15.15,0,0,0,.2,0l2.54-2.54a1.91,1.91,0,0,1,.35-.27,1.35,1.35,0,0,1,1.42,0,1.67,1.67,0,0,1,.44.31l2.54,2.54a1.54,1.54,0,0,1,.36.57,1.36,1.36,0,0,1,.06.89,1.6,1.6,0,0,1-.42.75L190.54,223a1.54,1.54,0,0,1-1,.45,1.24,1.24,0,0,1-.43,0,1.59,1.59,0,0,1-.82-.43L178.68,213a1.77,1.77,0,0,0-.41-.31,1.89,1.89,0,0,0-.83-.27h-.38a1.92,1.92,0,0,0-.75.22,1.88,1.88,0,0,0-.49.36l-4.36,4.36a.11.11,0,0,0,0,.17l1,1a.11.11,0,0,0,.17,0l4.23-4.23a.6.6,0,0,1,.83,0l9.62,9.94a3.08,3.08,0,0,0,4.35,0l2.64-2.65a3,3,0,0,0,.89-1.88,2.64,2.64,0,0,0,0-.29A3,3,0,0,0,194.27,217.23Z"/><path class="cls-15" d="M175.68,222.1s0,0,0,0,0,0,0-.09l1.49-1.88a.14.14,0,0,0,0-.11l-.84-1.2a.17.17,0,0,1,0-.23l2.39-1.83.06,0a.05.05,0,0,1,.05,0s0,.05,0,.09l-1.49,1.88a.13.13,0,0,0,0,.12l.81,1.17c0,.06.05.2,0,.25l-2.39,1.83a.09.09,0,0,1-.06,0Z"/><path class="cls-14" d="M177.9,226a1.87,1.87,0,0,1-.52.17A1.87,1.87,0,0,0,177.9,226Z"/><line class="cls-20" x1="151.71" y1="197.7" x2="202.26" y2="197.7"/><path class="cls-29" d="M48.63,149.34h-1v-1.29a4.36,4.36,0,1,0-8.71,0v1.29h-1a.83.83,0,0,0-.84.84v7.95a.83.83,0,0,0,.84.84H48.63a.83.83,0,0,0,.84-.84v-7.95A.87.87,0,0,0,48.63,149.34Zm-4.86,5.22v1.08a.55.55,0,0,1-.55.55.55.55,0,0,1-.55-.55v-1.08a1.08,1.08,0,0,1-.55-1,1.11,1.11,0,0,1,2.21,0A1,1,0,0,1,43.77,154.56Zm-2.37-5.22v-1.29a1.87,1.87,0,0,1,3.73,0v1.29Z"/><path class="cls-29" d="M37.54,147.4a.77.77,0,0,0-.76-.77h-2.6a.77.77,0,0,0-.76.77.76.76,0,0,0,.76.76h2.6A.76.76,0,0,0,37.54,147.4Z"/><path class="cls-29" d="M38.14,143.88a.7.7,0,0,0,.48.18.84.84,0,0,0,.6-.29.78.78,0,0,0-.1-1.07l-2-1.68a.76.76,0,1,0-1,1.18Z"/><path class="cls-29" d="M43.26,142.28a.76.76,0,0,0,.76-.76v-2.63a.76.76,0,1,0-1.52,0v2.63A.76.76,0,0,0,43.26,142.28Z"/><path class="cls-29" d="M47.88,144.06a.74.74,0,0,0,.5-.18l2-1.68a.78.78,0,0,0,.1-1.08.77.77,0,0,0-1.07-.1l-2.05,1.68a.77.77,0,0,0-.1,1.07A.7.7,0,0,0,47.88,144.06Z"/><path class="cls-29" d="M52.32,146.63H49.69a.77.77,0,0,0-.76.77.76.76,0,0,0,.76.76h2.63a.76.76,0,0,0,.76-.76A.77.77,0,0,0,52.32,146.63Z"/><path class="cls-30" d="M48.63,149.34H37.87a.83.83,0,0,0-.84.84v7.95a.83.83,0,0,0,.84.84H48.63a.83.83,0,0,0,.84-.84v-7.95A.87.87,0,0,0,48.63,149.34Zm-4.86,5.22v1.08a.55.55,0,0,1-.55.55.55.55,0,0,1-.55-.55v-1.08a1.08,1.08,0,0,1-.55-1,1.11,1.11,0,0,1,2.21,0A1,1,0,0,1,43.77,154.56Z"/><path class="cls-31" d="M47.62,149.34H45.13v-1.29a1.87,1.87,0,0,0-3.73,0v1.29H38.91v-1.29a4.36,4.36,0,1,1,8.71,0Z"/><path class="cls-31" d="M36.78,148.16h-2.6a.76.76,0,0,1-.76-.76.77.77,0,0,1,.76-.77h2.6a.77.77,0,0,1,.76.77A.76.76,0,0,1,36.78,148.16Z"/><path class="cls-31" d="M38.62,144.06a.7.7,0,0,1-.48-.18l-2-1.68a.76.76,0,1,1,1-1.18l2,1.68a.78.78,0,0,1,.1,1.07A.84.84,0,0,1,38.62,144.06Z"/><path class="cls-31" d="M43.26,142.28a.76.76,0,0,1-.76-.76v-2.63a.76.76,0,1,1,1.52,0v2.63A.76.76,0,0,1,43.26,142.28Z"/><path class="cls-31" d="M47.88,144.06a.7.7,0,0,1-.57-.29.77.77,0,0,1,.1-1.07L49.46,141a.77.77,0,0,1,1.07.1.78.78,0,0,1-.1,1.08l-2,1.68A.74.74,0,0,1,47.88,144.06Z"/><path class="cls-31" d="M52.32,148.16H49.69a.76.76,0,0,1-.76-.76.77.77,0,0,1,.76-.77h2.63a.77.77,0,0,1,.76.77A.76.76,0,0,1,52.32,148.16Z"/><path class="cls-29" d="M182.63,149.34h-1v-1.29a4.36,4.36,0,1,0-8.71,0v1.29h-1a.83.83,0,0,0-.84.84v7.95a.83.83,0,0,0,.84.84h10.76a.83.83,0,0,0,.84-.84v-7.95A.87.87,0,0,0,182.63,149.34Zm-4.86,5.22v1.08a.55.55,0,0,1-.55.55.55.55,0,0,1-.55-.55v-1.08a1.08,1.08,0,0,1-.55-1,1.11,1.11,0,0,1,2.21,0A1,1,0,0,1,177.77,154.56Zm-2.37-5.22v-1.29a1.87,1.87,0,0,1,3.73,0v1.29Z"/><path class="cls-29" d="M171.54,147.4a.77.77,0,0,0-.76-.77h-2.6a.77.77,0,0,0-.76.77.76.76,0,0,0,.76.76h2.6A.76.76,0,0,0,171.54,147.4Z"/><path class="cls-29" d="M172.14,143.88a.7.7,0,0,0,.48.18.84.84,0,0,0,.6-.29.78.78,0,0,0-.1-1.07L171.07,141a.76.76,0,1,0-1,1.18Z"/><path class="cls-29" d="M177.26,142.28a.76.76,0,0,0,.76-.76v-2.63a.76.76,0,1,0-1.52,0v2.63A.76.76,0,0,0,177.26,142.28Z"/><path class="cls-29" d="M181.88,144.06a.74.74,0,0,0,.5-.18l2.05-1.68a.78.78,0,0,0,.1-1.08.77.77,0,0,0-1.07-.1l-2.05,1.68a.77.77,0,0,0-.1,1.07A.7.7,0,0,0,181.88,144.06Z"/><path class="cls-29" d="M186.32,146.63h-2.63a.77.77,0,0,0-.76.77.76.76,0,0,0,.76.76h2.63a.76.76,0,0,0,.76-.76A.77.77,0,0,0,186.32,146.63Z"/><path class="cls-30" d="M182.63,149.34H171.87a.83.83,0,0,0-.84.84v7.95a.83.83,0,0,0,.84.84h10.76a.83.83,0,0,0,.84-.84v-7.95A.87.87,0,0,0,182.63,149.34Zm-4.86,5.22v1.08a.55.55,0,0,1-.55.55.55.55,0,0,1-.55-.55v-1.08a1.08,1.08,0,0,1-.55-1,1.11,1.11,0,0,1,2.21,0A1,1,0,0,1,177.77,154.56Z"/><path class="cls-31" d="M181.62,149.34h-2.49v-1.29a1.87,1.87,0,0,0-3.73,0v1.29h-2.49v-1.29a4.36,4.36,0,1,1,8.71,0Z"/><path class="cls-31" d="M170.78,148.16h-2.6a.76.76,0,0,1-.76-.76.77.77,0,0,1,.76-.77h2.6a.77.77,0,0,1,.76.77A.76.76,0,0,1,170.78,148.16Z"/><path class="cls-31" d="M172.62,144.06a.7.7,0,0,1-.48-.18l-2-1.68a.76.76,0,1,1,1-1.18l2.05,1.68a.78.78,0,0,1,.1,1.07A.84.84,0,0,1,172.62,144.06Z"/><path class="cls-31" d="M177.26,142.28a.76.76,0,0,1-.76-.76v-2.63a.76.76,0,1,1,1.52,0v2.63A.76.76,0,0,1,177.26,142.28Z"/><path class="cls-31" d="M181.88,144.06a.7.7,0,0,1-.57-.29.77.77,0,0,1,.1-1.07l2.05-1.68a.77.77,0,0,1,1.07.1.78.78,0,0,1-.1,1.08l-2.05,1.68A.74.74,0,0,1,181.88,144.06Z"/><path class="cls-31" d="M186.32,148.16h-2.63a.76.76,0,0,1-.76-.76.77.77,0,0,1,.76-.77h2.63a.77.77,0,0,1,.76.77A.76.76,0,0,1,186.32,148.16Z"/><rect class="cls-1" x="177" y="115.67" width="1" height="15.83"/><polyline class="cls-1" points="176.83 130 174.5 130 177.5 135 180.5 130 178.17 130"/><rect class="cls-1" x="108.66" y="99.58" width="1" height="16"/><rect class="cls-1" x="43" y="115.5" width="1" height="15.83"/><polyline class="cls-1" points="42.83 130 40.5 130 43.5 135 46.5 130 44.17 130"/><line class="cls-32" x1="89.5" y1="0.48" x2="89.5" y2="15.48"/><rect class="cls-32" x="89" y="0.48" width="1" height="15"/><polyline class="cls-32" points="88.83 14 86.5 14 89.5 19 92.5 14 90.17 14"/><polygon class="cls-32" points="89.5 19.97 85.62 13.5 88.83 13.5 88.83 14.5 87.38 14.5 89.5 18.03 91.62 14.5 90.17 14.5 90.17 13.5 93.38 13.5 89.5 19.97"/><line class="cls-32" x1="109.5" x2="109.5" y2="15"/><rect class="cls-32" x="109" width="1" height="15"/><polyline class="cls-32" points="108.83 14 106.5 14 109.5 19 112.5 14 110.17 14"/><polygon class="cls-32" points="109.5 19.97 105.62 13.5 108.83 13.5 108.83 14.5 107.38 14.5 109.5 18.03 111.62 14.5 110.17 14.5 110.17 13.5 113.38 13.5 109.5 19.97"/><line class="cls-32" x1="129.5" x2="129.5" y2="15"/><rect class="cls-32" x="129" width="1" height="15"/><polyline class="cls-32" points="128.83 14 126.5 14 129.5 19 132.5 14 130.17 14"/><polygon class="cls-32" points="129.5 19.97 125.62 13.5 128.83 13.5 128.83 14.5 127.38 14.5 129.5 18.03 131.62 14.5 130.17 14.5 130.17 13.5 133.38 13.5 129.5 19.97"/><path class="cls-1" d="M97.77,43.76a4.92,4.92,0,0,1,1.44.22,39.48,39.48,0,0,1,5.71-5.25,4.75,4.75,0,0,1-.14-1.14A5,5,0,0,1,105,36a36.16,36.16,0,0,0-7.52-4.14,23.1,23.1,0,0,0-6.46,6,35.87,35.87,0,0,0,4.6,6.39A4.86,4.86,0,0,1,97.77,43.76Zm-4.9,4.9a5,5,0,0,1,.4-1.94A39.14,39.14,0,0,1,89,41.15a23,23,0,0,0,.79,22.09,39.37,39.37,0,0,1,4.05-11.63A4.88,4.88,0,0,1,92.87,48.66Zm16.8-16A4.86,4.86,0,0,1,113,34a38.87,38.87,0,0,1,8-2.48A23,23,0,0,0,101.49,30a38.64,38.64,0,0,1,5.7,3.43A4.85,4.85,0,0,1,109.67,32.7Zm7.32,23a4.77,4.77,0,0,1,1.27-1.64,35.67,35.67,0,0,0-6.68-12,4.83,4.83,0,0,1-1.91.39,4.89,4.89,0,0,1-2.84-.92,36.18,36.18,0,0,0-4.91,4.51,4.83,4.83,0,0,1,.74,2.58,5,5,0,0,1-.22,1.46A35.53,35.53,0,0,0,117,55.75Zm6.35,6.6c.06.93.1,1.86.1,2.81a39.67,39.67,0,0,1-.31,4.9,23,23,0,0,0,8.37-11.6,39,39,0,0,1-5.45.92A4.89,4.89,0,0,1,123.34,62.35ZM115.84,59a39.09,39.09,0,0,1-15.52-6.21,4.92,4.92,0,0,1-2.55.72,5.58,5.58,0,0,1-1-.1,35.5,35.5,0,0,0-4,13.71,23,23,0,0,0,7.86,5.51A39.2,39.2,0,0,1,115.84,59ZM125,34.43a35.75,35.75,0,0,0-10.48,2.67,4,4,0,0,1,0,.49,4.86,4.86,0,0,1-.51,2.15A39.32,39.32,0,0,1,121.49,53a4.9,4.9,0,0,1,4.42,3,36.26,36.26,0,0,0,6.45-1.26,24.41,24.41,0,0,0,.22-3.22A22.93,22.93,0,0,0,125,34.43Zm-6.71,27.22A35.77,35.77,0,0,0,104,73.79a23,23,0,0,0,15.29-1.46,36.1,36.1,0,0,0,.73-7.17c0-.89,0-1.77-.11-2.64A5,5,0,0,1,118.31,61.65Z"/><path class="cls-21" d="M186.07,179.08a8.83,8.83,0,1,1-8.82-8.82A8.82,8.82,0,0,1,186.07,179.08Z"/><path class="cls-22" d="M185.42,175.75H169.07a8.83,8.83,0,1,0,16.35,0Z"/><path class="cls-23" d="M186.06,178.57c0-.21,0-.41-.06-.62h-5.34v-1.89h4.88c-.08-.22-.16-.42-.25-.62H169.21a5.76,5.76,0,0,0-.26.62h4.88V178h-5.34c0,.21,0,.41-.06.62h2.29v1.9h-2.19c0,.21.07.41.12.62h5.18V183h-4.5c.1.21.21.42.33.62h1.06V185a9.52,9.52,0,0,0,1.2,1.09h1.91v1.1a6.62,6.62,0,0,0,.62.24v-1.34H180v1.34a6.62,6.62,0,0,0,.62-.24v-1.1h1.92a8.8,8.8,0,0,0,1.19-1.09V183.6h1.06c.12-.2.23-.41.34-.62h-4.51v-1.89h5.18c0-.21.09-.41.12-.62h-2.19v-1.9Zm-11.61-2.51H180V178h-5.59Zm-3.11,4.41v-1.9h5.6v1.9Zm5.6,5h-5.6v-1.9h5.6ZM174.45,183v-1.89H180V183Zm8.7.62v1.9h-5.59v-1.9Zm0-3.13h-5.59v-1.9h5.59Z"/><path class="cls-23" d="M172.52,175.89a.59.59,0,0,1,0-.14h-3.47a8.84,8.84,0,0,0,3.45,10.79Z"/><path class="cls-24" d="M172.52,181.09v-.62h-1.18v-1.9h1.18V178h-4c0,.21,0,.41-.06.62h2.29v1.9h-2.19c0,.21.07.41.12.62Z"/><path class="cls-24" d="M172.52,175.89a.65.65,0,0,1,.18-.45h-3.49a5.76,5.76,0,0,0-.26.62h3.57Z"/><path class="cls-24" d="M172.52,185.5h-1.18v-1.9h1.18V183h-3.19c.1.21.21.42.33.62h1.06V185a9.52,9.52,0,0,0,1.2,1.09h.6Z"/><path class="cls-25" d="M182.35,178.15l-1.29.41a2.75,2.75,0,0,0,.15-3.48,3.81,3.81,0,0,1-.83-2,.22.22,0,0,0-.4-.1,5.45,5.45,0,0,0-.65,1.37h0a3.78,3.78,0,0,0-1-2.8,2.58,2.58,0,0,1-.75-2.29.22.22,0,0,0-.34-.23,6.8,6.8,0,0,0-3.21,6.92h0c0,.2-.12.14-.16.1a5.28,5.28,0,0,1-.87-.92.24.24,0,0,0-.21-.08.21.21,0,0,0-.17.14,6.82,6.82,0,0,0,.49,5.7,4.79,4.79,0,0,0,4.3,2.15,4.94,4.94,0,0,0,5.3-4.61A.22.22,0,0,0,182.35,178.15Z"/><path class="cls-26" d="M173.74,176.14a.18.18,0,0,1,.08-.11l0,0a5.28,5.28,0,0,1-.87-.92.24.24,0,0,0-.21-.08.21.21,0,0,0-.17.14c-.92,2.57-.32,5.87,2.07,7.21A6.56,6.56,0,0,1,173.74,176.14Z"/><path class="cls-26" d="M174,175.91s0,.06,0,.08a.23.23,0,0,1,.18.09,6,6,0,0,0,.86.92s.16.09.16-.1h0a6.82,6.82,0,0,1,2.47-6.4,2.46,2.46,0,0,1-.11-1.28.22.22,0,0,0-.34-.23,6.8,6.8,0,0,0-3.21,6.92Z"/><path class="cls-26" d="M180.22,180.2l-.77.24a1.63,1.63,0,0,0,.09-2.06,2.22,2.22,0,0,1-.49-1.21.13.13,0,0,0-.24-.06,3.22,3.22,0,0,0-.39.81h0a2.24,2.24,0,0,0-.62-1.67,1.52,1.52,0,0,1-.44-1.36.13.13,0,0,0-.06-.14.12.12,0,0,0-.14,0,4.06,4.06,0,0,0-1.92,4.13h0c0,.12-.08.06-.09.05a2.94,2.94,0,0,1-.52-.55.13.13,0,0,0-.23,0c-.59,1.65-.12,3.76,1.54,4.43a6.51,6.51,0,0,0,1.42.15,6.63,6.63,0,0,0,1-.07,2.9,2.9,0,0,0,2-2.58A.14.14,0,0,0,180.22,180.2Z"/><path class="cls-27" d="M175.39,182.41a4,4,0,0,1-.29-3.39.11.11,0,0,1,.06-.07l0,0a2.94,2.94,0,0,1-.52-.55.13.13,0,0,0-.23,0,3.57,3.57,0,0,0,1.22,4.27A3.4,3.4,0,0,1,175.39,182.41Z"/><path class="cls-27" d="M175.22,178.88a.08.08,0,0,1,0,.05.14.14,0,0,1,.11.06,3.61,3.61,0,0,0,.51.54s.1.07.1-.05a4,4,0,0,1,1.47-3.82,1.34,1.34,0,0,1-.07-.77.13.13,0,0,0-.06-.14.12.12,0,0,0-.14,0,4.06,4.06,0,0,0-1.92,4.13Z"/><path class="cls-27" d="M177.43,179.87a.38.38,0,0,0-.49,0,2.07,2.07,0,0,0,0,3.1l0,0h.42l0,0a2.07,2.07,0,0,0,0-3.1Z"/><path class="cls-28" d="M177.07,181.48a2.06,2.06,0,0,1,.55-1.42,1.14,1.14,0,0,0-.19-.19.38.38,0,0,0-.49,0,2.07,2.07,0,0,0,0,3.1l0,0h.42l0,0,.14-.13A2.09,2.09,0,0,1,177.07,181.48Z"/><path class="cls-1" d="M80.46,85.68a2.11,2.11,0,0,1-.73,1.72,3.23,3.23,0,0,1-2.09.59H76.9v2.68H75.73V83.53h2.06a3.12,3.12,0,0,1,2,.54A2,2,0,0,1,80.46,85.68ZM76.9,87h.62a2.21,2.21,0,0,0,1.32-.31,1.14,1.14,0,0,0,.42-1,1.09,1.09,0,0,0-.38-.91,1.8,1.8,0,0,0-1.17-.31H76.9Z"/><path class="cls-1" d="M84.5,85.17a2.32,2.32,0,0,1,.57,0L85,86.29a2.1,2.1,0,0,0-.51-.06,1.45,1.45,0,0,0-1.11.45,1.59,1.59,0,0,0-.43,1.16v2.83H81.76V85.26h.9l.15,1h.06a2.09,2.09,0,0,1,.7-.77A1.66,1.66,0,0,1,84.5,85.17Z"/><path class="cls-1" d="M88.43,90.76a2.6,2.6,0,0,1-2-.73,2.82,2.82,0,0,1-.71-2,3.07,3.07,0,0,1,.66-2.08,2.28,2.28,0,0,1,1.81-.75,2.2,2.2,0,0,1,1.69.65,2.43,2.43,0,0,1,.62,1.78v.62h-3.6a1.77,1.77,0,0,0,.43,1.21,1.47,1.47,0,0,0,1.13.42,4.19,4.19,0,0,0,.89-.09,4.59,4.59,0,0,0,.88-.3v.94a3.85,3.85,0,0,1-.85.28A4.79,4.79,0,0,1,88.43,90.76ZM88.22,86a1.18,1.18,0,0,0-.88.34,1.76,1.76,0,0,0-.39,1H89.4a1.46,1.46,0,0,0-.32-1A1.09,1.09,0,0,0,88.22,86Z"/><path class="cls-1" d="M96.39,90.67H95.23V87.33a1.47,1.47,0,0,0-.23-.92.88.88,0,0,0-.73-.31,1.14,1.14,0,0,0-1,.44A2.57,2.57,0,0,0,93,88v2.7H91.84V85.26h.89l.17.71h0a1.55,1.55,0,0,1,.65-.59,2.14,2.14,0,0,1,1-.21A1.65,1.65,0,0,1,96.2,86h.07a1.66,1.66,0,0,1,.68-.63,2.12,2.12,0,0,1,1-.22,1.79,1.79,0,0,1,1.41.49,2.11,2.11,0,0,1,.44,1.48v3.53H98.65V87.33a1.47,1.47,0,0,0-.24-.92.89.89,0,0,0-.74-.31,1.12,1.12,0,0,0-1,.42,2.14,2.14,0,0,0-.31,1.28Z"/><path class="cls-1" d="M101.33,83.83a.61.61,0,0,1,.17-.47.65.65,0,0,1,.48-.17.59.59,0,0,1,.64.64.66.66,0,0,1-.17.47.64.64,0,0,1-.47.16.65.65,0,0,1-.48-.16A.62.62,0,0,1,101.33,83.83Zm1.21,6.84H101.4V85.26h1.14Z"/><path class="cls-1" d="M108,90.67l-.16-.71h-.06a1.64,1.64,0,0,1-.68.59,2.31,2.31,0,0,1-1,.21,2,2,0,0,1-1.46-.49,2,2,0,0,1-.48-1.48V85.26h1.15v3.33a1.41,1.41,0,0,0,.26.93,1,1,0,0,0,.79.31,1.28,1.28,0,0,0,1.07-.43,2.42,2.42,0,0,0,.33-1.44v-2.7h1.16v5.41Z"/><path class="cls-1" d="M115.08,90.67h-1.15V87.33a1.54,1.54,0,0,0-.23-.92.89.89,0,0,0-.74-.31,1.12,1.12,0,0,0-1,.44,2.48,2.48,0,0,0-.31,1.43v2.7h-1.15V85.26h.9l.16.71h.06a1.55,1.55,0,0,1,.65-.59,2.12,2.12,0,0,1,.94-.21,1.64,1.64,0,0,1,1.65.85H115a1.63,1.63,0,0,1,.67-.63,2.16,2.16,0,0,1,1-.22,1.82,1.82,0,0,1,1.41.49,2.16,2.16,0,0,1,.44,1.48v3.53h-1.15V87.33a1.54,1.54,0,0,0-.23-.92.9.9,0,0,0-.74-.31,1.14,1.14,0,0,0-1,.42,2.21,2.21,0,0,0-.31,1.28Z"/><path class="cls-1" d="M125.85,84.42a1.91,1.91,0,0,0-1.58.72,3,3,0,0,0-.58,2,3.05,3.05,0,0,0,.56,2,1.94,1.94,0,0,0,1.6.68,4.31,4.31,0,0,0,.88-.09,8.32,8.32,0,0,0,.88-.24v1a5.37,5.37,0,0,1-1.9.31,3,3,0,0,1-2.41-1,4,4,0,0,1-.84-2.71,4.38,4.38,0,0,1,.41-1.95,2.82,2.82,0,0,1,1.18-1.28,3.52,3.52,0,0,1,1.81-.45,4.57,4.57,0,0,1,2,.46l-.42,1a7.52,7.52,0,0,0-.76-.3A3,3,0,0,0,125.85,84.42Z"/><path class="cls-1" d="M135,87a3.53,3.53,0,0,1-1,2.7,3.93,3.93,0,0,1-2.82.94h-2V83.53h2.21a3.66,3.66,0,0,1,2.65.91A3.47,3.47,0,0,1,135,87Zm-1.23,0c0-1.71-.8-2.57-2.4-2.57h-1v5.18h.83A2.29,2.29,0,0,0,133.73,87.07Z"/><path class="cls-1" d="M142.44,90.67H141L137.5,85h0l0,.31c.05.61.07,1.16.07,1.66v3.72h-1.06V83.53h1.42l3.5,5.66h0c0-.08,0-.35,0-.82s0-.84,0-1.1V83.53h1.07Z"/><text class="cls-33" transform="translate(96.05 346.71)"><tspan class="cls-34">R</tspan><tspan x="7.23" y="0">edis</tspan><tspan x="-20.95" y="14.4">Object Cache</tspan></text><text class="cls-33" transform="translate(49.63 466.71)">MariaDB Gale<tspan class="cls-35" x="71.24" y="0">r</tspan><tspan x="75.36" y="0">a Cluster</tspan></text><rect class="cls-36" x="84.25" y="399.7" width="52" height="52" rx="5.66"/><path class="cls-37" d="M130.59,400.7a4.68,4.68,0,0,1,4.66,4.66V446a4.68,4.68,0,0,1-4.66,4.67H89.91A4.68,4.68,0,0,1,85.25,446V405.36a4.68,4.68,0,0,1,4.66-4.66h40.68m0-2H89.91a6.67,6.67,0,0,0-6.66,6.66V446a6.67,6.67,0,0,0,6.66,6.67h40.68a6.67,6.67,0,0,0,6.66-6.67V405.36a6.67,6.67,0,0,0-6.66-6.66Z"/><rect class="cls-36" x="151.25" y="399.7" width="52" height="52" rx="5.66"/><path class="cls-37" d="M197.59,400.7a4.68,4.68,0,0,1,4.66,4.66V446a4.68,4.68,0,0,1-4.66,4.67H156.91a4.68,4.68,0,0,1-4.66-4.67V405.36a4.68,4.68,0,0,1,4.66-4.66h40.68m0-2H156.91a6.67,6.67,0,0,0-6.66,6.66V446a6.67,6.67,0,0,0,6.66,6.67h40.68a6.67,6.67,0,0,0,6.66-6.67V405.36a6.67,6.67,0,0,0-6.66-6.66Z"/><rect class="cls-36" x="17.25" y="399.7" width="52" height="52" rx="5.66"/><path class="cls-37" d="M63.59,400.7a4.68,4.68,0,0,1,4.66,4.66V446a4.68,4.68,0,0,1-4.66,4.67H22.91A4.68,4.68,0,0,1,18.25,446V405.36a4.68,4.68,0,0,1,4.66-4.66H63.59m0-2H22.91a6.67,6.67,0,0,0-6.66,6.66V446a6.67,6.67,0,0,0,6.66,6.67H63.59A6.67,6.67,0,0,0,70.25,446V405.36a6.67,6.67,0,0,0-6.66-6.66Z"/><path class="cls-38" d="M43.5,432.86c-6,0-10.92-1.73-10.92-3.87v5.69h0c.33,2,5.08,3.64,10.9,3.64s10.57-1.61,10.9-3.64h0V429C54.42,431.13,49.53,432.86,43.5,432.86Z"/><path class="cls-38" d="M32.58,428.76V429a.9.9,0,0,1,0-.23Z"/><path class="cls-38" d="M54.4,428.76a.9.9,0,0,1,0,.23v-.23Z"/><path class="cls-37" d="M43.5,427.4c-6,0-10.92-1.73-10.92-3.87v5.69h0c.33,2,5.08,3.64,10.9,3.64s10.57-1.61,10.9-3.64h0v-5.69C54.42,425.67,49.53,427.4,43.5,427.4Z"/><path class="cls-37" d="M32.58,423.3v.23a.9.9,0,0,1,0-.23Z"/><path class="cls-37" d="M54.4,423.3a.9.9,0,0,1,0,.23v-.23Z"/><ellipse class="cls-37" cx="43.5" cy="418.07" rx="10.92" ry="3.87"/><path class="cls-38" d="M43.5,421.94c-6,0-10.92-1.74-10.92-3.87v5.69h0c.33,2,5.08,3.64,10.9,3.64s10.57-1.61,10.9-3.64h0v-5.69C54.42,420.2,49.53,421.94,43.5,421.94Z"/><path class="cls-38" d="M32.58,417.84v.23a.86.86,0,0,1,0-.23Z"/><path class="cls-38" d="M54.4,417.84a.86.86,0,0,1,0,.23v-.23Z"/><path class="cls-38" d="M110.33,432.86c-6,0-10.93-1.73-10.93-3.87v5.69h0c.33,2,5.09,3.64,10.91,3.64s10.57-1.61,10.9-3.64h0V429C121.25,431.13,116.36,432.86,110.33,432.86Z"/><path class="cls-38" d="M99.4,428.76V429a1.79,1.79,0,0,1,0-.23Z"/><path class="cls-38" d="M121.23,428.76a1.79,1.79,0,0,1,0,.23v-.23Z"/><path class="cls-37" d="M110.33,427.4c-6,0-10.93-1.73-10.93-3.87v5.69h0c.33,2,5.09,3.64,10.91,3.64s10.57-1.61,10.9-3.64h0v-5.69C121.25,425.67,116.36,427.4,110.33,427.4Z"/><path class="cls-37" d="M99.4,423.3v.23a1.79,1.79,0,0,1,0-.23Z"/><path class="cls-37" d="M121.23,423.3a1.79,1.79,0,0,1,0,.23v-.23Z"/><ellipse class="cls-37" cx="110.33" cy="418.07" rx="10.92" ry="3.87"/><path class="cls-38" d="M110.33,421.94c-6,0-10.93-1.74-10.93-3.87v5.69h0c.33,2,5.09,3.64,10.91,3.64s10.57-1.61,10.9-3.64h0v-5.69C121.25,420.2,116.36,421.94,110.33,421.94Z"/><path class="cls-38" d="M99.4,417.84v.23a1.64,1.64,0,0,1,0-.23Z"/><path class="cls-38" d="M121.23,417.84a1.64,1.64,0,0,1,0,.23v-.23Z"/><path class="cls-38" d="M177.33,432.86c-6,0-10.93-1.73-10.93-3.87v5.69h0c.33,2,5.09,3.64,10.91,3.64s10.57-1.61,10.9-3.64h0V429C188.25,431.13,183.36,432.86,177.33,432.86Z"/><path class="cls-38" d="M166.4,428.76V429a1.79,1.79,0,0,1,0-.23Z"/><path class="cls-38" d="M188.23,428.76a1.79,1.79,0,0,1,0,.23v-.23Z"/><path class="cls-37" d="M177.33,427.4c-6,0-10.93-1.73-10.93-3.87v5.69h0c.33,2,5.09,3.64,10.91,3.64s10.57-1.61,10.9-3.64h0v-5.69C188.25,425.67,183.36,427.4,177.33,427.4Z"/><path class="cls-37" d="M166.4,423.3v.23a1.79,1.79,0,0,1,0-.23Z"/><path class="cls-37" d="M188.23,423.3a1.79,1.79,0,0,1,0,.23v-.23Z"/><ellipse class="cls-37" cx="177.33" cy="418.07" rx="10.92" ry="3.87"/><path class="cls-38" d="M177.33,421.94c-6,0-10.93-1.74-10.93-3.87v5.69h0c.33,2,5.09,3.64,10.91,3.64s10.57-1.61,10.9-3.64h0v-5.69C188.25,420.2,183.36,421.94,177.33,421.94Z"/><path class="cls-38" d="M166.4,417.84v.23a1.64,1.64,0,0,1,0-.23Z"/><path class="cls-38" d="M188.23,417.84a1.64,1.64,0,0,1,0,.23v-.23Z"/><rect class="cls-39" x="84.25" y="490.7" width="52" height="52" rx="5.66"/><path class="cls-32" d="M130.59,491.7a4.68,4.68,0,0,1,4.66,4.66V537a4.68,4.68,0,0,1-4.66,4.67H89.91A4.68,4.68,0,0,1,85.25,537V496.36a4.68,4.68,0,0,1,4.66-4.66h40.68m0-2H89.91a6.67,6.67,0,0,0-6.66,6.66V537a6.67,6.67,0,0,0,6.66,6.67h40.68a6.67,6.67,0,0,0,6.66-6.67V496.36a6.67,6.67,0,0,0-6.66-6.66Z"/><rect class="cls-39" x="151.25" y="490.7" width="52" height="52" rx="5.66"/><path class="cls-32" d="M197.59,491.7a4.68,4.68,0,0,1,4.66,4.66V537a4.68,4.68,0,0,1-4.66,4.67H156.91a4.68,4.68,0,0,1-4.66-4.67V496.36a4.68,4.68,0,0,1,4.66-4.66h40.68m0-2H156.91a6.67,6.67,0,0,0-6.66,6.66V537a6.67,6.67,0,0,0,6.66,6.67h40.68a6.67,6.67,0,0,0,6.66-6.67V496.36a6.67,6.67,0,0,0-6.66-6.66Z"/><rect class="cls-39" x="17.25" y="490.7" width="52" height="52" rx="5.66"/><path class="cls-32" d="M63.59,491.7a4.68,4.68,0,0,1,4.66,4.66V537a4.68,4.68,0,0,1-4.66,4.67H22.91A4.68,4.68,0,0,1,18.25,537V496.36a4.68,4.68,0,0,1,4.66-4.66H63.59m0-2H22.91a6.67,6.67,0,0,0-6.66,6.66V537a6.67,6.67,0,0,0,6.66,6.67H63.59A6.67,6.67,0,0,0,70.25,537V496.36a6.67,6.67,0,0,0-6.66-6.66Z"/><path class="cls-40" d="M43,512.8a2.39,2.39,0,1,0,2.39,2.39A2.39,2.39,0,0,0,43,512.8Zm0,4.07a1.68,1.68,0,1,1,1.68-1.68A1.68,1.68,0,0,1,43,516.87Z"/><path class="cls-40" d="M49.75,505H36.23a1.41,1.41,0,0,0-1.41,1.41v20.37a1.41,1.41,0,0,0,1.41,1.41H49.75a1.41,1.41,0,0,0,1.41-1.41V506.42A1.41,1.41,0,0,0,49.75,505Zm-12.69,1.53a.7.7,0,0,1,.7.7.7.7,0,0,1-.7.71.71.71,0,0,1-.71-.71A.7.7,0,0,1,37.06,506.54Zm0,20.13a.71.71,0,0,1-.71-.71.7.7,0,0,1,.71-.7.7.7,0,0,1,.7.7A.7.7,0,0,1,37.06,526.67Zm6.66-5.17v-2a.35.35,0,0,0-.35-.35.36.36,0,0,0-.36.35v2.93a.39.39,0,0,1-.1.25l-1.55,1.62a.38.38,0,0,1-.26.11.31.31,0,0,1-.24-.1.36.36,0,0,1,0-.5l1.46-1.52v-.74a6.37,6.37,0,1,1,1.41,0Zm5.2,5.17a.7.7,0,0,1-.7-.71.7.7,0,0,1,.7-.7.7.7,0,0,1,.71.7A.71.71,0,0,1,48.92,526.67Zm0-18.72a.7.7,0,0,1-.7-.71.7.7,0,0,1,.7-.7.7.7,0,0,1,.71.7A.71.71,0,0,1,48.92,508Z"/><path class="cls-40" d="M111,512.8a2.39,2.39,0,1,0,2.39,2.39A2.39,2.39,0,0,0,111,512.8Zm0,4.07a1.68,1.68,0,1,1,1.68-1.68A1.68,1.68,0,0,1,111,516.87Z"/><path class="cls-40" d="M117.75,505H104.23a1.41,1.41,0,0,0-1.41,1.41v20.37a1.41,1.41,0,0,0,1.41,1.41h13.52a1.41,1.41,0,0,0,1.41-1.41V506.42A1.41,1.41,0,0,0,117.75,505Zm-12.69,1.53a.7.7,0,0,1,.7.7.7.7,0,0,1-.7.71.71.71,0,0,1-.71-.71A.7.7,0,0,1,105.06,506.54Zm0,20.13a.71.71,0,0,1-.71-.71.7.7,0,0,1,.71-.7.7.7,0,0,1,.7.7A.7.7,0,0,1,105.06,526.67Zm6.66-5.17v-2a.35.35,0,0,0-.35-.35.36.36,0,0,0-.36.35v2.93a.39.39,0,0,1-.1.25l-1.55,1.62a.38.38,0,0,1-.26.11.31.31,0,0,1-.24-.1.36.36,0,0,1,0-.5l1.46-1.52v-.74a6.37,6.37,0,1,1,1.41,0Zm5.2,5.17a.7.7,0,0,1-.7-.71.7.7,0,0,1,.7-.7.7.7,0,0,1,.71.7A.71.71,0,0,1,116.92,526.67Zm0-18.72a.7.7,0,0,1-.7-.71.7.7,0,0,1,.7-.7.7.7,0,0,1,.71.7A.71.71,0,0,1,116.92,508Z"/><path class="cls-40" d="M177,512.8a2.39,2.39,0,1,0,2.39,2.39A2.39,2.39,0,0,0,177,512.8Zm0,4.07a1.68,1.68,0,1,1,1.68-1.68A1.68,1.68,0,0,1,177,516.87Z"/><path class="cls-40" d="M183.75,505H170.23a1.41,1.41,0,0,0-1.41,1.41v20.37a1.41,1.41,0,0,0,1.41,1.41h13.52a1.41,1.41,0,0,0,1.41-1.41V506.42A1.41,1.41,0,0,0,183.75,505Zm-12.69,1.53a.7.7,0,0,1,.7.7.7.7,0,0,1-.7.71.71.71,0,0,1-.71-.71A.7.7,0,0,1,171.06,506.54Zm0,20.13a.71.71,0,0,1-.71-.71.7.7,0,0,1,.71-.7.7.7,0,0,1,.7.7A.7.7,0,0,1,171.06,526.67Zm6.66-5.17v-2a.35.35,0,0,0-.35-.35.36.36,0,0,0-.36.35v2.93a.39.39,0,0,1-.1.25l-1.55,1.62a.38.38,0,0,1-.26.11.31.31,0,0,1-.24-.1.36.36,0,0,1,0-.5l1.46-1.52v-.74a6.37,6.37,0,1,1,1.41,0Zm5.2,5.17a.7.7,0,0,1-.7-.71.7.7,0,0,1,.7-.7.7.7,0,0,1,.71.7A.71.71,0,0,1,182.92,526.67Zm0-18.72a.7.7,0,0,1-.7-.71.7.7,0,0,1,.7-.7.7.7,0,0,1,.71.7A.71.71,0,0,1,182.92,508Z"/><text/><text class="cls-33" transform="translate(84.7 295.08)">L<tspan class="cls-41" x="5.97" y="0">i</tspan><tspan x="8.74" y="0">teSpeed</tspan><tspan class="cls-42" x="-4.65" y="14.4">W</tspan><tspan x="5.73" y="14.4">eb </tspan><tspan class="cls-41" x="22.43" y="14.4">S</tspan><tspan x="29.14" y="14.4">er</tspan><tspan class="cls-43" x="39.78" y="14.4">v</tspan><tspan x="45.66" y="14.4">er</tspan></text><text/><text class="cls-33" transform="translate(67.95 559.08)">GlusterFS Cluster</text><text class="cls-33" transform="translate(83.95 217.08)">L<tspan class="cls-41" x="5.97" y="0">i</tspan><tspan x="8.74" y="0">teSpeed</tspan><tspan class="cls-42" x="0" y="14.4">W</tspan><tspan x="10.38" y="14.4">eb ADC</tspan></text><text class="cls-33" transform="translate(98.72 173.27)"><tspan class="cls-42">W</tspan><tspan x="10.38" y="0">eb</tspan><tspan x="-20.54" y="14.4">App Fi</tspan><tspan class="cls-44" x="12.67" y="14.4">r</tspan><tspan x="16.93" y="14.4">e</tspan><tspan class="cls-45" x="23.25" y="14.4">w</tspan><tspan x="32.05" y="14.4">a</tspan><tspan class="cls-46" x="38.35" y="14.4">l</tspan><tspan x="41.13" y="14.4">l</tspan></text><text class="cls-33" transform="translate(63.39 140.27)">Le<tspan class="cls-47" x="12.29" y="0">t</tspan><tspan class="cls-48" x="16.41" y="0">’</tspan><tspan x="18.54" y="0">s Encrypt </tspan><tspan class="cls-49" x="71.3" y="0">S</tspan><tspan x="77.85" y="0">SL</tspan></text></g></g></svg>