<svg width="72" height="38" viewBox="0 0 72 38" fill="none" xmlns="http://www.w3.org/2000/svg">
<circle cx="58.4348" cy="19.8261" r="13.5652" fill="#434B5B"/>
<circle cx="58.4348" cy="19.8261" r="12.5652" stroke="#117AC9" stroke-opacity="0.5" stroke-width="2"/>
<circle cx="13.5652" cy="19.8261" r="13.5652" fill="#434B5B"/>
<circle cx="13.5652" cy="19.8261" r="12.5652" stroke="#117AC9" stroke-opacity="0.5" stroke-width="2"/>
<path d="M5.90732 19.4726C5.71206 19.6678 5.71206 19.9844 5.90732 20.1797L9.0893 23.3616C9.28457 23.5569 9.60115 23.5569 9.79641 23.3616C9.99167 23.1664 9.99167 22.8498 9.79641 22.6545L6.96798 19.8261L9.79641 16.9977C9.99167 16.8024 9.99167 16.4858 9.79641 16.2906C9.60115 16.0953 9.28457 16.0953 9.08931 16.2906L5.90732 19.4726ZM6.26088 20.3261L14.6087 20.3261L14.6087 19.3261L6.26088 19.3261L6.26088 20.3261Z" fill="#117AC9"/>
<path d="M66.0927 19.4726C66.2879 19.6678 66.2879 19.9844 66.0927 20.1797L62.9107 23.3616C62.7154 23.5569 62.3989 23.5569 62.2036 23.3616C62.0083 23.1664 62.0083 22.8498 62.2036 22.6545L65.032 19.8261L62.2036 16.9977C62.0083 16.8024 62.0083 16.4858 62.2036 16.2906C62.3988 16.0953 62.7154 16.0953 62.9107 16.2906L66.0927 19.4726ZM65.7391 20.3261L57.3913 20.3261L57.3913 19.3261L65.7391 19.3261L65.7391 20.3261Z" fill="#117AC9"/>
<circle cx="36" cy="19" r="19" fill="#434B5B"/>
<path d="M21.0126 19C21.0126 24.9392 24.4671 30.0545 29.4629 32.486L22.3147 12.9014C21.4563 14.82 21.0126 16.8981 21.0126 19ZM36 33.9874C37.7406 33.9874 39.4147 33.6818 40.9825 33.1371L40.8762 32.9378L36.2657 20.3154L31.7748 33.3762C33.1035 33.7748 34.5252 33.9874 36 33.9874ZM38.0594 11.9713L43.4804 28.0881L44.9818 23.0923C45.6196 21.0196 46.1112 19.5315 46.1112 18.2426C46.1112 16.3825 45.4469 15.107 44.8888 14.1238C44.1182 12.8748 43.414 11.8252 43.414 10.6028C43.414 9.22097 44.4504 7.94545 45.9385 7.94545H46.1245C43.3629 5.41022 39.7488 4.00634 36 4.01258C33.5178 4.01212 31.0744 4.62872 28.8896 5.80691C26.7049 6.98511 24.8473 8.68795 23.4839 10.7622L24.4406 10.7888C26.0084 10.7888 28.4266 10.5895 28.4266 10.5895C29.2504 10.5496 29.3434 11.7322 28.5329 11.8252C28.5329 11.8252 27.7224 11.9315 26.8056 11.9713L32.2797 28.2077L35.5615 18.3755L33.2231 11.9713C32.6993 11.9424 32.1764 11.8981 31.6553 11.8385C30.8448 11.7853 30.9378 10.5496 31.7483 10.5895C31.7483 10.5895 34.2196 10.7888 35.6944 10.7888C37.2622 10.7888 39.6804 10.5895 39.6804 10.5895C40.4909 10.5496 40.5972 11.7322 39.7867 11.8252C39.7867 11.8252 38.9762 11.9182 38.0594 11.9713ZM43.5336 31.9545C45.8009 30.6362 47.6825 28.746 48.9905 26.4727C50.2985 24.1994 50.9871 21.6227 50.9874 19C50.9874 16.3958 50.3231 13.951 49.1539 11.8119C49.3913 14.1653 49.035 16.5408 48.1175 18.721L43.5336 31.9545ZM36 36.2727C31.419 36.2727 27.0256 34.4529 23.7863 31.2137C20.5471 27.9744 18.7273 23.581 18.7273 19C18.7273 14.419 20.5471 10.0256 23.7863 6.78633C27.0256 3.54706 31.419 1.72726 36 1.72726C40.581 1.72726 44.9744 3.54706 48.2137 6.78633C51.4529 10.0256 53.2727 14.419 53.2727 19C53.2727 23.581 51.4529 27.9744 48.2137 31.2137C44.9744 34.4529 40.581 36.2727 36 36.2727Z" fill="#1B89DB"/>
</svg>
