<svg width="72" height="44" viewBox="0 0 72 44" fill="none" xmlns="http://www.w3.org/2000/svg">
<path d="M70.3097 21.8192C70.3097 23.7234 69.4113 25.5793 67.7004 27.3129C65.9874 29.0486 63.4837 30.6347 60.3505 31.9775C54.0859 34.6624 45.3966 36.3352 35.7724 36.3352C26.1482 36.3352 17.4588 34.6624 11.1942 31.9775C8.061 30.6347 5.55738 29.0486 3.84433 27.3129C2.13339 25.5793 1.23505 23.7234 1.23505 21.8192C1.23505 19.915 2.13339 18.0591 3.84433 16.3255C5.55738 14.5897 8.061 13.0037 11.1942 11.6609C17.4588 8.97602 26.1482 7.3032 35.7724 7.3032C45.3966 7.3032 54.0859 8.97602 60.3505 11.6609C63.4837 13.0037 65.9874 14.5897 67.7004 16.3255C69.4113 18.0591 70.3097 19.915 70.3097 21.8192Z" stroke="#117AC9" stroke-opacity="0.5"/>
<path d="M65.6825 4.55044C66.6346 6.19952 66.7846 8.25593 66.1697 10.6128C65.554 12.9725 64.1788 15.5979 62.1368 18.3274C58.0539 23.7848 51.3651 29.5782 43.0303 34.3903C34.6955 39.2024 26.3339 42.0984 19.5662 42.9056C16.1814 43.3093 13.2201 43.1875 10.8687 42.5408C8.52016 41.8949 6.81424 40.7368 5.86214 39.0878C4.91004 37.4387 4.76009 35.3823 5.375 33.0254C5.99067 30.6657 7.36582 28.0403 9.40785 25.3108C13.4908 19.8534 20.1795 14.06 28.5143 9.24788C36.8491 4.43578 45.2107 1.53981 51.9785 0.732639C55.3633 0.328938 58.3246 0.450722 60.676 1.09741C63.0245 1.7433 64.7304 2.90136 65.6825 4.55044Z" stroke="#117AC9" stroke-opacity="0.5"/>
<path d="M65.6825 39.0878C64.7304 40.7368 63.0245 41.8949 60.676 42.5408C58.3246 43.1875 55.3633 43.3093 51.9785 42.9056C45.2107 42.0984 36.8491 39.2024 28.5143 34.3903C20.1795 29.5782 13.4908 23.7848 9.40785 18.3274C7.36582 15.5979 5.99067 12.9725 5.375 10.6128C4.76009 8.25593 4.91004 6.19952 5.86214 4.55044C6.81424 2.90136 8.52016 1.7433 10.8687 1.09741C13.2201 0.450722 16.1814 0.328938 19.5662 0.732639C26.3339 1.53981 34.6955 4.43578 43.0303 9.24788C51.3651 14.06 58.0539 19.8534 62.1368 25.3108C64.1788 28.0403 65.554 30.6657 66.1697 33.0254C66.7846 35.3823 66.6346 37.4387 65.6825 39.0878Z" stroke="#117AC9" stroke-opacity="0.5"/>
<circle cx="36" cy="22.3676" r="20.0597" fill="#434B5B"/>
<path d="M20.1766 22.3676C20.1766 28.6381 23.8239 34.0387 29.0983 36.6058L21.5514 15.9289C20.6451 17.9545 20.1767 20.1486 20.1766 22.3676ZM36 38.191C37.8376 38.191 39.6051 37.8683 41.2604 37.2932L41.1481 37.0828L36.2805 23.7564L31.5391 37.5457C32.9419 37.9665 34.4429 38.191 36 38.191ZM38.1743 14.947L43.8976 31.9626L45.4827 26.6882C46.1561 24.4999 46.6751 22.9288 46.6751 21.5681C46.6751 19.6042 45.9737 18.2575 45.3845 17.2195C44.5709 15.9008 43.8275 14.7926 43.8275 13.5021C43.8275 12.0432 44.9216 10.6965 46.4927 10.6965H46.6891C43.7735 8.01992 39.9579 6.53773 36 6.54432C33.3793 6.54383 30.7996 7.19483 28.493 8.43873C26.1864 9.68264 24.2252 11.4805 22.7858 13.6704L23.7958 13.6985C25.4511 13.6985 28.0041 13.4881 28.0041 13.4881C28.8739 13.446 28.972 14.6945 28.1164 14.7926C28.1164 14.7926 27.2607 14.9049 26.2927 14.947L32.0722 32.0889L35.537 21.7083L33.0682 14.947C32.5151 14.9164 31.9631 14.8697 31.4129 14.8067C30.5572 14.7506 30.6554 13.446 31.5111 13.4881C31.5111 13.4881 34.1202 13.6985 35.6773 13.6985C37.3326 13.6985 39.8857 13.4881 39.8857 13.4881C40.7413 13.446 40.8536 14.6945 39.9979 14.7926C39.9979 14.7926 39.1422 14.8908 38.1743 14.947ZM43.9537 36.0447C46.3475 34.6529 48.3341 32.6572 49.715 30.2571C51.096 27.8571 51.8229 25.1366 51.8233 22.3676C51.8233 19.6182 51.1219 17.0371 49.8874 14.7786C50.1381 17.2633 49.7619 19.7712 48.7933 22.0731L43.9537 36.0447ZM36 40.6037C31.1634 40.6037 26.525 38.6824 23.1051 35.2625C19.6852 31.8426 17.7639 27.2042 17.7639 22.3676C17.7639 17.5311 19.6852 12.8927 23.1051 9.47278C26.525 6.05284 31.1634 4.13155 36 4.13155C40.8365 4.13155 45.4749 6.05284 48.8948 9.47278C52.3148 12.8927 54.2361 17.5311 54.2361 22.3676C54.2361 27.2042 52.3148 31.8426 48.8948 35.2625C45.4749 38.6824 40.8365 40.6037 36 40.6037Z" fill="#1B89DB"/>
<circle cx="6.96908" cy="29.3751" r="6.96908" fill="#434B5B"/>
<path d="M1.47178 29.3751C1.47178 31.5535 2.73889 33.4298 4.57132 34.3217L1.94939 27.1382C1.63455 27.8419 1.4718 28.6041 1.47178 29.3751ZM6.96907 34.8724C7.6075 34.8724 8.22156 34.7603 8.79663 34.5605L8.75764 34.4874L7.06654 29.8576L5.41931 34.6482C5.90665 34.7944 6.42812 34.8724 6.96907 34.8724ZM7.72446 26.797L9.71284 32.7085L10.2635 30.8761C10.4975 30.1158 10.6778 29.57 10.6778 29.0973C10.6778 28.415 10.4341 27.9471 10.2294 27.5865C9.94677 27.1284 9.68848 26.7434 9.68848 26.295C9.68848 25.7882 10.0686 25.3203 10.6144 25.3203H10.6827C9.66973 24.3904 8.34412 23.8755 6.96907 23.8778C6.05861 23.8776 5.16239 24.1038 4.36104 24.5359C3.55968 24.9681 2.87832 25.5927 2.37825 26.3535L2.72914 26.3633C3.30421 26.3633 4.19119 26.2902 4.19119 26.2902C4.49334 26.2755 4.52746 26.7093 4.23018 26.7434C4.23018 26.7434 3.93289 26.7824 3.59662 26.797L5.6045 32.7524L6.80825 29.146L5.95051 26.797C5.75839 26.7864 5.56661 26.7702 5.37544 26.7483C5.07816 26.7288 5.11228 26.2755 5.40956 26.2902C5.40956 26.2902 6.31603 26.3633 6.85698 26.3633C7.43205 26.3633 8.31903 26.2902 8.31903 26.2902C8.61631 26.2755 8.6553 26.7093 8.35802 26.7434C8.35802 26.7434 8.06073 26.7775 7.72446 26.797ZM9.73234 34.1267C10.564 33.6432 11.2541 32.9498 11.7339 32.116C12.2137 31.2822 12.4662 30.3371 12.4664 29.3751C12.4664 28.4199 12.2227 27.5232 11.7938 26.7385C11.8809 27.6018 11.7502 28.473 11.4137 29.2727L9.73234 34.1267ZM6.96907 35.7106C5.28879 35.7106 3.67732 35.0431 2.48918 33.855C1.30104 32.6668 0.633545 31.0554 0.633545 29.3751C0.633545 27.6948 1.30104 26.0833 2.48918 24.8952C3.67732 23.707 5.28879 23.0396 6.96907 23.0396C8.64936 23.0396 10.2608 23.707 11.449 24.8952C12.6371 26.0833 13.3046 27.6948 13.3046 29.3751C13.3046 31.0554 12.6371 32.6668 11.449 33.855C10.2608 35.0431 8.64936 35.7106 6.96907 35.7106Z" fill="#1B89DB"/>
<circle cx="65.0309" cy="14.3591" r="6.96908" fill="#434B5B"/>
<path d="M59.5336 14.3591C59.5336 16.5375 60.8007 18.4138 62.6332 19.3057L60.0112 12.1222C59.6964 12.8259 59.5336 13.5881 59.5336 14.3591ZM65.0309 19.8564C65.6693 19.8564 66.2834 19.7443 66.8585 19.5445L66.8195 19.4714L65.1284 14.8416L63.4811 19.6322C63.9685 19.7784 64.49 19.8564 65.0309 19.8564ZM65.7863 11.781L67.7747 17.6925L68.3254 15.8601C68.5593 15.0999 68.7396 14.554 68.7396 14.0813C68.7396 13.399 68.496 12.9312 68.2913 12.5705C68.0086 12.1124 67.7503 11.7274 67.7503 11.279C67.7503 10.7722 68.1304 10.3043 68.6763 10.3043H68.7445C67.7316 9.37444 66.406 8.8595 65.0309 8.86179C64.1205 8.86162 63.2242 9.08779 62.4229 9.51995C61.6215 9.9521 60.9402 10.5767 60.4401 11.3375L60.791 11.3473C61.366 11.3473 62.253 11.2742 62.253 11.2742C62.5552 11.2595 62.5893 11.6933 62.292 11.7274C62.292 11.7274 61.9947 11.7664 61.6585 11.781L63.6663 17.7364L64.8701 14.13L64.0124 11.781C63.8202 11.7704 63.6285 11.7542 63.4373 11.7323C63.14 11.7128 63.1741 11.2595 63.4714 11.2742C63.4714 11.2742 64.3779 11.3473 64.9188 11.3473C65.4939 11.3473 66.3809 11.2742 66.3809 11.2742C66.6781 11.2595 66.7171 11.6933 66.4199 11.7274C66.4199 11.7274 66.1226 11.7615 65.7863 11.781ZM67.7942 19.1107C68.6258 18.6272 69.316 17.9338 69.7958 17.1C70.2755 16.2662 70.5281 15.3211 70.5282 14.3591C70.5282 13.4039 70.2845 12.5072 69.8557 11.7225C69.9427 12.5858 69.8121 13.4571 69.4755 14.2567L67.7942 19.1107ZM65.0309 20.6946C63.3506 20.6946 61.7392 20.0271 60.551 18.839C59.3629 17.6508 58.6954 16.0394 58.6954 14.3591C58.6954 12.6788 59.3629 11.0673 60.551 9.87919C61.7392 8.69105 63.3506 8.02356 65.0309 8.02356C66.7112 8.02356 68.3227 8.69105 69.5108 9.87919C70.6989 11.0673 71.3664 12.6788 71.3664 14.3591C71.3664 16.0394 70.6989 17.6508 69.5108 18.839C68.3227 20.0271 66.7112 20.6946 65.0309 20.6946Z" fill="#1B89DB"/>
</svg>
