<svg width="72" height="72" viewBox="0 0 72 72" fill="none" xmlns="http://www.w3.org/2000/svg">
<path d="M4.13183 31.2289C4.13183 41.9669 10.3776 51.2154 19.41 55.6115L6.48601 20.2027C4.93411 23.6715 4.1319 27.4288 4.13183 31.2289ZM31.2289 58.326C34.3758 58.326 37.4026 57.7735 40.2373 56.7886L40.0451 56.4282L31.7094 33.6071L23.5898 57.221C25.9921 57.9417 28.5624 58.326 31.2289 58.326ZM34.9524 18.5212L44.7534 47.6601L47.468 38.6278C48.621 34.8803 49.5098 32.1898 49.5098 29.8596C49.5098 26.4965 48.3087 24.1904 47.2998 22.4128C45.9065 20.1547 44.6333 18.2569 44.6333 16.0469C44.6333 13.5485 46.5071 11.2424 49.1976 11.2424H49.5339C44.5409 6.65875 38.0068 4.12054 31.2289 4.13183C26.7411 4.13099 22.3235 5.2458 18.3734 7.37597C14.4234 9.50614 11.0649 12.5848 8.59996 16.3351L10.3296 16.3832C13.1642 16.3832 17.5362 16.0228 17.5362 16.0228C19.0256 15.9508 19.1938 18.0888 17.7284 18.2569C17.7284 18.2569 16.2631 18.4491 14.6055 18.5212L24.5027 47.8763L30.4362 30.0999L26.2083 18.5212C25.2612 18.4689 24.316 18.3888 23.3736 18.2809C21.9083 18.1848 22.0764 15.9508 23.5418 16.0228C23.5418 16.0228 28.0099 16.3832 30.6764 16.3832C33.511 16.3832 37.8831 16.0228 37.8831 16.0228C39.3484 15.9508 39.5406 18.0888 38.0753 18.2569C38.0753 18.2569 36.6099 18.4251 34.9524 18.5212ZM44.8495 54.6506C48.9488 52.2671 52.3508 48.8495 54.7157 44.7395C57.0805 40.6294 58.3254 35.9708 58.326 31.2289C58.326 26.5206 57.1249 22.1005 55.0109 18.2329C55.4402 22.4879 54.796 26.7826 53.1372 30.7244L44.8495 54.6506ZM31.2289 62.4578C22.9465 62.4578 15.0033 59.1677 9.14674 53.3111C3.29018 47.4545 0 39.5113 0 31.2289C0 22.9465 3.29018 15.0033 9.14674 9.14674C15.0033 3.29018 22.9465 0 31.2289 0C39.5113 0 47.4545 3.29018 53.3111 9.14674C59.1677 15.0033 62.4578 22.9465 62.4578 31.2289C62.4578 39.5113 59.1677 47.4545 53.3111 53.3111C47.4545 59.1677 39.5113 62.4578 31.2289 62.4578Z" fill="#117AC9"/>
<path d="M41.0216 62.2477C41.1827 62.5347 41.4153 62.75 41.7017 62.9115L55.4818 70.8769C56.0545 71.2177 56.7524 71.2177 57.3072 70.8769L71.0873 62.9115C71.66 62.5885 72 61.9786 72 61.3148V45.384C72 44.7202 71.66 44.1102 71.0873 43.7873L57.3072 35.8219C56.7345 35.481 56.0366 35.481 55.4818 35.8219L41.7017 43.7873C41.1111 44.1102 40.7711 44.7202 40.7711 45.384V61.3327C40.7711 61.6557 40.8427 61.9606 41.0216 62.2477Z" fill="#009639"/>
<path d="M51.9741 59.4312C51.9741 60.4179 51.1867 61.2072 50.2024 61.2072C49.2181 61.2072 48.4307 60.4179 48.4307 59.4312V47.2498C48.4307 46.299 49.2718 45.5276 50.435 45.5276C51.2762 45.5276 52.2604 45.8684 52.851 46.604L53.3879 47.2498L60.797 56.1302V47.2857C60.797 46.299 61.5844 45.5096 62.5687 45.5096C63.553 45.5096 64.3404 46.299 64.3404 47.2857V59.467C64.3404 60.4179 63.4993 61.1893 62.336 61.1893C61.4949 61.1893 60.5106 60.8484 59.92 60.1129L51.9741 50.6046V59.4312Z" fill="white"/>
</svg>
