<svg width="73" height="72" viewBox="0 0 73 72" fill="none" xmlns="http://www.w3.org/2000/svg">
<path d="M4.13183 31.2289C4.13183 41.9669 10.3776 51.2154 19.41 55.6115L6.48601 20.2027C4.93411 23.6715 4.1319 27.4288 4.13183 31.2289ZM31.2289 58.326C34.3758 58.326 37.4026 57.7735 40.2373 56.7886L40.0451 56.4282L31.7094 33.6071L23.5898 57.221C25.9921 57.9417 28.5624 58.326 31.2289 58.326ZM34.9524 18.5212L44.7534 47.6601L47.468 38.6278C48.621 34.8803 49.5098 32.1898 49.5098 29.8596C49.5098 26.4965 48.3087 24.1904 47.2998 22.4128C45.9065 20.1547 44.6333 18.2569 44.6333 16.0469C44.6333 13.5485 46.5071 11.2424 49.1976 11.2424H49.5339C44.5409 6.65875 38.0068 4.12054 31.2289 4.13183C26.7411 4.13099 22.3235 5.2458 18.3734 7.37597C14.4234 9.50614 11.0649 12.5848 8.59996 16.3351L10.3296 16.3832C13.1642 16.3832 17.5362 16.0228 17.5362 16.0228C19.0256 15.9508 19.1938 18.0888 17.7284 18.2569C17.7284 18.2569 16.2631 18.4491 14.6055 18.5212L24.5027 47.8763L30.4362 30.0999L26.2083 18.5212C25.2612 18.4689 24.316 18.3888 23.3736 18.2809C21.9083 18.1848 22.0764 15.9508 23.5418 16.0228C23.5418 16.0228 28.0099 16.3832 30.6764 16.3832C33.511 16.3832 37.8831 16.0228 37.8831 16.0228C39.3484 15.9508 39.5406 18.0888 38.0753 18.2569C38.0753 18.2569 36.6099 18.4251 34.9524 18.5212ZM44.8495 54.6506C48.9488 52.2671 52.3508 48.8495 54.7157 44.7395C57.0805 40.6294 58.3254 35.9708 58.326 31.2289C58.326 26.5206 57.1249 22.1005 55.0109 18.2329C55.4402 22.4879 54.796 26.7826 53.1372 30.7244L44.8495 54.6506ZM31.2289 62.4578C22.9465 62.4578 15.0033 59.1677 9.14674 53.3111C3.29018 47.4545 0 39.5113 0 31.2289C0 22.9465 3.29018 15.0033 9.14674 9.14674C15.0033 3.29018 22.9465 0 31.2289 0C39.5113 0 47.4545 3.29018 53.3111 9.14674C59.1677 15.0033 62.4578 22.9465 62.4578 31.2289C62.4578 39.5113 59.1677 47.4545 53.3111 53.3111C47.4545 59.1677 39.5113 62.4578 31.2289 62.4578Z" fill="#117AC9"/>
<path d="M71.7179 51.9495L62.9033 43.1337C62.8664 43.0971 62.8166 43.0765 62.7651 43.0765C62.7614 43.0765 62.7576 43.0767 62.7536 43.077C62.6981 43.0802 62.6466 43.1072 62.6119 43.1509L58.8549 47.9181C58.7936 47.9959 58.8005 48.1069 58.8702 48.1769L62.9178 52.2245C63.0633 52.3702 63.1431 52.5636 63.1425 52.7702C63.1419 52.9745 63.0625 53.1655 62.9186 53.3078L61.7488 54.4774C61.6829 54.5435 61.6728 54.6467 61.7244 54.7238C62.016 55.1601 62.4933 55.8785 62.5379 55.9581C62.6844 56.2513 62.7334 56.9999 62.3011 57.3288L53.0924 64.4014C53.0444 64.4385 53.0162 64.4957 53.0162 64.5562C53.0162 65.3409 53.016 66.4009 53.0158 67.4681C53.0156 68.5449 53.0152 69.6291 53.0152 70.4444C53.0152 70.8517 53.0154 71.192 53.0156 71.4302C53.0156 71.5495 53.0156 71.6434 53.0158 71.7073C53.016 71.8433 53.0162 71.9257 53.124 71.9793C53.151 71.9928 53.1809 72 53.2113 72C53.2919 72 53.3241 71.9682 53.4019 71.8906L53.5558 71.7369C53.6906 71.6025 53.8881 71.4049 54.1394 71.1541C54.642 70.6521 55.3594 69.9349 56.2207 69.0744C57.9428 67.3533 60.2387 65.0583 62.5345 62.7634C67.1258 58.1742 71.7169 53.5841 71.7169 53.5841C72.1631 53.1324 72.1628 52.3993 71.7179 51.9495Z" fill="#6699FF"/>
<path d="M60.0043 33.0874L60.0015 33.0834C59.9995 33.081 59.9979 33.0786 59.9959 33.0763L59.9908 33.0703C59.9555 33.0282 59.9048 33.0028 59.8498 33C59.8467 33 59.8438 33 59.8407 33C59.7893 33 59.7395 33.0205 59.7027 33.0572L41.3391 51.423C41.1205 51.6392 40.9998 51.9298 41 52.2401C41.0002 52.55 41.1209 52.8394 41.34 53.0552L50.1521 61.8684C50.1886 61.9051 50.2384 61.9256 50.29 61.9256C50.2938 61.9256 50.2974 61.9256 50.3015 61.9252C50.3571 61.9218 50.4085 61.895 50.4431 61.8513L54.2024 57.0841C54.2634 57.0063 54.257 56.8955 54.187 56.8255L50.1354 52.7777C49.9919 52.6354 49.9131 52.4446 49.9128 52.24C49.9126 52.0343 49.9915 51.8421 50.1353 51.6988L51.3075 50.5248C51.3742 50.4577 51.3835 50.3529 51.3297 50.2753L50.5294 49.1255C50.2062 48.6672 50.3066 48.0167 50.7525 47.6748L59.9646 40.6067C60.0124 40.5698 60.041 40.5128 60.041 40.452L60.0438 33.2051C60.0438 33.1626 60.0301 33.1213 60.0043 33.0874Z" fill="#CCFFFF"/>
<path d="M61.6265 55.8395L51.4259 49.2148L55.9314 55.692C56.0285 55.8401 56.0184 56.0934 55.9116 56.2365L47.8416 66.4786C47.6987 66.664 47.5796 66.8649 47.6804 67.0725C47.735 67.1813 47.8669 67.268 47.9943 67.2787C48.1537 67.2771 48.2756 67.2073 48.4435 67.0796L61.4133 57.1232C61.8099 56.8201 61.7992 56.086 61.6265 55.8395Z" fill="#F2C913"/>
<path d="M65.3712 37.9307C65.3101 37.8059 65.1744 37.7215 65.0337 37.7215C64.9083 37.7215 64.7895 37.7757 64.6085 37.9141L51.6332 47.8782C51.2219 48.1927 51.1291 48.7922 51.4258 49.2148L61.6264 55.8395C61.4787 55.6231 57.1635 49.3677 57.12 49.3044C57.0222 49.1662 57.0303 48.897 57.1367 48.7617L65.207 38.5154L65.2126 38.5089C65.3436 38.3409 65.475 38.1439 65.3712 37.9307Z" fill="#F4D646"/>
</svg>
