<svg width="72" height="60" viewBox="0 0 72 60" fill="none" xmlns="http://www.w3.org/2000/svg">
<rect x="3" y="20" width="67" height="30" rx="3" fill="white"/>
<path fill-rule="evenodd" clip-rule="evenodd" d="M65.2887 17H6.68214C2.97322 17 -0.0292212 20.0319 0.000214605 23.7113V46.0825C0.000214605 49.7913 3.00266 52.7938 6.71157 52.7938H34.4694L47.1564 59.8584L44.2716 52.7938H65.2887C68.9977 52.7938 72 49.7913 72 46.0825V23.7113C72 20.0024 68.9977 17 65.2887 17ZM5.44596 22.1807C4.62175 22.2396 4.00359 22.5339 3.5915 23.0932C3.1794 23.623 3.03223 24.3001 3.12053 25.0654C4.85724 36.1039 6.4762 43.551 7.97743 47.4071C8.56615 48.82 9.24317 49.4972 10.0379 49.4383C11.2742 49.3499 12.746 47.6427 14.4827 44.3164C15.3952 42.4324 16.8082 39.6067 18.7215 35.8388C20.3109 41.4022 22.4892 45.5822 25.2268 48.3785C25.9922 49.1732 26.7869 49.5265 27.5521 49.4676C28.2293 49.4087 28.759 49.0555 29.1123 48.4079C29.4066 47.8486 29.5244 47.201 29.4655 46.4651C29.2889 43.7865 29.5539 40.0482 30.2898 35.2502C31.055 30.305 31.997 26.7432 33.145 24.6239C33.3805 24.1823 33.4687 23.7408 33.4394 23.2109C33.3805 22.5339 33.0861 21.9746 32.5269 21.5331C31.9676 21.0916 31.3494 20.8855 30.6724 20.9444C29.8188 21.0033 29.1711 21.4153 28.7297 22.2396C26.9047 25.5658 25.6094 30.9525 24.8442 38.4292C23.7256 35.6034 22.7835 32.2771 22.0477 28.3622C21.724 26.6255 20.9292 25.8013 19.634 25.8896C18.7509 25.9485 18.015 26.5372 17.4263 27.6557L10.9799 39.9304C9.92019 35.6623 8.91937 30.4521 8.00687 24.3001C7.80082 22.7694 6.94717 22.0629 5.44596 22.1807ZM62.1686 24.3001C64.2586 24.7417 65.8188 25.8602 66.8783 27.7147C67.8204 29.3042 68.2912 31.2176 68.2912 33.5135C68.2912 36.5454 67.526 39.3123 65.9952 41.8438C64.2291 44.7874 61.9331 46.2592 59.0779 46.2592C58.5776 46.2592 58.0477 46.2003 57.4883 46.0825C55.3985 45.6411 53.8383 44.5226 52.7786 42.6681C51.8367 41.0491 51.3657 39.1064 51.3657 36.8397C51.3657 33.8079 52.1311 31.0409 53.6617 28.5389C55.4573 25.5953 57.7533 24.1235 60.5792 24.1235C61.0795 24.1235 61.6094 24.1824 62.1686 24.3001ZM60.9324 40.2248C62.0215 39.2535 62.7574 37.8111 63.1695 35.8684C63.2873 35.1914 63.3755 34.4555 63.3755 33.6901C63.3755 32.8365 63.1989 31.924 62.8456 31.0115C62.4041 29.8635 61.8154 29.2454 61.1089 29.0982C60.0493 28.8921 59.019 29.4808 58.0477 30.9232C57.253 32.0417 56.7524 33.2192 56.4876 34.426C56.3403 35.1031 56.2814 35.839 56.2814 36.5749C56.2814 37.4285 56.458 38.341 56.8113 39.2535C57.253 40.4015 57.8415 41.0196 58.548 41.1668C59.2839 41.3139 60.0786 40.9902 60.9324 40.2248ZM48.4221 27.7147C47.3623 25.8602 45.7729 24.7417 43.7124 24.3001C43.153 24.1824 42.6233 24.1235 42.1227 24.1235C39.2971 24.1235 37.0011 25.5953 35.2055 28.5389C33.6747 31.0409 32.9095 33.8079 32.9095 36.8397C32.9095 39.1064 33.3805 41.0491 34.3223 42.6681C35.3821 44.5226 36.9422 45.6411 39.032 46.0825C39.5913 46.2003 40.1211 46.2592 40.6217 46.2592C43.4769 46.2592 45.7729 44.7874 47.539 41.8438C49.0697 39.3123 49.8349 36.5454 49.8349 33.5135C49.8349 31.2176 49.3639 29.3042 48.4221 27.7147ZM44.7131 35.8684C44.3012 37.8111 43.5651 39.2535 42.476 40.2248C41.6224 40.9902 40.8277 41.3139 40.0918 41.1668C39.3853 41.0196 38.7965 40.4015 38.355 39.2535C38.0018 38.341 37.8252 37.4285 37.8252 36.5749C37.8252 35.839 37.884 35.1031 38.0313 34.426C38.2962 33.2192 38.7965 32.0417 39.5913 30.9232C40.5628 29.4808 41.593 28.8921 42.6526 29.0982C43.3591 29.2454 43.9479 29.8635 44.3894 31.0115C44.7426 31.924 44.9193 32.8365 44.9193 33.6901C44.9193 34.4555 44.8604 35.1914 44.7131 35.8684Z" fill="#7F54B3"/>
<path d="M41.1695 18.0045C41.2784 18.1982 41.4358 18.3435 41.6295 18.4525L50.9511 23.8275C51.3385 24.0575 51.8106 24.0575 52.1859 23.8275L61.5074 18.4525C61.8948 18.2346 62.1248 17.823 62.1248 17.375V6.62497C62.1248 6.17705 61.8948 5.76545 61.5074 5.54754L52.1859 0.172509C51.7985 -0.0575032 51.3264 -0.0575032 50.9511 0.172509L41.6295 5.54754C41.23 5.76545 41 6.17705 41 6.62497V17.3871C41 17.605 41.0484 17.8108 41.1695 18.0045Z" fill="#009639"/>
<path d="M48.5783 16.1039C48.5783 16.7697 48.0457 17.3024 47.3799 17.3024C46.714 17.3024 46.1814 16.7697 46.1814 16.1039V7.88399C46.1814 7.24238 46.7504 6.72182 47.5372 6.72182C48.1062 6.72182 48.772 6.95184 49.1715 7.44818L49.5347 7.88399L54.5466 13.8764V7.9082C54.5466 7.24238 55.0792 6.70972 55.7451 6.70972C56.4109 6.70972 56.9435 7.24238 56.9435 7.9082V16.1281C56.9435 16.7697 56.3746 17.2903 55.5877 17.2903C55.0187 17.2903 54.3529 17.0603 53.9534 16.5639L48.5783 10.1478V16.1039Z" fill="white"/>
</svg>
