<svg width="72" height="32" viewBox="0 0 72 32" fill="none" xmlns="http://www.w3.org/2000/svg">
<rect x="12" y="1" width="48" height="23" rx="3" fill="white"/>
<path fill-rule="evenodd" clip-rule="evenodd" d="M57.3755 -3.05176e-05H14.657C11.9536 -3.05176e-05 9.76511 2.20991 9.78656 4.89189V21.1983C9.78656 23.9017 11.9751 26.0902 14.6785 26.0902H34.9113L44.1588 31.2396L42.0561 26.0902H57.3755C60.079 26.0902 62.2674 23.9017 62.2674 21.1983V4.89189C62.2674 2.18845 60.079 -3.05176e-05 57.3755 -3.05176e-05ZM13.756 3.77618C13.1552 3.8191 12.7046 4.03366 12.4043 4.44131C12.1039 4.82752 11.9966 5.321 12.061 5.87885C13.3269 13.9248 14.5069 19.3531 15.6012 22.1638C16.0303 23.1936 16.5238 23.6872 17.1031 23.6443C18.0042 23.5799 19.077 22.3355 20.3429 19.911C21.008 18.5377 22.0379 16.4781 23.4326 13.7317C24.5911 17.7868 26.1788 20.8336 28.1743 22.8719C28.7322 23.4511 29.3115 23.7086 29.8692 23.6657C30.3628 23.6228 30.7489 23.3653 31.0064 22.8932C31.221 22.4856 31.3068 22.0136 31.2639 21.4772C31.1352 19.5248 31.3283 16.7999 31.8647 13.3026C32.4225 9.69799 33.1091 7.10183 33.9459 5.55702C34.1175 5.23518 34.1818 4.91333 34.1605 4.52714C34.1175 4.03364 33.903 3.62599 33.4953 3.30416C33.0877 2.98232 32.637 2.83214 32.1436 2.87504C31.5214 2.91795 31.0493 3.21833 30.7275 3.8191C29.3973 6.2436 28.4532 10.17 27.8954 15.6198C27.08 13.56 26.3934 11.1355 25.857 8.2819C25.6211 7.01601 25.0418 6.41525 24.0977 6.47962C23.454 6.52252 22.9176 6.95164 22.4885 7.76696L17.7897 16.714C17.0173 13.6029 16.2878 9.80527 15.6226 5.321C15.4724 4.2053 14.8502 3.69035 13.756 3.77618ZM55.1013 5.32107C56.6247 5.64291 57.7619 6.45823 58.5342 7.80994C59.2209 8.96856 59.564 10.3632 59.564 12.0367C59.564 14.2466 59.0063 16.2635 57.8905 18.1087C56.6032 20.2543 54.9296 21.3271 52.8485 21.3271C52.4838 21.3271 52.0975 21.2841 51.6898 21.1983C50.1665 20.8765 49.0293 20.0613 48.2568 18.7095C47.5703 17.5294 47.227 16.1134 47.227 14.4612C47.227 12.2513 47.7849 10.2344 48.9006 8.41071C50.2094 6.26513 51.883 5.19233 53.9427 5.19233C54.3074 5.19233 54.6937 5.23525 55.1013 5.32107ZM54.2002 16.9286C54.9941 16.2206 55.5305 15.1692 55.8309 13.7532C55.9167 13.2597 55.981 12.7233 55.981 12.1655C55.981 11.5433 55.8522 10.8781 55.5948 10.213C55.273 9.37621 54.8438 8.92565 54.3288 8.81836C53.5565 8.66817 52.8056 9.09729 52.0975 10.1486C51.5182 10.9639 51.1534 11.8222 50.9604 12.7019C50.853 13.1954 50.8101 13.7318 50.8101 14.2682C50.8101 14.8904 50.9388 15.5555 51.1963 16.2206C51.5182 17.0574 51.9473 17.5079 52.4622 17.6153C52.9986 17.7225 53.5779 17.4865 54.2002 16.9286ZM45.0814 7.80994C44.3089 6.45823 43.1504 5.64291 41.6485 5.32107C41.2407 5.23525 40.8546 5.19233 40.4898 5.19233C38.4301 5.19233 36.7566 6.26513 35.4478 8.41071C34.332 10.2344 33.7742 12.2513 33.7742 14.4612C33.7742 16.1134 34.1175 17.5294 34.804 18.7095C35.5765 20.0613 36.7137 20.8765 38.237 21.1983C38.6446 21.2841 39.0308 21.3271 39.3957 21.3271C41.4768 21.3271 43.1504 20.2543 44.4377 18.1087C45.5535 16.2635 46.1112 14.2466 46.1112 12.0367C46.1112 10.3632 45.7679 8.96856 45.0814 7.80994ZM42.3779 13.7532C42.0776 15.1692 41.5411 16.2206 40.7473 16.9286C40.1251 17.4865 39.5458 17.7225 39.0094 17.6153C38.4945 17.5079 38.0653 17.0574 37.7435 16.2206C37.486 15.5555 37.3573 14.8904 37.3573 14.2682C37.3573 13.7318 37.4002 13.1954 37.5075 12.7019C37.7006 11.8222 38.0653 10.9639 38.6446 10.1486C39.3528 9.09729 40.1037 8.66817 40.876 8.81836C41.391 8.92565 41.8202 9.37621 42.1419 10.213C42.3994 10.8781 42.5282 11.5433 42.5282 12.1655C42.5282 12.7233 42.4853 13.2597 42.3779 13.7532Z" fill="#7F54B3"/>
<path fill-rule="evenodd" clip-rule="evenodd" d="M58.4894 26.4667H62.8282C65.2578 26.4667 67.2273 24.4971 67.2273 22.0676V4.39903C67.2273 1.9695 65.2578 -3.05176e-05 62.8282 -3.05176e-05H58.4894C60.919 -3.05176e-05 62.8885 1.9695 62.8885 4.39903V22.0676C62.8885 24.4971 60.919 26.4667 58.4894 26.4667Z" fill="#7F54B3" fill-opacity="0.5"/>
<path fill-rule="evenodd" clip-rule="evenodd" d="M63.2621 26.4667H67.6009C70.0305 26.4667 72 24.4971 72 22.0676V4.39903C72 1.9695 70.0305 -3.05176e-05 67.6009 -3.05176e-05H63.2621C65.6917 -3.05176e-05 67.6612 1.9695 67.6612 4.39903V22.0676C67.6612 24.4971 65.6917 26.4667 63.2621 26.4667Z" fill="#7F54B3" fill-opacity="0.2"/>
<path d="M70.9177 13.4925C71.0814 13.6563 71.0814 13.9218 70.9177 14.0856L68.2485 16.7548C68.0847 16.9186 67.8191 16.9186 67.6554 16.7548C67.4916 16.591 67.4916 16.3254 67.6554 16.1616L70.0279 13.789L67.6554 11.4164C67.4916 11.2527 67.4916 10.9871 67.6554 10.8233C67.8191 10.6595 68.0847 10.6595 68.2485 10.8233L70.9177 13.4925ZM65.1055 14.2085C64.8738 14.2085 64.686 14.0207 64.686 13.789C64.686 13.5574 64.8738 13.3696 65.1055 13.3696L65.1055 14.2085ZM70.6211 14.2084L65.1055 14.2085L65.1055 13.3696L70.6211 13.3696L70.6211 14.2084Z" fill="#9D6BDB"/>
<path fill-rule="evenodd" clip-rule="evenodd" d="M13.5105 26.4667H9.17173C6.74219 26.4667 4.77266 24.4971 4.77266 22.0676V4.39903C4.77266 1.9695 6.74219 -3.05176e-05 9.17173 -3.05176e-05H13.5105C11.081 -3.05176e-05 9.11147 1.9695 9.11147 4.39903V22.0676C9.11147 24.4971 11.081 26.4667 13.5105 26.4667Z" fill="#7F54B3" fill-opacity="0.5"/>
<path fill-rule="evenodd" clip-rule="evenodd" d="M8.73786 26.4667H4.39905C1.96952 26.4667 -1.11891e-05 24.4971 -1.11891e-05 22.0676V4.39903C-1.11891e-05 1.9695 1.96952 -3.05176e-05 4.39905 -3.05176e-05H8.73786C6.30833 -3.05176e-05 4.3388 1.9695 4.3388 4.39903V22.0676C4.3388 24.4971 6.30833 26.4667 8.73786 26.4667Z" fill="#7F54B3" fill-opacity="0.2"/>
<path d="M1.08235 13.4925C0.918554 13.6563 0.918554 13.9218 1.08235 14.0856L3.7515 16.7548C3.9153 16.9186 4.18086 16.9186 4.34465 16.7548C4.50844 16.591 4.50844 16.3254 4.34465 16.1616L1.97207 13.789L4.34465 11.4164C4.50844 11.2527 4.50844 10.9871 4.34465 10.8233C4.18086 10.6595 3.9153 10.6595 3.7515 10.8233L1.08235 13.4925ZM6.89455 14.2085C7.12618 14.2085 7.31396 14.0207 7.31396 13.789C7.31396 13.5574 7.12618 13.3696 6.89455 13.3696L6.89455 14.2085ZM1.37892 14.2084L6.89455 14.2085L6.89455 13.3696L1.37892 13.3696L1.37892 14.2084Z" fill="#9D6BDB"/>
</svg>
