<svg width="72" height="60" viewBox="0 0 72 60" fill="none" xmlns="http://www.w3.org/2000/svg">
<rect x="3" y="20" width="67" height="30" rx="3" fill="white"/>
<path fill-rule="evenodd" clip-rule="evenodd" d="M65.2887 17H6.68214C2.97322 17 -0.0292212 20.0319 0.000214605 23.7113V46.0825C0.000214605 49.7913 3.00266 52.7938 6.71157 52.7938H34.4694L47.1564 59.8584L44.2716 52.7938H65.2887C68.9977 52.7938 72 49.7913 72 46.0825V23.7113C72 20.0024 68.9977 17 65.2887 17ZM5.44596 22.1807C4.62175 22.2396 4.00359 22.5339 3.5915 23.0932C3.1794 23.623 3.03223 24.3001 3.12053 25.0654C4.85724 36.1039 6.4762 43.551 7.97743 47.4071C8.56615 48.82 9.24317 49.4972 10.0379 49.4383C11.2742 49.3499 12.746 47.6427 14.4827 44.3164C15.3952 42.4324 16.8082 39.6067 18.7215 35.8388C20.3109 41.4022 22.4892 45.5822 25.2268 48.3785C25.9922 49.1732 26.7869 49.5265 27.5521 49.4676C28.2293 49.4087 28.759 49.0555 29.1123 48.4079C29.4066 47.8486 29.5244 47.201 29.4655 46.4651C29.2889 43.7865 29.5539 40.0482 30.2898 35.2502C31.055 30.305 31.997 26.7432 33.145 24.6239C33.3805 24.1823 33.4687 23.7408 33.4394 23.2109C33.3805 22.5339 33.0861 21.9746 32.5269 21.5331C31.9676 21.0916 31.3494 20.8855 30.6724 20.9444C29.8188 21.0033 29.1711 21.4153 28.7297 22.2396C26.9047 25.5658 25.6094 30.9525 24.8442 38.4292C23.7256 35.6034 22.7835 32.2771 22.0477 28.3622C21.724 26.6255 20.9292 25.8013 19.634 25.8896C18.7509 25.9485 18.015 26.5372 17.4263 27.6557L10.9799 39.9304C9.92019 35.6623 8.91937 30.4521 8.00687 24.3001C7.80082 22.7694 6.94717 22.0629 5.44596 22.1807ZM62.1686 24.3001C64.2586 24.7417 65.8188 25.8602 66.8783 27.7147C67.8204 29.3042 68.2912 31.2176 68.2912 33.5135C68.2912 36.5454 67.526 39.3123 65.9952 41.8438C64.2291 44.7874 61.9331 46.2592 59.0779 46.2592C58.5776 46.2592 58.0477 46.2003 57.4883 46.0825C55.3985 45.6411 53.8383 44.5226 52.7786 42.6681C51.8367 41.0491 51.3657 39.1064 51.3657 36.8397C51.3657 33.8079 52.1311 31.0409 53.6617 28.5389C55.4573 25.5953 57.7533 24.1235 60.5792 24.1235C61.0795 24.1235 61.6094 24.1824 62.1686 24.3001ZM60.9324 40.2248C62.0215 39.2535 62.7574 37.8111 63.1695 35.8684C63.2873 35.1914 63.3755 34.4555 63.3755 33.6901C63.3755 32.8365 63.1989 31.924 62.8456 31.0115C62.4041 29.8635 61.8154 29.2454 61.1089 29.0982C60.0493 28.8921 59.019 29.4808 58.0477 30.9232C57.253 32.0417 56.7524 33.2192 56.4876 34.426C56.3403 35.1031 56.2814 35.839 56.2814 36.5749C56.2814 37.4285 56.458 38.341 56.8113 39.2535C57.253 40.4015 57.8415 41.0196 58.548 41.1668C59.2839 41.3139 60.0786 40.9902 60.9324 40.2248ZM48.4221 27.7147C47.3623 25.8602 45.7729 24.7417 43.7124 24.3001C43.153 24.1824 42.6233 24.1235 42.1227 24.1235C39.2971 24.1235 37.0011 25.5953 35.2055 28.5389C33.6747 31.0409 32.9095 33.8079 32.9095 36.8397C32.9095 39.1064 33.3805 41.0491 34.3223 42.6681C35.3821 44.5226 36.9422 45.6411 39.032 46.0825C39.5913 46.2003 40.1211 46.2592 40.6217 46.2592C43.4769 46.2592 45.7729 44.7874 47.539 41.8438C49.0697 39.3123 49.8349 36.5454 49.8349 33.5135C49.8349 31.2176 49.3639 29.3042 48.4221 27.7147ZM44.7131 35.8684C44.3012 37.8111 43.5651 39.2535 42.476 40.2248C41.6224 40.9902 40.8277 41.3139 40.0918 41.1668C39.3853 41.0196 38.7965 40.4015 38.355 39.2535C38.0018 38.341 37.8252 37.4285 37.8252 36.5749C37.8252 35.839 37.884 35.1031 38.0313 34.426C38.2962 33.2192 38.7965 32.0417 39.5913 30.9232C40.5628 29.4808 41.593 28.8921 42.6526 29.0982C43.3591 29.2454 43.9479 29.8635 44.3894 31.0115C44.7426 31.924 44.9193 32.8365 44.9193 33.6901C44.9193 34.4555 44.8604 35.1914 44.7131 35.8684Z" fill="#7F54B3"/>
<path d="M62.4786 12.633L56.6022 6.75584C56.5776 6.73139 56.5444 6.7177 56.51 6.7177C56.5076 6.7177 56.505 6.71784 56.5023 6.71797C56.4654 6.72014 56.431 6.73813 56.4079 6.76729L53.9032 9.94542C53.8624 9.99728 53.8669 10.0713 53.9134 10.1179L56.6118 12.8163C56.7088 12.9134 56.762 13.0424 56.7616 13.1801C56.7612 13.3163 56.7083 13.4437 56.6124 13.5385L55.8325 14.3183C55.7886 14.3623 55.7818 14.4311 55.8162 14.4826C56.0106 14.7734 56.3289 15.2523 56.3586 15.3054C56.4562 15.5009 56.4889 16 56.2007 16.2192L50.0616 20.9343C50.0296 20.959 50.0108 20.9972 50.0108 21.0375C50.0108 21.5606 50.0106 22.2672 50.0105 22.9787C50.0104 23.6966 50.0101 24.4194 50.0101 24.9629C50.0101 25.2344 50.0102 25.4613 50.0104 25.6201C50.0104 25.6997 50.0104 25.7622 50.0105 25.8048C50.0106 25.8955 50.0108 25.9504 50.0827 25.9862C50.1007 25.9952 50.1206 26 50.1408 26C50.1946 26 50.2161 25.9788 50.2679 25.9271L50.3705 25.8246C50.4604 25.735 50.592 25.6033 50.7596 25.436C51.0946 25.1014 51.5729 24.6233 52.1471 24.0496C53.2952 22.9022 54.8257 21.3722 56.3563 19.8423C59.4172 16.7828 62.4779 13.7227 62.4779 13.7227C62.7753 13.4216 62.7752 12.9329 62.4786 12.633Z" fill="#6699FF"/>
<path d="M54.6696 0.0582937L54.6677 0.0556112C54.6663 0.0539948 54.6653 0.0523784 54.6639 0.0508995L54.6605 0.0468757C54.637 0.0188122 54.6032 0.00185715 54.5665 0C54.5645 0 54.5625 0 54.5605 0C54.5262 0 54.493 0.0136879 54.4684 0.0381403L42.2261 12.282C42.0803 12.4261 41.9999 12.6198 42 12.8267C42.0001 13.0333 42.0806 13.2262 42.2266 13.3701L48.1014 19.2456C48.1257 19.2701 48.1589 19.2837 48.1933 19.2837C48.1959 19.2837 48.1983 19.2837 48.201 19.2835C48.2381 19.2812 48.2723 19.2633 48.2954 19.2342L50.8016 16.056C50.8423 16.0042 50.838 15.9303 50.7914 15.8837L48.0903 13.1851C47.9946 13.0903 47.9421 12.9631 47.9418 12.8267C47.9417 12.6895 47.9944 12.5614 48.0902 12.4659L48.8716 11.6832C48.9161 11.6384 48.9223 11.5686 48.8864 11.5169L48.353 10.7503C48.1375 10.4448 48.2044 10.0112 48.5017 9.78317L54.6431 5.07114C54.6749 5.04655 54.694 5.00855 54.694 4.96797L54.6959 0.136741C54.6959 0.108402 54.6867 0.080889 54.6696 0.0582937Z" fill="#CCFFFF"/>
<path d="M55.751 15.2263L48.9506 10.8098L51.9542 15.1279C52.019 15.2267 52.0123 15.3956 51.9411 15.491L46.561 22.319C46.4658 22.4426 46.3864 22.5765 46.4536 22.7149C46.49 22.7875 46.578 22.8452 46.6629 22.8524C46.7691 22.8513 46.8504 22.8048 46.9623 22.7197L55.6089 16.0821C55.8733 15.88 55.8661 15.3906 55.751 15.2263Z" fill="#F2C913"/>
<path d="M58.2474 3.28709C58.2067 3.20393 58.1162 3.14763 58.0224 3.14763C57.9388 3.14763 57.8596 3.18377 57.7389 3.27605L49.0888 9.91875C48.8146 10.1285 48.7527 10.5281 48.9505 10.8098L55.7509 15.2263C55.6524 15.0821 52.7756 10.9118 52.7466 10.8696C52.6814 10.7774 52.6868 10.598 52.7578 10.5078L58.1379 3.67692L58.1417 3.67262C58.229 3.5606 58.3166 3.42923 58.2474 3.28709Z" fill="#F4D646"/>
</svg>
